<svg width="253" height="339" viewBox="0 0 253 339" fill="none" xmlns="http://www.w3.org/2000/svg">
<path d="M155 11.5C155 9.96218 154.678 8.44316 154.058 7.05029L150.012 9.03752C150.356 9.80833 150.534 10.649 150.534 11.5H155Z" fill="#276EF1" stroke="#276EF1"/>
<path d="M154.058 7.05034C153.45 5.68702 152.571 4.47677 151.479 3.50162C150.387 2.52647 149.108 1.80923 147.729 1.3985C146.35 0.98777 144.903 0.893161 143.486 1.12108C142.069 1.34901 140.715 1.89413 139.516 2.71951L141.965 6.64089C142.629 6.18413 143.378 5.88246 144.162 5.75633C144.946 5.6302 145.747 5.68255 146.51 5.90985C147.273 6.13715 147.981 6.53407 148.585 7.07371C149.19 7.61336 149.676 8.28311 150.013 9.03757L154.058 7.05034Z" fill="#276EF1" stroke="#276EF1"/>
<path d="M139.516 2.71948C138.069 3.71634 136.892 5.09078 136.102 6.70831C135.312 8.32584 134.935 10.131 135.009 11.9472C135.083 13.7634 135.604 15.5284 136.523 17.0695C137.441 18.6105 138.725 19.8748 140.248 20.7387C141.771 21.6025 143.482 22.0363 145.213 21.9976C146.944 21.9589 148.636 21.449 150.122 20.5178C151.609 19.5866 152.841 18.266 153.696 16.6853C154.551 15.1045 155 13.3178 155 11.5H150.534C150.534 12.506 150.285 13.4947 149.812 14.3695C149.339 15.2443 148.658 15.9751 147.835 16.4904C147.012 17.0057 146.076 17.2879 145.118 17.3093C144.16 17.3308 143.213 17.0907 142.37 16.6127C141.527 16.1346 140.817 15.4349 140.309 14.5821C139.8 13.7293 139.512 12.7526 139.471 11.7475C139.43 10.7424 139.639 9.74341 140.076 8.84827C140.513 7.95314 141.164 7.19252 141.965 6.64087L139.516 2.71948Z" fill="#276EF1" stroke="#276EF1"/>
<rect x="134" y="24" width="22" height="4" fill="#276EF1"/>
<path d="M112.43 44.24C112.43 43.68 112.543 43.19 112.77 42.77C112.997 42.3433 113.307 42.0133 113.7 41.78C114.1 41.5467 114.543 41.43 115.03 41.43C115.51 41.43 115.927 41.5333 116.28 41.74C116.633 41.9467 116.897 42.2067 117.07 42.52V41.52H117.99V47H117.07V45.98C116.89 46.3 116.62 46.5667 116.26 46.78C115.907 46.9867 115.493 47.09 115.02 47.09C114.533 47.09 114.093 46.97 113.7 46.73C113.307 46.49 112.997 46.1533 112.77 45.72C112.543 45.2867 112.43 44.7933 112.43 44.24ZM117.07 44.25C117.07 43.8367 116.987 43.4767 116.82 43.17C116.653 42.8633 116.427 42.63 116.14 42.47C115.86 42.3033 115.55 42.22 115.21 42.22C114.87 42.22 114.56 42.3 114.28 42.46C114 42.62 113.777 42.8533 113.61 43.16C113.443 43.4667 113.36 43.8267 113.36 44.24C113.36 44.66 113.443 45.0267 113.61 45.34C113.777 45.6467 114 45.8833 114.28 46.05C114.56 46.21 114.87 46.29 115.21 46.29C115.55 46.29 115.86 46.21 116.14 46.05C116.427 45.8833 116.653 45.6467 116.82 45.34C116.987 45.0267 117.07 44.6633 117.07 44.25ZM120.438 39.6V47H119.528V39.6H120.438ZM122.899 42.54C123.085 42.2133 123.359 41.9467 123.719 41.74C124.079 41.5333 124.489 41.43 124.949 41.43C125.442 41.43 125.885 41.5467 126.279 41.78C126.672 42.0133 126.982 42.3433 127.209 42.77C127.435 43.19 127.549 43.68 127.549 44.24C127.549 44.7933 127.435 45.2867 127.209 45.72C126.982 46.1533 126.669 46.49 126.269 46.73C125.875 46.97 125.435 47.09 124.949 47.09C124.475 47.09 124.059 46.9867 123.699 46.78C123.345 46.5733 123.079 46.31 122.899 45.99V47H121.989V39.6H122.899V42.54ZM126.619 44.24C126.619 43.8267 126.535 43.4667 126.369 43.16C126.202 42.8533 125.975 42.62 125.689 42.46C125.409 42.3 125.099 42.22 124.759 42.22C124.425 42.22 124.115 42.3033 123.829 42.47C123.549 42.63 123.322 42.8667 123.149 43.18C122.982 43.4867 122.899 43.8433 122.899 44.25C122.899 44.6633 122.982 45.0267 123.149 45.34C123.322 45.6467 123.549 45.8833 123.829 46.05C124.115 46.21 124.425 46.29 124.759 46.29C125.099 46.29 125.409 46.21 125.689 46.05C125.975 45.8833 126.202 45.6467 126.369 45.34C126.535 45.0267 126.619 44.66 126.619 44.24ZM133.607 41.52V47H132.697V46.19C132.523 46.47 132.28 46.69 131.967 46.85C131.66 47.0033 131.32 47.08 130.947 47.08C130.52 47.08 130.137 46.9933 129.797 46.82C129.457 46.64 129.187 46.3733 128.987 46.02C128.793 45.6667 128.697 45.2367 128.697 44.73V41.52H129.597V44.61C129.597 45.15 129.733 45.5667 130.007 45.86C130.28 46.1467 130.653 46.29 131.127 46.29C131.613 46.29 131.997 46.14 132.277 45.84C132.557 45.54 132.697 45.1033 132.697 44.53V41.52H133.607ZM136.053 42.41C136.213 42.0967 136.44 41.8533 136.733 41.68C137.033 41.5067 137.396 41.42 137.823 41.42V42.36H137.583C136.563 42.36 136.053 42.9133 136.053 44.02V47H135.143V41.52H136.053V42.41ZM143.594 41.52L140.294 49.58H139.354L140.434 46.94L138.224 41.52H139.234L140.954 45.96L142.654 41.52H143.594ZM150.108 47.38V48.22H144.788V47.38H150.108ZM153.782 47.09C153.362 47.09 152.986 47.02 152.652 46.88C152.319 46.7333 152.056 46.5333 151.862 46.28C151.669 46.02 151.562 45.7233 151.542 45.39H152.482C152.509 45.6633 152.636 45.8867 152.862 46.06C153.096 46.2333 153.399 46.32 153.772 46.32C154.119 46.32 154.392 46.2433 154.592 46.09C154.792 45.9367 154.892 45.7433 154.892 45.51C154.892 45.27 154.786 45.0933 154.572 44.98C154.359 44.86 154.029 44.7433 153.582 44.63C153.176 44.5233 152.842 44.4167 152.582 44.31C152.329 44.1967 152.109 44.0333 151.922 43.82C151.742 43.6 151.652 43.3133 151.652 42.96C151.652 42.68 151.736 42.4233 151.902 42.19C152.069 41.9567 152.306 41.7733 152.612 41.64C152.919 41.5 153.269 41.43 153.662 41.43C154.269 41.43 154.759 41.5833 155.132 41.89C155.506 42.1967 155.706 42.6167 155.732 43.15H154.822C154.802 42.8633 154.686 42.6333 154.472 42.46C154.266 42.2867 153.986 42.2 153.632 42.2C153.306 42.2 153.046 42.27 152.852 42.41C152.659 42.55 152.562 42.7333 152.562 42.96C152.562 43.14 152.619 43.29 152.732 43.41C152.852 43.5233 152.999 43.6167 153.172 43.69C153.352 43.7567 153.599 43.8333 153.912 43.92C154.306 44.0267 154.626 44.1333 154.872 44.24C155.119 44.34 155.329 44.4933 155.502 44.7C155.682 44.9067 155.776 45.1767 155.782 45.51C155.782 45.81 155.699 46.08 155.532 46.32C155.366 46.56 155.129 46.75 154.822 46.89C154.522 47.0233 154.176 47.09 153.782 47.09ZM159.787 41.42C160.2 41.42 160.574 41.51 160.907 41.69C161.24 41.8633 161.5 42.1267 161.687 42.48C161.88 42.8333 161.977 43.2633 161.977 43.77V47H161.077V43.9C161.077 43.3533 160.94 42.9367 160.667 42.65C160.394 42.3567 160.02 42.21 159.547 42.21C159.067 42.21 158.684 42.36 158.397 42.66C158.117 42.96 157.977 43.3967 157.977 43.97V47H157.067V39.6H157.977V42.3C158.157 42.02 158.404 41.8033 158.717 41.65C159.037 41.4967 159.394 41.42 159.787 41.42ZM163.933 40.63C163.76 40.63 163.613 40.57 163.493 40.45C163.373 40.33 163.313 40.1833 163.313 40.01C163.313 39.8367 163.373 39.69 163.493 39.57C163.613 39.45 163.76 39.39 163.933 39.39C164.1 39.39 164.24 39.45 164.353 39.57C164.473 39.69 164.533 39.8367 164.533 40.01C164.533 40.1833 164.473 40.33 164.353 40.45C164.24 40.57 164.1 40.63 163.933 40.63ZM164.373 41.52V47H163.463V41.52H164.373ZM168.594 41.42C169.261 41.42 169.801 41.6233 170.214 42.03C170.628 42.43 170.834 43.01 170.834 43.77V47H169.934V43.9C169.934 43.3533 169.798 42.9367 169.524 42.65C169.251 42.3567 168.878 42.21 168.404 42.21C167.924 42.21 167.541 42.36 167.254 42.66C166.974 42.96 166.834 43.3967 166.834 43.97V47H165.924V41.52H166.834V42.3C167.014 42.02 167.258 41.8033 167.564 41.65C167.878 41.4967 168.221 41.42 168.594 41.42ZM177.321 44.05C177.321 44.2233 177.311 44.4067 177.291 44.6H172.911C172.944 45.14 173.127 45.5633 173.461 45.87C173.801 46.17 174.211 46.32 174.691 46.32C175.084 46.32 175.411 46.23 175.671 46.05C175.937 45.8633 176.124 45.6167 176.231 45.31H177.211C177.064 45.8367 176.771 46.2667 176.331 46.6C175.891 46.9267 175.344 47.09 174.691 47.09C174.171 47.09 173.704 46.9733 173.291 46.74C172.884 46.5067 172.564 46.1767 172.331 45.75C172.097 45.3167 171.981 44.8167 171.981 44.25C171.981 43.6833 172.094 43.1867 172.321 42.76C172.547 42.3333 172.864 42.0067 173.271 41.78C173.684 41.5467 174.157 41.43 174.691 41.43C175.211 41.43 175.671 41.5433 176.071 41.77C176.471 41.9967 176.777 42.31 176.991 42.71C177.211 43.1033 177.321 43.55 177.321 44.05ZM176.381 43.86C176.381 43.5133 176.304 43.2167 176.151 42.97C175.997 42.7167 175.787 42.5267 175.521 42.4C175.261 42.2667 174.971 42.2 174.651 42.2C174.191 42.2 173.797 42.3467 173.471 42.64C173.151 42.9333 172.967 43.34 172.921 43.86H176.381Z" fill="#276EF1"/>
<g clip-path="url(#clip0_6_2061)">
<path d="M148.574 179.195H141.073C140.69 179.194 140.324 179.042 140.053 178.771C139.783 178.5 139.631 178.133 139.63 177.75V170.237C139.631 169.854 139.783 169.486 140.053 169.215C140.324 168.944 140.69 168.792 141.073 168.792H148.574C148.956 168.792 149.323 168.944 149.593 169.215C149.864 169.486 150.016 169.854 150.016 170.237V177.75C150.016 178.133 149.864 178.5 149.593 178.771C149.323 179.042 148.956 179.194 148.574 179.195V179.195ZM141.073 169.37C140.843 169.37 140.623 169.461 140.461 169.624C140.299 169.786 140.208 170.007 140.207 170.237V177.75C140.208 177.98 140.299 178.2 140.461 178.363C140.623 178.525 140.843 178.617 141.073 178.617H148.574C148.803 178.617 149.023 178.525 149.185 178.363C149.348 178.2 149.439 177.98 149.439 177.75V170.237C149.439 170.007 149.348 169.786 149.185 169.624C149.023 169.461 148.803 169.37 148.574 169.37H141.073Z" fill="#E6E6E6"/>
<path d="M61.1604 134.403H53.6596C53.2772 134.403 52.9105 134.25 52.6401 133.98C52.3697 133.709 52.2176 133.341 52.2172 132.958V125.445C52.2176 125.062 52.3697 124.695 52.6401 124.424C52.9105 124.153 53.2772 124 53.6596 124H61.1604C61.5429 124 61.9095 124.153 62.1799 124.424C62.4503 124.695 62.6025 125.062 62.6029 125.445V132.958C62.6025 133.341 62.4503 133.709 62.1799 133.98C61.9095 134.25 61.5429 134.403 61.1604 134.403V134.403ZM53.6596 124.578C53.4302 124.578 53.2102 124.67 53.0479 124.832C52.8857 124.995 52.7944 125.215 52.7941 125.445V132.958C52.7944 133.188 52.8857 133.409 53.0479 133.571C53.2102 133.734 53.4302 133.825 53.6596 133.825H61.1604C61.3899 133.825 61.6099 133.734 61.7721 133.571C61.9344 133.409 62.0257 133.188 62.0259 132.958V125.445C62.0257 125.215 61.9344 124.995 61.7721 124.832C61.6099 124.67 61.3899 124.578 61.1604 124.578H53.6596Z" fill="#E6E6E6"/>
<path d="M143.958 175.438H136.457C136.075 175.438 135.708 175.285 135.437 175.015C135.167 174.744 135.015 174.376 135.015 173.993V166.48C135.015 166.097 135.167 165.73 135.437 165.459C135.708 165.188 136.075 165.035 136.457 165.035H143.958C144.34 165.035 144.707 165.188 144.977 165.459C145.248 165.73 145.4 166.097 145.4 166.48V173.993C145.4 174.376 145.248 174.744 144.977 175.015C144.707 175.285 144.34 175.438 143.958 175.438V175.438ZM136.457 165.613C136.228 165.613 136.008 165.705 135.845 165.867C135.683 166.03 135.592 166.25 135.592 166.48V173.993C135.592 174.223 135.683 174.444 135.845 174.606C136.008 174.769 136.228 174.86 136.457 174.86H143.958C144.187 174.86 144.407 174.769 144.57 174.606C144.732 174.444 144.823 174.223 144.823 173.993V166.48C144.823 166.25 144.732 166.03 144.57 165.867C144.407 165.705 144.187 165.613 143.958 165.613H136.457Z" fill="#E6E6E6"/>
<path d="M13.5591 238.147H6.05831C5.67588 238.146 5.30923 237.994 5.03882 237.723C4.7684 237.452 4.61628 237.085 4.61584 236.702V229.188C4.61628 228.805 4.7684 228.438 5.03882 228.167C5.30923 227.896 5.67588 227.744 6.05831 227.743H13.5591C13.9415 227.744 14.3082 227.896 14.5786 228.167C14.849 228.438 15.0011 228.805 15.0016 229.188V236.702C15.0011 237.085 14.849 237.452 14.5786 237.723C14.3082 237.994 13.9415 238.146 13.5591 238.147V238.147ZM6.05831 228.321C5.82885 228.321 5.60885 228.413 5.4466 228.575C5.28434 228.738 5.19308 228.958 5.19283 229.188V236.702C5.19308 236.931 5.28434 237.152 5.4466 237.314C5.60885 237.477 5.82885 237.568 6.05831 237.569H13.5591C13.7886 237.568 14.0086 237.477 14.1708 237.314C14.3331 237.152 14.4243 236.931 14.4246 236.702V229.188C14.4243 228.958 14.3331 228.738 14.1708 228.575C14.0086 228.413 13.7886 228.321 13.5591 228.321H6.05831Z" fill="#E6E6E6"/>
<path d="M8.94327 234.39H1.44246C1.06003 234.389 0.69339 234.237 0.422971 233.966C0.152551 233.695 0.000437514 233.328 0 232.945V225.431C0.000437514 225.048 0.152551 224.681 0.422971 224.41C0.69339 224.139 1.06003 223.987 1.44246 223.987H8.94327C9.3257 223.987 9.69234 224.139 9.96276 224.41C10.2332 224.681 10.3853 225.048 10.3857 225.431V232.945C10.3853 233.328 10.2332 233.695 9.96276 233.966C9.69234 234.237 9.3257 234.389 8.94327 234.39V234.39ZM1.44246 224.565C1.213 224.565 0.993009 224.656 0.830754 224.819C0.6685 224.981 0.577236 225.202 0.576985 225.431V232.945C0.577236 233.175 0.6685 233.395 0.830754 233.558C0.993009 233.72 1.213 233.812 1.44246 233.812H8.94327C9.17273 233.812 9.39272 233.72 9.55498 233.558C9.71723 233.395 9.8085 233.175 9.80875 232.945V225.431C9.8085 225.202 9.71723 224.981 9.55498 224.819C9.39272 224.656 9.17273 224.565 8.94327 224.565H1.44246Z" fill="#E6E6E6"/>
<path d="M26.6652 148.863H96.081C99.4306 148.863 102.681 150.005 105.297 152.1C107.913 154.196 109.739 157.121 110.476 160.394L145.551 316.23C145.933 317.93 145.94 319.693 145.57 321.396C145.201 323.098 144.464 324.7 143.411 326.087C142.359 327.474 141.016 328.614 139.477 329.426C137.938 330.239 136.24 330.704 134.503 330.79L63.1431 334.312C59.322 334.5 55.563 333.29 52.5674 330.906C49.5718 328.522 47.5443 325.128 46.8634 321.357L26.967 211.179L25.4868 211.603L21.6798 190.72L23.2035 190.338L17.6497 159.584C17.4118 158.266 17.467 156.913 17.8113 155.619C18.1556 154.326 18.7805 153.124 19.6415 152.1C20.5025 151.077 21.5783 150.256 22.7924 149.696C24.0065 149.137 25.3288 148.852 26.6652 148.863V148.863Z" fill="#3F3D56"/>
<path d="M86.9424 152.223H95.0453C97.3723 152.223 99.6294 153.02 101.442 154.482C103.254 155.944 104.513 157.983 105.009 160.26L138.675 314.825C138.869 315.715 138.869 316.637 138.675 317.526C138.481 318.416 138.097 319.254 137.55 319.981C137.003 320.709 136.306 321.31 135.506 321.743C134.706 322.176 133.822 322.431 132.915 322.491L61.7859 327.16C59.7792 327.292 57.7944 326.679 56.2101 325.438C54.6259 324.198 53.5532 322.416 53.1967 320.434L24.4687 160.675C24.2828 159.641 24.3257 158.579 24.5944 157.563C24.863 156.548 25.351 155.604 26.0237 154.798C26.6964 153.992 27.5376 153.343 28.4878 152.898C29.438 152.453 30.4741 152.223 31.523 152.223H39.2099C39.9539 152.223 40.6771 152.468 41.2677 152.922C41.8582 153.375 42.283 154.011 42.4764 154.73V154.73C42.6472 155.366 43.0223 155.927 43.5436 156.327C44.0649 156.727 44.7034 156.944 45.3602 156.944H81.8525C83.1386 156.944 84.3774 156.458 85.3211 155.582C86.2647 154.707 86.8438 153.507 86.9424 152.223L86.9424 152.223Z" fill="white"/>
<path d="M30.0032 178.503H107.168L115.389 215.606L37.2155 217.051L30.0032 178.503Z" fill="#276EF1"/>
<path d="M103.28 248.768H121.447L122.024 252.251H103.857L103.28 248.768Z" fill="#276EF1"/>
<path d="M118.061 230.996L41.015 232.63L41.0227 232.994L118.069 231.359L118.061 230.996Z" fill="#2F2E41"/>
<path d="M120.418 241.71L41.9211 243.526L41.9295 243.889L120.426 242.073L120.418 241.71Z" fill="#2F2E41"/>
<path d="M110.781 286.046H128.948L129.525 289.529H111.358L110.781 286.046Z" fill="#276EF1"/>
<path d="M125.562 268.274L48.5159 269.909L48.5235 270.272L125.57 268.638L125.562 268.274Z" fill="#2F2E41"/>
<path d="M127.918 278.988L49.4219 280.804L49.4302 281.167L127.927 279.351L127.918 278.988Z" fill="#2F2E41"/>
<path d="M177.585 335.303L174.147 335.303L172.512 322.022L177.585 322.022L177.585 335.303Z" fill="#A0616A"/>
<path d="M178.461 338.641L167.377 338.64V338.5C167.378 337.354 167.832 336.255 168.641 335.444C169.45 334.634 170.547 334.179 171.691 334.179H171.692L178.461 334.179L178.461 338.641Z" fill="#2F2E41"/>
<path d="M220.286 333.049L216.94 333.838L212.309 321.286L217.247 320.121L220.286 333.049Z" fill="#A0616A"/>
<path d="M221.903 336.096L211.115 338.641L211.083 338.504C210.82 337.388 211.011 336.214 211.613 335.24C212.215 334.265 213.179 333.57 214.293 333.307L214.293 333.307L220.882 331.753L221.903 336.096Z" fill="#2F2E41"/>
<path d="M176.882 279.287C176.889 278.595 177.093 262.262 181.563 256.086L181.629 255.995L197.205 258.148L196.857 261.576C197.542 262.243 202.931 267.884 204.487 281.242L221.02 325.72L213.334 326.42L190.582 277.866L178.542 330.644H170.922L176.882 279.287Z" fill="#2F2E41"/>
<path d="M179.738 256.689L181.261 248.682C180.963 248.297 179.642 246.452 179.936 244.288C180.128 242.877 180.969 241.639 182.437 240.608L186.383 231.384L186.436 231.353C186.702 231.196 192.986 227.556 196.411 230.99C196.497 231.057 204.932 237.763 201.545 246.811L197.363 259.377L179.738 256.689Z" fill="#CCCCCC"/>
<path d="M174.441 267.522C174.851 267.475 175.247 267.338 175.599 267.122C175.951 266.905 176.251 266.614 176.479 266.268C176.707 265.923 176.856 265.531 176.916 265.122C176.976 264.712 176.946 264.295 176.828 263.898L184.978 258.016L180.099 256.157L173.108 262.028C172.456 262.271 171.915 262.745 171.589 263.361C171.263 263.977 171.174 264.691 171.338 265.368C171.502 266.045 171.909 266.638 172.481 267.035C173.053 267.432 173.75 267.605 174.441 267.522V267.522Z" fill="#A0616A"/>
<path d="M175.939 258.007L188.381 248.187L184.682 235.527C184.508 234.928 184.459 234.299 184.537 233.679C184.616 233.06 184.822 232.464 185.141 231.927C185.436 231.421 185.833 230.983 186.308 230.64C186.782 230.297 187.322 230.057 187.895 229.936C190.025 229.484 191.958 230.679 193.641 233.487L193.653 233.513C193.932 234.194 200.414 250.245 195.464 253.677C190.623 257.035 179.395 261.923 179.283 261.972L179.151 262.029L175.939 258.007Z" fill="#CCCCCC"/>
<path d="M192.476 227.652C196.638 227.652 200.013 224.271 200.013 220.101C200.013 215.932 196.638 212.551 192.476 212.551C188.313 212.551 184.938 215.932 184.938 220.101C184.938 224.271 188.313 227.652 192.476 227.652Z" fill="#A0616A"/>
<path d="M204.293 217.406C207.976 217.406 210.961 214.416 210.961 210.727C210.961 207.038 207.976 204.047 204.293 204.047C200.61 204.047 197.624 207.038 197.624 210.727C197.624 214.416 200.61 217.406 204.293 217.406Z" fill="#2F2E41"/>
<path d="M210.044 216.258C209.181 216.883 208.181 217.291 207.128 217.45C206.075 217.608 205 217.511 203.991 217.168C202.983 216.825 202.072 216.244 201.333 215.476C200.595 214.707 200.051 213.773 199.747 212.75C199.862 213.667 200.165 214.549 200.638 215.342C201.11 216.134 201.742 216.82 202.493 217.356C203.243 217.892 204.097 218.267 204.999 218.456C205.902 218.644 206.833 218.644 207.735 218.454C208.637 218.264 209.49 217.889 210.24 217.352C210.991 216.815 211.621 216.128 212.093 215.335C212.565 214.541 212.867 213.659 212.981 212.742C213.095 211.826 213.018 210.896 212.755 210.011C212.904 211.2 212.731 212.408 212.255 213.507C211.778 214.606 211.014 215.556 210.044 216.258V216.258Z" fill="#2F2E41"/>
<path d="M183.728 216.265C184.893 214.178 185.338 213.305 186.839 212.036C188.166 210.913 189.799 210.584 191.116 211.647C192.674 210.973 194.407 210.82 196.059 211.211C197.71 211.603 199.191 212.517 200.283 213.819C201.374 215.12 202.017 216.74 202.117 218.437C202.216 220.134 201.766 221.818 200.834 223.238C199.902 224.659 198.537 225.74 196.942 226.322C195.348 226.904 193.608 226.954 191.983 226.467C190.357 225.98 188.931 224.98 187.918 223.617C186.905 222.253 186.357 220.598 186.357 218.899C186.359 218.6 186.376 218.302 186.411 218.005C185.266 217.844 184.873 216.426 183.728 216.265Z" fill="#2F2E41"/>
<path d="M252.711 339H142.796C142.719 339 142.646 338.97 142.592 338.915C142.538 338.861 142.507 338.788 142.507 338.711C142.507 338.634 142.538 338.561 142.592 338.507C142.646 338.453 142.719 338.422 142.796 338.422H252.711C252.788 338.422 252.861 338.453 252.915 338.507C252.97 338.561 253 338.634 253 338.711C253 338.788 252.97 338.861 252.915 338.915C252.861 338.97 252.788 339 252.711 339Z" fill="#3F3D56"/>
</g>
<defs>
<clipPath id="clip0_6_2061">
<rect width="253" height="215" fill="white" transform="translate(0 124)"/>
</clipPath>
</defs>
</svg>
