<svg width="260" height="385" viewBox="0 0 260 385" fill="none" xmlns="http://www.w3.org/2000/svg">
<path d="M140 11.5C140 9.96218 139.678 8.44316 139.058 7.05029L135.012 9.03752C135.356 9.80833 135.534 10.649 135.534 11.5H140Z" fill="#276EF1" stroke="#276EF1"/>
<path d="M139.058 7.05034C138.45 5.68702 137.571 4.47677 136.479 3.50162C135.387 2.52647 134.108 1.80923 132.729 1.3985C131.35 0.98777 129.903 0.893161 128.486 1.12108C127.069 1.34901 125.715 1.89413 124.516 2.71951L126.965 6.64089C127.629 6.18413 128.378 5.88246 129.162 5.75633C129.946 5.6302 130.747 5.68255 131.51 5.90985C132.273 6.13715 132.981 6.53407 133.585 7.07371C134.19 7.61336 134.676 8.28311 135.013 9.03757L139.058 7.05034Z" fill="#276EF1" stroke="#276EF1"/>
<path d="M124.516 2.71948C123.069 3.71634 121.892 5.09078 121.102 6.70831C120.312 8.32584 119.935 10.131 120.009 11.9472C120.083 13.7634 120.604 15.5284 121.523 17.0695C122.441 18.6105 123.725 19.8748 125.248 20.7387C126.771 21.6025 128.482 22.0363 130.213 21.9976C131.944 21.9589 133.636 21.449 135.122 20.5178C136.609 19.5866 137.841 18.266 138.696 16.6853C139.551 15.1045 140 13.3178 140 11.5H135.534C135.534 12.506 135.285 13.4947 134.812 14.3695C134.339 15.2443 133.658 15.9751 132.835 16.4904C132.012 17.0057 131.076 17.2879 130.118 17.3093C129.16 17.3308 128.213 17.0907 127.37 16.6127C126.527 16.1346 125.817 15.4349 125.309 14.5821C124.8 13.7293 124.512 12.7526 124.471 11.7475C124.43 10.7424 124.639 9.74341 125.076 8.84827C125.513 7.95314 126.164 7.19252 126.965 6.64087L124.516 2.71948Z" fill="#276EF1" stroke="#276EF1"/>
<rect x="119" y="24" width="22" height="4" fill="#276EF1"/>
<path d="M97.43 44.24C97.43 43.68 97.5433 43.19 97.77 42.77C97.9967 42.3433 98.3067 42.0133 98.7 41.78C99.1 41.5467 99.5433 41.43 100.03 41.43C100.51 41.43 100.927 41.5333 101.28 41.74C101.633 41.9467 101.897 42.2067 102.07 42.52V41.52H102.99V47H102.07V45.98C101.89 46.3 101.62 46.5667 101.26 46.78C100.907 46.9867 100.493 47.09 100.02 47.09C99.5333 47.09 99.0933 46.97 98.7 46.73C98.3067 46.49 97.9967 46.1533 97.77 45.72C97.5433 45.2867 97.43 44.7933 97.43 44.24ZM102.07 44.25C102.07 43.8367 101.987 43.4767 101.82 43.17C101.653 42.8633 101.427 42.63 101.14 42.47C100.86 42.3033 100.55 42.22 100.21 42.22C99.87 42.22 99.56 42.3 99.28 42.46C99 42.62 98.7767 42.8533 98.61 43.16C98.4433 43.4667 98.36 43.8267 98.36 44.24C98.36 44.66 98.4433 45.0267 98.61 45.34C98.7767 45.6467 99 45.8833 99.28 46.05C99.56 46.21 99.87 46.29 100.21 46.29C100.55 46.29 100.86 46.21 101.14 46.05C101.427 45.8833 101.653 45.6467 101.82 45.34C101.987 45.0267 102.07 44.6633 102.07 44.25ZM105.438 39.6V47H104.528V39.6H105.438ZM107.899 42.54C108.085 42.2133 108.359 41.9467 108.719 41.74C109.079 41.5333 109.489 41.43 109.949 41.43C110.442 41.43 110.885 41.5467 111.279 41.78C111.672 42.0133 111.982 42.3433 112.209 42.77C112.435 43.19 112.549 43.68 112.549 44.24C112.549 44.7933 112.435 45.2867 112.209 45.72C111.982 46.1533 111.669 46.49 111.269 46.73C110.875 46.97 110.435 47.09 109.949 47.09C109.475 47.09 109.059 46.9867 108.699 46.78C108.345 46.5733 108.079 46.31 107.899 45.99V47H106.989V39.6H107.899V42.54ZM111.619 44.24C111.619 43.8267 111.535 43.4667 111.369 43.16C111.202 42.8533 110.975 42.62 110.689 42.46C110.409 42.3 110.099 42.22 109.759 42.22C109.425 42.22 109.115 42.3033 108.829 42.47C108.549 42.63 108.322 42.8667 108.149 43.18C107.982 43.4867 107.899 43.8433 107.899 44.25C107.899 44.6633 107.982 45.0267 108.149 45.34C108.322 45.6467 108.549 45.8833 108.829 46.05C109.115 46.21 109.425 46.29 109.759 46.29C110.099 46.29 110.409 46.21 110.689 46.05C110.975 45.8833 111.202 45.6467 111.369 45.34C111.535 45.0267 111.619 44.66 111.619 44.24ZM118.607 41.52V47H117.697V46.19C117.523 46.47 117.28 46.69 116.967 46.85C116.66 47.0033 116.32 47.08 115.947 47.08C115.52 47.08 115.137 46.9933 114.797 46.82C114.457 46.64 114.187 46.3733 113.987 46.02C113.793 45.6667 113.697 45.2367 113.697 44.73V41.52H114.597V44.61C114.597 45.15 114.733 45.5667 115.007 45.86C115.28 46.1467 115.653 46.29 116.127 46.29C116.613 46.29 116.997 46.14 117.277 45.84C117.557 45.54 117.697 45.1033 117.697 44.53V41.52H118.607ZM121.053 42.41C121.213 42.0967 121.44 41.8533 121.733 41.68C122.033 41.5067 122.396 41.42 122.823 41.42V42.36H122.583C121.563 42.36 121.053 42.9133 121.053 44.02V47H120.143V41.52H121.053V42.41ZM128.594 41.52L125.294 49.58H124.354L125.434 46.94L123.224 41.52H124.234L125.954 45.96L127.654 41.52H128.594ZM135.108 47.38V48.22H129.788V47.38H135.108ZM138.782 47.09C138.362 47.09 137.986 47.02 137.652 46.88C137.319 46.7333 137.056 46.5333 136.862 46.28C136.669 46.02 136.562 45.7233 136.542 45.39H137.482C137.509 45.6633 137.636 45.8867 137.862 46.06C138.096 46.2333 138.399 46.32 138.772 46.32C139.119 46.32 139.392 46.2433 139.592 46.09C139.792 45.9367 139.892 45.7433 139.892 45.51C139.892 45.27 139.786 45.0933 139.572 44.98C139.359 44.86 139.029 44.7433 138.582 44.63C138.176 44.5233 137.842 44.4167 137.582 44.31C137.329 44.1967 137.109 44.0333 136.922 43.82C136.742 43.6 136.652 43.3133 136.652 42.96C136.652 42.68 136.736 42.4233 136.902 42.19C137.069 41.9567 137.306 41.7733 137.612 41.64C137.919 41.5 138.269 41.43 138.662 41.43C139.269 41.43 139.759 41.5833 140.132 41.89C140.506 42.1967 140.706 42.6167 140.732 43.15H139.822C139.802 42.8633 139.686 42.6333 139.472 42.46C139.266 42.2867 138.986 42.2 138.632 42.2C138.306 42.2 138.046 42.27 137.852 42.41C137.659 42.55 137.562 42.7333 137.562 42.96C137.562 43.14 137.619 43.29 137.732 43.41C137.852 43.5233 137.999 43.6167 138.172 43.69C138.352 43.7567 138.599 43.8333 138.912 43.92C139.306 44.0267 139.626 44.1333 139.872 44.24C140.119 44.34 140.329 44.4933 140.502 44.7C140.682 44.9067 140.776 45.1767 140.782 45.51C140.782 45.81 140.699 46.08 140.532 46.32C140.366 46.56 140.129 46.75 139.822 46.89C139.522 47.0233 139.176 47.09 138.782 47.09ZM144.787 41.42C145.2 41.42 145.574 41.51 145.907 41.69C146.24 41.8633 146.5 42.1267 146.687 42.48C146.88 42.8333 146.977 43.2633 146.977 43.77V47H146.077V43.9C146.077 43.3533 145.94 42.9367 145.667 42.65C145.394 42.3567 145.02 42.21 144.547 42.21C144.067 42.21 143.684 42.36 143.397 42.66C143.117 42.96 142.977 43.3967 142.977 43.97V47H142.067V39.6H142.977V42.3C143.157 42.02 143.404 41.8033 143.717 41.65C144.037 41.4967 144.394 41.42 144.787 41.42ZM148.933 40.63C148.76 40.63 148.613 40.57 148.493 40.45C148.373 40.33 148.313 40.1833 148.313 40.01C148.313 39.8367 148.373 39.69 148.493 39.57C148.613 39.45 148.76 39.39 148.933 39.39C149.1 39.39 149.24 39.45 149.353 39.57C149.473 39.69 149.533 39.8367 149.533 40.01C149.533 40.1833 149.473 40.33 149.353 40.45C149.24 40.57 149.1 40.63 148.933 40.63ZM149.373 41.52V47H148.463V41.52H149.373ZM153.594 41.42C154.261 41.42 154.801 41.6233 155.214 42.03C155.628 42.43 155.834 43.01 155.834 43.77V47H154.934V43.9C154.934 43.3533 154.798 42.9367 154.524 42.65C154.251 42.3567 153.878 42.21 153.404 42.21C152.924 42.21 152.541 42.36 152.254 42.66C151.974 42.96 151.834 43.3967 151.834 43.97V47H150.924V41.52H151.834V42.3C152.014 42.02 152.258 41.8033 152.564 41.65C152.878 41.4967 153.221 41.42 153.594 41.42ZM162.321 44.05C162.321 44.2233 162.311 44.4067 162.291 44.6H157.911C157.944 45.14 158.127 45.5633 158.461 45.87C158.801 46.17 159.211 46.32 159.691 46.32C160.084 46.32 160.411 46.23 160.671 46.05C160.937 45.8633 161.124 45.6167 161.231 45.31H162.211C162.064 45.8367 161.771 46.2667 161.331 46.6C160.891 46.9267 160.344 47.09 159.691 47.09C159.171 47.09 158.704 46.9733 158.291 46.74C157.884 46.5067 157.564 46.1767 157.331 45.75C157.097 45.3167 156.981 44.8167 156.981 44.25C156.981 43.6833 157.094 43.1867 157.321 42.76C157.547 42.3333 157.864 42.0067 158.271 41.78C158.684 41.5467 159.157 41.43 159.691 41.43C160.211 41.43 160.671 41.5433 161.071 41.77C161.471 41.9967 161.777 42.31 161.991 42.71C162.211 43.1033 162.321 43.55 162.321 44.05ZM161.381 43.86C161.381 43.5133 161.304 43.2167 161.151 42.97C160.997 42.7167 160.787 42.5267 160.521 42.4C160.261 42.2667 159.971 42.2 159.651 42.2C159.191 42.2 158.797 42.3467 158.471 42.64C158.151 42.9333 157.967 43.34 157.921 43.86H161.381Z" fill="#276EF1"/>
<g clip-path="url(#clip0_5_2059)">
<path d="M60.0065 199.885C55.294 178.857 40.1571 176.684 34.8377 157.892C29.044 137.421 40.9317 118.548 42.1165 116.726C56.6577 94.3718 81.7156 82.3195 102.004 90.6431C113.265 95.2632 117.672 103.443 142.652 123.16C161.55 138.077 176.947 141.853 181.384 144.661C203.999 158.976 209.001 185.862 203.624 210.175C202.128 216.941 194.712 249.62 159.022 250.545C147.97 250.832 151.792 248.411 117.356 242.378C81.0875 236.023 63.4087 215.069 60.0058 199.885L60.0065 199.885Z" fill="#DAE0E0"/>
<path d="M55.4392 384.231H21.2506L12.0896 325.866H64.6009L55.4392 384.231V384.231Z" fill="#276EF1"/>
<path d="M65.7443 320.049H10.9457C9.27988 320.049 7.92944 321.4 7.92944 323.067C7.92944 324.734 9.27988 326.086 10.9457 326.086H65.7443C67.4102 326.086 68.7606 324.734 68.7606 323.067C68.7606 321.4 67.4102 320.049 65.7443 320.049Z" fill="#139DA0"/>
<path d="M20.5408 332.368L21.4763 338.021L22.3623 343.682L24.0578 355.014L25.6431 366.362L26.3965 372.042L27.1005 377.729L26.1637 372.075L25.277 366.415L23.5828 355.083L21.9981 343.734L21.2447 338.054L20.5408 332.368V332.368ZM55.4471 332.368L54.8309 338.053L54.1653 343.731L52.7568 355.079L51.2374 366.412L50.4391 372.074L49.59 377.729L50.2056 372.044L50.8712 366.365L52.2804 355.018L53.8004 343.684L54.5987 338.022L55.4471 332.368ZM37.7795 332.368L37.897 338.005L37.9636 343.641L38.0197 354.915L37.9649 366.188L37.8976 371.825L37.7795 377.462L37.6621 371.825L37.5948 366.188L37.5401 354.915L37.5961 343.641L37.6628 338.005L37.7795 332.368V332.368Z" fill="#26B5BF"/>
<path d="M18.6665 339.416L23.5861 339.299L28.5057 339.231L38.345 339.175L48.1842 339.231L53.1045 339.297L58.0241 339.416L53.1045 339.533L48.1842 339.601L38.345 339.655L28.5057 339.6L23.5861 339.532L18.6665 339.416V339.416ZM21.946 356.959C24.6206 356.86 27.2951 356.814 29.9697 356.775L37.994 356.719L46.0176 356.774C48.6922 356.812 51.3667 356.859 54.0413 356.959C51.3667 357.059 48.6922 357.105 46.0176 357.144L37.994 357.199L29.9697 357.143C27.2951 357.105 24.6206 357.058 21.946 356.959V356.959ZM24.992 374.428C27.2074 374.329 29.4234 374.283 31.6395 374.243C33.8548 374.204 36.0709 374.208 38.2869 374.188C40.5023 374.206 42.7183 374.205 44.9337 374.243C47.1504 374.282 49.3658 374.328 51.5811 374.428C49.3658 374.528 47.1497 374.574 44.9337 374.613C42.7183 374.651 40.5023 374.649 38.2869 374.668C36.0702 374.649 33.8548 374.652 31.6395 374.612C29.4228 374.573 27.2074 374.526 24.992 374.427V374.428Z" fill="#26B5BF"/>
<path d="M127.126 170.541H108.79L109.482 157.878H126.433L127.126 170.541V170.541Z" fill="#F6B98A"/>
<path d="M126.434 157.878H109.482L109.385 159.121C110.478 160.307 111.81 161.246 113.293 161.876C114.776 162.506 116.377 162.813 117.988 162.775C119.587 162.856 121.185 162.579 122.664 161.964C124.143 161.349 125.467 160.412 126.539 159.221L126.434 157.878Z" fill="#E8A77C"/>
<path d="M79.0614 253.942L93.7714 245.473C93.7714 245.473 70.5845 219.582 89.0346 201.193L146.13 216.678C146.13 216.678 154.218 235.28 160.899 226.802C160.991 226.686 161.082 226.565 161.174 226.438C167.905 217.082 175.925 207.605 173.931 194.055L163.209 190.909L159.22 196.837C159.22 196.837 157.968 170.472 126.951 164.499C126.951 164.499 119.428 176.18 108.966 164.499C108.966 164.499 81.9702 167.237 69.0058 197.725C56.0414 228.213 64.6832 226.76 79.0614 253.942V253.942Z" fill="#F4F4F4"/>
<path d="M127.182 369.601L128.215 380.82H162.789C162.789 380.82 163.39 377.09 160.253 375.73L156.641 376.134C155.183 376.308 153.707 376.023 152.418 375.318C151.129 374.614 150.092 373.526 149.45 372.204L147.876 368.876L127.182 369.601Z" fill="#2D1505"/>
<path d="M128.215 380.82H162.79V383.928H128.215V380.82Z" fill="#874106"/>
<path d="M109.729 369.36L108.343 381.122H73.7679C73.7679 381.122 73.1676 377.392 76.3046 376.032L79.883 376.433C81.3482 376.608 82.8314 376.319 84.1244 375.607C85.4174 374.896 86.4553 373.797 87.0925 372.464L88.536 369.36H109.729Z" fill="#2D1505"/>
<path d="M73.7678 381.122H108.343V384.231H73.7678V381.122Z" fill="#874106"/>
<path d="M103.662 130.377L104.41 137.959C104.41 137.959 98.9248 142.556 105.075 145.863C105.075 145.863 105.272 161.27 117.988 161.431C129.92 161.583 130.839 147.476 130.672 145.299C130.672 145.299 137.404 142.153 131.171 137.798L131.753 125.699L103.662 130.377Z" fill="#F6B98A"/>
<path d="M103.662 130.377L104.41 137.959C104.41 137.959 98.9248 142.556 105.075 145.863C105.075 145.863 105.272 161.27 117.988 161.431C129.92 161.583 130.839 147.476 130.672 145.299C130.672 145.299 137.404 142.153 131.171 137.798L131.753 125.699L103.662 130.377Z" fill="#F6B98A"/>
<path d="M91.7772 254.829L88.5359 369.36C88.5359 369.36 105.615 373.352 109.728 369.36L116.46 283.945H118.984L127.182 369.601C127.182 369.601 140.895 372.505 147.876 368.875L144.135 254.829H91.7772Z" fill="#276EF1"/>
<path d="M164.661 191.335L166.699 185.586C166.699 185.586 164.954 179.597 166.326 176.936C166.326 176.936 165.142 171.552 165.391 169.012C165.391 169.012 166.949 165.624 170.191 176.21C170.191 176.21 170.315 173.972 171.25 174.032C171.582 174.049 171.914 174.02 172.237 173.947C172.34 173.924 172.446 173.925 172.548 173.949C172.65 173.974 172.745 174.021 172.825 174.088C172.906 174.155 172.971 174.239 173.014 174.335C173.057 174.431 173.077 174.535 173.074 174.64L172.177 193.54L164.661 191.335Z" fill="#F6B98A"/>
<path d="M108.233 136.104C108.722 135.748 109.263 135.467 109.835 135.271C110.409 135.061 111.007 134.929 111.615 134.879C112.236 134.819 112.863 134.88 113.461 135.059C114.061 135.237 114.588 135.603 114.965 136.104C114.457 135.838 113.908 135.66 113.341 135.578C112.786 135.509 112.226 135.503 111.669 135.559C110.516 135.683 109.369 135.865 108.233 136.104ZM121.198 135.646C121.626 135.343 122.104 135.116 122.61 134.976C123.114 134.828 123.635 134.745 124.161 134.729C124.691 134.714 125.22 134.78 125.731 134.925C126.242 135.064 126.717 135.31 127.126 135.647C126.602 135.574 126.123 135.48 125.633 135.448C125.149 135.408 124.663 135.396 124.177 135.411C123.203 135.429 122.236 135.548 121.198 135.647V135.646Z" fill="#020202"/>
<path d="M118.08 148.261C118.017 148.261 117.954 148.257 117.892 148.249C117.636 148.21 117.392 148.111 117.181 147.96C116.97 147.809 116.796 147.611 116.675 147.382C116.465 147.02 116.336 146.617 116.298 146.2C116.261 145.783 116.315 145.363 116.458 144.97C116.829 143.564 117.068 142.126 117.171 140.675L117.852 140.728C117.746 142.239 117.495 143.737 117.1 145.199C116.991 145.497 116.948 145.816 116.976 146.132C117.003 146.448 117.1 146.754 117.259 147.029C117.327 147.17 117.427 147.292 117.551 147.387C117.675 147.481 117.82 147.544 117.973 147.572C118.327 147.613 118.973 147.445 120.022 146.389L120.506 146.87C119.578 147.804 118.782 148.261 118.08 148.261V148.261Z" fill="#E8A77C"/>
<path d="M114.965 150.743H121.198C121.198 150.743 118.704 159.696 114.965 150.743Z" fill="#A03041"/>
<path d="M111.28 349.68L111.725 344.028H89.253L89.0927 349.68H111.28V349.68ZM110.221 363.122L110.666 357.471H88.8723L88.7126 363.122H110.221V363.122ZM147.061 344.028H124.735L125.275 349.68H147.246L147.061 344.028ZM147.502 357.471H126.02L126.561 363.122H147.687L147.502 357.471V357.471Z" fill="#F4F4F4"/>
<path d="M171.229 151.287H176.548V313.962H171.229V151.287Z" fill="#2D1505"/>
<path d="M182.089 324.91H166.382L171.229 313.961H176.549L182.089 324.91Z" fill="#303030"/>
<path d="M166.382 324.91H182.089V347.191H166.382V324.91Z" fill="#757575"/>
<path d="M162.835 384.131C162.835 384.131 165.329 381.833 167.261 384.131C167.261 384.131 169.755 381.712 172.123 384.131C172.123 384.131 174.554 381.651 176.798 384.131C176.798 384.131 178.73 381.591 181.285 384.131C181.285 384.131 183.53 381.53 185.898 384.131L182.089 347.191H166.382L162.835 384.131Z" fill="#276EF1"/>
<path d="M112.181 141.427C112.801 141.427 113.303 140.596 113.303 139.572C113.303 138.548 112.801 137.717 112.181 137.717C111.561 137.717 111.059 138.548 111.059 139.572C111.059 140.596 111.561 141.427 112.181 141.427Z" fill="#020202"/>
<path d="M124.162 141.427C124.782 141.427 125.284 140.596 125.284 139.572C125.284 138.548 124.782 137.717 124.162 137.717C123.542 137.717 123.04 138.548 123.04 139.572C123.04 140.596 123.542 141.427 124.162 141.427Z" fill="#020202"/>
<path d="M120.049 153.371C119.741 152.704 119.228 152.284 118.752 152.384C118.147 152.512 117.837 153.427 118.06 154.428C118.082 154.527 118.112 154.62 118.142 154.712C118.909 154.772 119.553 154.147 120.049 153.372L120.049 153.371Z" fill="#CC546B"/>
<path d="M104.41 139.975C104.41 139.975 106.903 135.297 105.74 131.99C105.74 131.99 125.154 134.248 129.809 127.392C129.809 127.392 129.093 142.395 131.337 139.33C131.337 139.33 138.9 124.49 124.19 115.86C109.48 107.23 95.3509 129.168 104.41 139.975Z" fill="#601F24"/>
<path d="M167.169 382.206C167.19 380.927 167.254 379.651 167.295 378.373L167.491 374.544C167.629 371.993 167.828 369.446 167.993 366.896C168.214 364.351 168.405 361.803 168.653 359.26L169.039 355.446C169.193 354.177 169.323 352.905 169.497 351.638C169.477 352.917 169.413 354.194 169.372 355.472L169.176 359.3C169.037 361.852 168.84 364.398 168.673 366.948C168.45 369.493 168.262 372.041 168.012 374.584L167.626 378.398C167.473 379.667 167.343 380.939 167.17 382.206H167.169ZM172.863 351.638C172.902 352.859 172.9 354.081 172.919 355.302L172.906 358.963C172.895 361.405 172.831 363.844 172.767 366.283C172.687 368.723 172.605 371.162 172.47 373.599L172.266 377.255C172.173 378.473 172.103 379.691 171.99 380.909C171.949 379.687 171.952 378.466 171.932 377.245L171.946 373.583C171.957 371.142 172.02 368.703 172.086 366.263C172.167 363.824 172.248 361.385 172.383 358.948L172.588 355.292C172.68 354.074 172.749 352.855 172.863 351.638V351.638ZM175.855 351.638C175.967 352.855 176.037 354.074 176.13 355.292L176.334 358.948C176.469 361.385 176.55 363.824 176.631 366.264C176.697 368.703 176.76 371.142 176.771 373.583L176.785 377.245C176.765 378.466 176.768 379.687 176.727 380.909C176.613 379.691 176.544 378.472 176.45 377.255L176.246 373.599C176.112 371.162 176.031 368.723 175.95 366.283C175.886 363.844 175.822 361.404 175.811 358.963L175.798 355.302C175.818 354.08 175.814 352.86 175.855 351.638V351.638ZM179.47 351.638C179.608 352.808 179.704 353.982 179.823 355.152L180.105 358.672C180.291 361.017 180.424 363.366 180.558 365.714C180.675 368.064 180.791 370.414 180.853 372.766L180.946 376.294C180.951 377.472 180.981 378.648 180.965 379.827C180.826 378.657 180.731 377.484 180.612 376.312L180.33 372.793C180.143 370.448 180.01 368.099 179.878 365.751C179.761 363.401 179.645 361.051 179.583 358.699L179.49 355.17C179.484 353.993 179.455 352.816 179.47 351.638Z" fill="#CEC65F"/>
<path d="M159.22 196.837C158.46 198.471 157.641 200.04 156.831 201.621C156.005 203.193 155.209 204.773 154.288 206.325C154.733 204.581 155.384 202.896 156.226 201.306C157.035 199.698 158.041 198.197 159.221 196.837H159.22Z" fill="#D6D5D4"/>
<path d="M180.778 176.382C180.767 175.988 180.671 175.601 180.496 175.249C180.321 174.896 180.072 174.585 179.765 174.338C179.459 174.092 179.102 173.915 178.72 173.819C178.338 173.724 177.941 173.713 177.554 173.787C175.897 174.094 174.153 174.845 173.931 176.633V181.533C173.941 182.168 174.202 182.774 174.658 183.216C175.114 183.659 175.726 183.902 176.361 183.892L176.487 187.461C176.487 187.461 180.929 187.828 180.778 176.382Z" fill="#F6B98A"/>
<path d="M98.8573 167.323C98.8573 167.323 103.476 182.965 118.445 183.69C133.415 184.416 137.283 167.622 137.283 167.622C137.283 167.622 144.19 170.514 149.079 175.519L144.136 254.829H91.7771L93.7715 245.472L90.7684 241.612L86.7783 174.245C90.5198 171.472 94.5739 169.149 98.8573 167.323V167.323Z" fill="#276EF1"/>
<path d="M144.237 257.912L144.136 254.829H92.7799L91.7771 259.534H144.136L144.237 257.912Z" fill="#DD6512"/>
<path d="M146.639 214.663L89.2954 214.825L88.9477 209.22H146.978L146.639 214.663V214.663ZM147.542 200.169L147.896 194.496L88.0452 194.664L88.3863 200.169H147.542Z" fill="#276EF1"/>
<path d="M82.7046 251.844C87.0799 258.994 95.696 253.75 95.696 253.75L97.4944 255.13C98.4044 255.847 99.4484 256.374 100.565 256.681C101.681 256.988 102.848 257.069 103.996 256.918C105.563 256.695 107.044 256.068 108.294 255.097C108.463 254.965 108.628 254.826 108.788 254.681C111.733 252.018 110.204 249.765 108.214 248.27C106.469 246.995 104.398 246.243 102.243 246.103C92.1157 245.333 93.7716 245.473 93.7716 245.473L82.7046 251.844Z" fill="#F6B98A"/>
<path d="M195.498 374.848L209.362 368.876L217.418 377.638L211.798 383.275L198.495 384.231L195.498 374.848Z" fill="#D9DBDB"/>
<path d="M208.706 371.365C208.539 372.585 208.303 373.788 208.047 374.984C207.791 376.18 207.508 377.37 207.2 378.554L207.108 378.91L206.745 378.826C205.401 378.517 204.063 378.178 202.733 377.807C201.403 377.436 200.081 377.035 198.776 376.553C200.157 376.706 201.52 376.939 202.876 377.202C204.231 377.466 205.579 377.761 206.92 378.087L206.465 378.359C206.785 377.18 207.119 376.004 207.491 374.837C207.86 373.67 208.249 372.509 208.706 371.365V371.365Z" fill="#BABABA"/>
<path d="M212.266 377.82C211.383 378.071 210.488 378.276 209.583 378.431C208.685 378.593 207.783 378.728 206.877 378.837L207.084 378.746C206.367 379.374 205.632 379.979 204.878 380.561C204.124 381.153 203.338 381.702 202.523 382.206C203.135 381.469 203.788 380.766 204.478 380.102C205.159 379.435 205.861 378.79 206.582 378.167L206.672 378.088L206.788 378.076C207.695 377.972 208.604 377.895 209.515 377.845C210.431 377.788 211.349 377.779 212.266 377.82Z" fill="#BABABA"/>
<path d="M207.113 378.194L209.549 381.366L206.552 378.719L207.113 378.194Z" fill="#BABABA"/>
<path d="M186.624 381.633L189.146 367.117L201.122 365.434L202.863 373.094L196.341 384.387L186.624 381.633Z" fill="#D9DBDB"/>
<path d="M190.924 369.022C191.878 369.823 192.779 370.674 193.665 371.539C194.549 372.405 195.414 373.289 196.26 374.192L196.525 374.474L196.236 374.736C195.227 375.651 194.197 376.545 193.147 377.417C192.097 378.287 191.024 379.134 189.9 379.922C190.802 378.886 191.757 377.91 192.735 376.957C193.711 376.004 194.709 375.075 195.728 374.169L195.703 374.712C194.862 373.804 194.041 372.878 193.241 371.935C192.44 370.991 191.655 370.031 190.924 369.022V369.022Z" fill="#BABABA"/>
<path d="M198.434 369.704C198.158 370.558 197.836 371.395 197.469 372.213C197.111 373.03 196.728 373.835 196.321 374.628L196.36 374.395C196.501 375.321 196.623 376.251 196.705 377.185C196.798 378.124 196.839 379.067 196.825 380.01C196.532 379.113 196.291 378.201 196.102 377.277C195.907 376.36 195.74 375.437 195.604 374.51L195.585 374.385L195.643 374.277C196.054 373.486 196.489 372.708 196.947 371.943C197.402 371.17 197.899 370.423 198.435 369.704H198.434Z" fill="#BABABA"/>
<path d="M195.926 374.072L199.981 373.86L196.038 374.833L195.926 374.072Z" fill="#BABABA"/>
<path d="M227.246 317.616C230.675 317.616 233.456 314.918 233.456 311.59C233.456 308.261 230.675 305.563 227.246 305.563C223.816 305.563 221.036 308.261 221.036 311.59C221.036 314.918 223.816 317.616 227.246 317.616Z" fill="#57C984"/>
<path d="M232.147 313.957C231.411 315.345 230.183 316.408 228.705 316.937C227.226 317.466 225.604 317.423 224.156 316.816C224.261 316.875 224.369 316.932 224.479 316.986C225.948 317.702 227.636 317.82 229.19 317.314C230.743 316.808 232.039 315.718 232.805 314.274C233.166 313.563 233.38 312.786 233.435 311.99C233.489 311.194 233.383 310.395 233.122 309.641C232.861 308.887 232.452 308.193 231.917 307.601C231.383 307.009 230.735 306.531 230.012 306.195C229.902 306.142 229.79 306.092 229.677 306.046C231.039 306.781 232.06 308.02 232.521 309.498C232.983 310.976 232.848 312.576 232.147 313.956V313.957Z" fill="#4FBA75"/>
<path d="M228.058 315.109C228.081 314.825 227.783 314.571 227.395 314.541C227.006 314.51 226.673 314.715 226.651 314.999C226.629 315.282 226.926 315.536 227.315 315.566C227.703 315.597 228.036 315.392 228.058 315.109Z" fill="#4FBA75"/>
<path d="M227.216 311.648C227.351 311.344 227.129 310.95 226.72 310.767C226.31 310.584 225.869 310.683 225.733 310.987C225.598 311.291 225.82 311.686 226.229 311.868C226.639 312.051 227.08 311.952 227.216 311.648Z" fill="#4FBA75"/>
<path d="M225.38 309.011C225.62 308.749 225.553 308.298 225.231 308.004C224.909 307.71 224.454 307.684 224.214 307.947C223.975 308.21 224.042 308.661 224.364 308.955C224.686 309.249 225.141 309.274 225.38 309.011Z" fill="#4FBA75"/>
<path d="M229.57 309.072C229.929 309.046 230.196 308.666 230.164 308.222C230.132 307.778 229.815 307.439 229.455 307.465C229.095 307.491 228.829 307.871 228.861 308.315C228.893 308.759 229.21 309.098 229.57 309.072Z" fill="#4FBA75"/>
<path d="M230.446 313.582C230.719 313.582 230.94 313.367 230.94 313.102C230.94 312.837 230.719 312.622 230.446 312.622C230.173 312.622 229.952 312.837 229.952 313.102C229.952 313.367 230.173 313.582 230.446 313.582Z" fill="#4FBA75"/>
<path d="M223.357 314.803C223.711 314.669 223.858 314.186 223.684 313.724C223.51 313.262 223.082 312.996 222.727 313.129C222.373 313.263 222.226 313.746 222.4 314.208C222.574 314.67 223.002 314.936 223.357 314.803Z" fill="#4FBA75"/>
<path d="M231.127 310.591C231.351 310.591 231.533 310.414 231.533 310.197C231.533 309.979 231.351 309.802 231.127 309.802C230.903 309.802 230.721 309.979 230.721 310.197C230.721 310.414 230.903 310.591 231.127 310.591Z" fill="#4FBA75"/>
<path d="M223.363 311.273C223.587 311.273 223.768 311.097 223.768 310.879C223.768 310.662 223.587 310.485 223.363 310.485C223.138 310.485 222.957 310.662 222.957 310.879C222.957 311.097 223.138 311.273 223.363 311.273Z" fill="#4FBA75"/>
<path d="M226.97 319.882C226.946 319.08 227.159 318.288 227.584 317.608L225.703 317.428C225.703 317.428 226.334 317.89 226.164 319.876L226.97 319.882ZM219.677 315.344C220.397 314.948 221.214 314.762 222.035 314.807L221.319 313.11C221.319 313.11 221.193 313.868 219.306 314.65L219.677 315.344ZM232.674 314.211C232.579 314.396 232.475 314.576 232.361 314.75C232.634 314.665 233.354 314.569 234.767 315.161L235.03 314.422C234.28 314.202 233.604 313.78 233.078 313.202C232.975 313.55 232.839 313.888 232.674 314.211V314.211ZM223.727 306.624C224.159 306.338 224.624 306.105 225.113 305.932C224.551 305.467 224.118 304.865 223.856 304.184L223.148 304.556C223.53 305.177 223.731 305.894 223.727 306.624V306.624ZM227.349 303.424C227.38 304.225 227.173 305.018 226.754 305.702L228.636 305.867C228.636 305.867 228.001 305.41 228.155 303.424H227.349ZM232.59 305.164C232.098 305.814 231.43 306.309 230.665 306.59L232.033 307.855C232.033 307.855 231.829 307.113 233.221 305.65L232.59 305.164ZM220.143 307.192C220.851 307.588 221.43 308.179 221.812 308.895L222.96 307.439C222.96 307.439 222.222 307.716 220.573 306.531L220.143 307.192ZM221.113 310.637C220.549 310.718 219.976 310.716 219.413 310.63L219.369 311.411C219.948 311.409 220.52 311.542 221.038 311.801C221.024 311.411 221.049 311.022 221.113 310.637V310.637ZM233.421 310.96C233.905 310.749 234.415 310.603 234.937 310.524L234.738 309.767C234.243 309.924 233.719 309.968 233.204 309.897C233.309 310.244 233.382 310.6 233.421 310.96V310.96ZM230.51 316.571C230.201 316.766 229.875 316.935 229.537 317.073C229.844 317.465 230.1 317.895 230.298 318.351L231.008 317.982C230.735 317.557 230.564 317.074 230.511 316.571H230.51ZM224.241 316.863C223.933 316.698 223.639 316.507 223.363 316.293C223.329 316.788 223.139 317.258 222.82 317.637L223.262 317.88C223.487 317.456 223.826 317.104 224.241 316.863V316.863Z" fill="#57C984"/>
<path d="M227.38 319.905C227.417 319.923 227.449 319.951 227.471 319.987C227.493 320.022 227.504 320.063 227.502 320.105C227.499 320.162 227.474 320.217 227.431 320.255C227.388 320.294 227.332 320.314 227.274 320.311L225.842 320.265C225.814 320.264 225.787 320.257 225.761 320.246C225.735 320.234 225.712 320.217 225.693 320.197C225.674 320.176 225.659 320.152 225.649 320.126C225.639 320.099 225.635 320.071 225.636 320.043C225.637 320.015 225.643 319.987 225.655 319.962C225.666 319.936 225.683 319.913 225.703 319.894C225.724 319.874 225.748 319.859 225.774 319.85C225.801 319.84 225.829 319.835 225.857 319.836L227.289 319.883C227.32 319.884 227.351 319.892 227.38 319.905ZM219.256 314.233C219.297 314.252 219.33 314.283 219.352 314.322L220.035 315.545C220.049 315.57 220.057 315.597 220.06 315.625C220.063 315.653 220.06 315.682 220.052 315.709C220.044 315.736 220.03 315.761 220.012 315.783C219.993 315.805 219.971 315.823 219.946 315.835C219.895 315.862 219.835 315.869 219.779 315.853C219.723 315.837 219.676 315.8 219.647 315.75L218.964 314.526C218.95 314.501 218.942 314.474 218.939 314.446C218.936 314.417 218.939 314.389 218.947 314.362C218.955 314.335 218.969 314.31 218.987 314.288C219.005 314.266 219.028 314.248 219.053 314.235C219.084 314.219 219.119 314.211 219.154 314.21C219.19 314.21 219.225 314.217 219.256 314.233V314.233ZM224.19 303.722C224.23 303.741 224.262 303.772 224.284 303.81C224.298 303.835 224.307 303.862 224.31 303.89C224.313 303.918 224.311 303.946 224.303 303.974C224.295 304.001 224.281 304.026 224.263 304.048C224.245 304.07 224.223 304.088 224.198 304.101L222.944 304.774C222.892 304.802 222.832 304.808 222.776 304.793C222.72 304.777 222.673 304.74 222.643 304.69C222.63 304.665 222.621 304.638 222.618 304.61C222.615 304.582 222.617 304.553 222.625 304.526C222.633 304.499 222.647 304.474 222.665 304.452C222.683 304.43 222.705 304.412 222.73 304.399L223.985 303.726C224.016 303.709 224.051 303.7 224.086 303.699C224.122 303.699 224.157 303.706 224.189 303.722H224.19ZM228.588 303.096C228.624 303.113 228.655 303.14 228.677 303.174C228.699 303.208 228.71 303.248 228.71 303.289C228.709 303.346 228.685 303.401 228.644 303.441C228.602 303.481 228.546 303.503 228.489 303.502L227.056 303.498C227.028 303.498 227 303.492 226.974 303.481C226.948 303.471 226.925 303.455 226.905 303.435C226.885 303.415 226.869 303.391 226.859 303.365C226.848 303.339 226.843 303.311 226.843 303.283C226.843 303.255 226.848 303.227 226.859 303.201C226.87 303.176 226.886 303.152 226.906 303.132C226.926 303.112 226.949 303.097 226.975 303.086C227.001 303.075 227.029 303.07 227.057 303.07L228.49 303.073C228.524 303.073 228.557 303.081 228.588 303.096V303.096ZM232.483 304.777C232.491 304.781 232.499 304.785 232.506 304.79L233.7 305.559C233.725 305.574 233.745 305.593 233.762 305.616C233.778 305.64 233.789 305.666 233.795 305.694C233.801 305.722 233.801 305.75 233.796 305.778C233.79 305.806 233.779 305.832 233.763 305.856C233.73 305.903 233.679 305.936 233.622 305.947C233.565 305.958 233.506 305.947 233.457 305.915L232.263 305.147C232.239 305.132 232.218 305.113 232.202 305.089C232.185 305.066 232.174 305.04 232.168 305.012C232.162 304.984 232.162 304.956 232.168 304.928C232.173 304.9 232.184 304.874 232.2 304.85C232.231 304.806 232.276 304.775 232.328 304.761C232.38 304.748 232.435 304.753 232.483 304.777V304.777ZM234.828 309.281C234.859 309.295 234.886 309.317 234.906 309.344C234.927 309.371 234.941 309.402 234.947 309.436L235.191 310.807C235.196 310.835 235.195 310.864 235.188 310.891C235.181 310.919 235.169 310.945 235.153 310.968C235.136 310.991 235.115 311.011 235.09 311.026C235.066 311.04 235.039 311.05 235.011 311.054C234.954 311.064 234.895 311.052 234.847 311.019C234.799 310.986 234.766 310.936 234.755 310.879L234.513 309.508C234.508 309.48 234.509 309.452 234.516 309.424C234.522 309.396 234.534 309.37 234.551 309.347C234.568 309.324 234.589 309.305 234.613 309.29C234.638 309.275 234.665 309.266 234.693 309.262C234.739 309.254 234.786 309.26 234.828 309.281V309.281ZM235.301 313.937C235.349 313.959 235.387 313.999 235.407 314.048C235.427 314.097 235.429 314.151 235.411 314.201L234.927 315.51C234.906 315.564 234.865 315.608 234.812 315.632C234.76 315.656 234.7 315.659 234.645 315.639C234.618 315.631 234.593 315.617 234.571 315.598C234.55 315.579 234.532 315.556 234.52 315.531C234.507 315.505 234.5 315.477 234.499 315.449C234.497 315.42 234.502 315.392 234.511 315.365L234.995 314.056C235.016 314.002 235.057 313.958 235.11 313.934C235.163 313.909 235.223 313.907 235.277 313.926C235.285 313.929 235.293 313.933 235.301 313.937V313.937ZM231.411 317.661C231.453 317.681 231.488 317.714 231.51 317.755C231.523 317.78 231.531 317.808 231.533 317.836C231.535 317.864 231.532 317.893 231.523 317.92C231.514 317.947 231.499 317.971 231.481 317.993C231.462 318.014 231.439 318.031 231.413 318.043L230.137 318.676C230.085 318.702 230.026 318.707 229.97 318.69C229.915 318.673 229.868 318.634 229.84 318.583C229.827 318.558 229.819 318.531 229.817 318.502C229.815 318.474 229.818 318.446 229.827 318.419C229.836 318.392 229.851 318.367 229.869 318.346C229.888 318.324 229.911 318.307 229.937 318.295L231.213 317.662C231.244 317.647 231.277 317.639 231.312 317.638C231.346 317.638 231.38 317.646 231.411 317.661V317.661ZM219.623 310.125C219.665 310.145 219.699 310.178 219.721 310.22C219.742 310.261 219.749 310.309 219.741 310.355L219.489 311.724C219.478 311.78 219.444 311.83 219.397 311.863C219.349 311.895 219.29 311.907 219.233 311.897C219.205 311.892 219.178 311.882 219.154 311.867C219.13 311.853 219.109 311.833 219.092 311.81C219.076 311.787 219.064 311.761 219.058 311.733C219.051 311.705 219.05 311.677 219.055 311.648L219.307 310.28C219.318 310.223 219.352 310.173 219.4 310.14C219.447 310.108 219.506 310.096 219.563 310.106C219.584 310.11 219.604 310.117 219.623 310.126V310.125ZM220.799 306.039L220.815 306.048C220.84 306.062 220.861 306.081 220.879 306.103C220.896 306.126 220.908 306.152 220.915 306.179C220.922 306.207 220.924 306.235 220.919 306.263C220.915 306.291 220.905 306.318 220.89 306.342L220.149 307.532C220.117 307.581 220.068 307.616 220.012 307.63C219.955 307.643 219.896 307.634 219.845 307.605C219.821 307.591 219.799 307.572 219.782 307.549C219.765 307.527 219.753 307.501 219.746 307.474C219.739 307.446 219.738 307.418 219.742 307.39C219.746 307.362 219.756 307.335 219.771 307.311L220.512 306.121C220.542 306.074 220.588 306.04 220.641 306.025C220.693 306.01 220.75 306.015 220.799 306.039H220.799ZM222.666 317.461L222.683 317.47L223.46 317.933C223.485 317.947 223.506 317.966 223.523 317.989C223.54 318.012 223.552 318.037 223.559 318.065C223.566 318.092 223.567 318.121 223.562 318.149C223.558 318.177 223.548 318.204 223.533 318.228C223.501 318.276 223.452 318.311 223.395 318.324C223.339 318.337 223.279 318.328 223.229 318.298L222.452 317.835C222.428 317.821 222.406 317.802 222.389 317.78C222.372 317.757 222.36 317.731 222.353 317.704C222.347 317.676 222.345 317.648 222.35 317.62C222.354 317.592 222.364 317.565 222.38 317.541C222.409 317.495 222.455 317.461 222.508 317.447C222.56 317.432 222.617 317.437 222.666 317.461V317.461Z" fill="#4FBA75"/>
<path d="M202.795 336.33C205.799 336.33 208.235 333.966 208.235 331.05C208.235 328.135 205.799 325.771 202.795 325.771C199.79 325.771 197.354 328.135 197.354 331.05C197.354 333.966 199.79 336.33 202.795 336.33Z" fill="#57C984"/>
<path d="M207.088 333.124C206.444 334.34 205.368 335.271 204.073 335.734C202.778 336.198 201.357 336.16 200.088 335.629C200.18 335.68 200.275 335.73 200.372 335.777C201.658 336.404 203.137 336.508 204.498 336.065C205.859 335.622 206.994 334.667 207.666 333.402C207.982 332.779 208.169 332.098 208.217 331.401C208.264 330.704 208.171 330.004 207.943 329.343C207.714 328.683 207.355 328.075 206.887 327.556C206.419 327.038 205.851 326.619 205.218 326.324C205.122 326.278 205.024 326.234 204.926 326.193C206.119 326.837 207.013 327.923 207.417 329.218C207.821 330.513 207.703 331.915 207.088 333.124V333.124Z" fill="#4FBA75"/>
<path d="M203.507 334.133C203.527 333.885 203.266 333.662 202.925 333.636C202.585 333.609 202.293 333.788 202.273 334.036C202.254 334.284 202.514 334.507 202.855 334.533C203.196 334.56 203.488 334.381 203.507 334.133Z" fill="#4FBA75"/>
<path d="M202.768 331.102C202.887 330.835 202.692 330.489 202.334 330.33C201.976 330.17 201.589 330.256 201.47 330.523C201.352 330.789 201.546 331.135 201.904 331.295C202.263 331.454 202.65 331.368 202.768 331.102Z" fill="#4FBA75"/>
<path d="M201.161 328.792C201.371 328.562 201.312 328.167 201.03 327.909C200.748 327.652 200.349 327.629 200.139 327.86C199.93 328.09 199.988 328.485 200.271 328.742C200.553 329 200.951 329.022 201.161 328.792Z" fill="#4FBA75"/>
<path d="M204.831 328.845C205.146 328.822 205.379 328.489 205.351 328.1C205.323 327.711 205.046 327.414 204.73 327.436C204.415 327.459 204.182 327.792 204.21 328.181C204.238 328.57 204.516 328.867 204.831 328.845Z" fill="#4FBA75"/>
<path d="M205.599 332.794C205.838 332.794 206.031 332.606 206.031 332.374C206.031 332.142 205.838 331.954 205.599 331.954C205.36 331.954 205.166 332.142 205.166 332.374C205.166 332.606 205.36 332.794 205.599 332.794Z" fill="#4FBA75"/>
<path d="M199.388 333.865C199.698 333.748 199.827 333.325 199.674 332.92C199.522 332.515 199.147 332.282 198.836 332.399C198.526 332.516 198.397 332.939 198.549 333.344C198.702 333.748 199.077 333.982 199.388 333.865Z" fill="#4FBA75"/>
<path d="M206.195 330.175C206.391 330.175 206.551 330.02 206.551 329.83C206.551 329.639 206.391 329.484 206.195 329.484C205.999 329.484 205.839 329.639 205.839 329.83C205.839 330.02 205.999 330.175 206.195 330.175Z" fill="#4FBA75"/>
<path d="M199.393 330.772C199.59 330.772 199.749 330.618 199.749 330.427C199.749 330.236 199.59 330.082 199.393 330.082C199.197 330.082 199.038 330.236 199.038 330.427C199.038 330.618 199.197 330.772 199.393 330.772Z" fill="#4FBA75"/>
<path d="M202.553 338.314C202.532 337.612 202.719 336.918 203.091 336.322L201.443 336.165C201.443 336.165 201.996 336.57 201.847 338.308L202.553 338.314ZM196.164 334.339C196.795 333.992 197.511 333.829 198.229 333.869L197.603 332.382C197.603 332.382 197.492 333.046 195.839 333.731L196.164 334.339ZM207.55 333.346C207.467 333.508 207.376 333.666 207.276 333.818C207.515 333.744 208.146 333.66 209.384 334.178L209.614 333.531C208.957 333.339 208.365 332.969 207.904 332.461C207.813 332.767 207.695 333.063 207.55 333.346V333.346ZM199.712 326.7C200.091 326.449 200.498 326.245 200.926 326.094C200.434 325.686 200.055 325.158 199.825 324.562L199.204 324.888C199.54 325.433 199.716 326.061 199.712 326.7V326.7ZM202.886 323.896C202.913 324.598 202.732 325.293 202.365 325.892L204.013 326.038C204.013 326.038 203.456 325.636 203.591 323.896H202.886ZM207.477 325.42C207.045 325.989 206.46 326.423 205.79 326.669L206.989 327.778C206.989 327.778 206.81 327.128 208.03 325.847L207.477 325.42ZM196.573 327.197C197.193 327.544 197.7 328.062 198.035 328.689L199.04 327.413C199.04 327.413 198.394 327.656 196.949 326.618L196.573 327.197ZM197.422 330.215C196.928 330.286 196.426 330.284 195.933 330.21L195.895 330.893C196.402 330.891 196.903 331.008 197.357 331.235C197.344 330.894 197.366 330.552 197.422 330.215V330.215ZM208.204 330.498C208.629 330.314 209.075 330.186 209.532 330.117L209.358 329.453C208.924 329.59 208.466 329.629 208.015 329.567C208.107 329.871 208.17 330.183 208.204 330.498V330.498ZM205.655 335.414C205.384 335.585 205.099 335.732 204.802 335.854C205.071 336.197 205.295 336.573 205.469 336.973L206.091 336.65C205.851 336.277 205.702 335.854 205.655 335.414V335.414ZM200.162 335.669C199.892 335.525 199.635 335.358 199.393 335.17C199.364 335.603 199.198 336.016 198.918 336.348L199.305 336.561C199.502 336.189 199.799 335.881 200.162 335.669V335.669Z" fill="#57C984"/>
<path d="M202.912 338.335C202.945 338.351 202.973 338.375 202.992 338.406C203.011 338.437 203.021 338.473 203.02 338.509C203.017 338.56 202.995 338.607 202.957 338.641C202.92 338.675 202.87 338.693 202.82 338.691L201.565 338.649C201.54 338.649 201.514 338.644 201.491 338.635C201.468 338.625 201.446 338.611 201.429 338.593C201.411 338.574 201.397 338.553 201.388 338.529C201.379 338.506 201.374 338.48 201.375 338.455C201.376 338.43 201.382 338.405 201.393 338.382C201.404 338.359 201.419 338.338 201.438 338.321C201.457 338.304 201.479 338.292 201.503 338.284C201.527 338.276 201.553 338.273 201.578 338.275L202.833 338.316C202.86 338.317 202.887 338.323 202.912 338.335V338.335ZM195.796 333.365C195.831 333.382 195.86 333.41 195.879 333.444L196.478 334.515C196.49 334.537 196.497 334.561 196.5 334.585C196.502 334.61 196.5 334.635 196.493 334.659C196.485 334.682 196.474 334.704 196.458 334.723C196.442 334.742 196.422 334.758 196.4 334.769C196.355 334.793 196.303 334.798 196.254 334.784C196.205 334.77 196.164 334.738 196.138 334.694L195.54 333.622C195.528 333.601 195.52 333.577 195.518 333.552C195.515 333.527 195.517 333.502 195.525 333.479C195.532 333.455 195.544 333.433 195.56 333.414C195.576 333.395 195.595 333.379 195.617 333.368C195.645 333.354 195.675 333.346 195.706 333.345C195.737 333.345 195.768 333.352 195.796 333.365H195.796ZM200.118 324.158C200.152 324.174 200.181 324.201 200.201 324.234C200.213 324.256 200.221 324.28 200.224 324.305C200.226 324.329 200.224 324.354 200.217 324.378C200.21 324.402 200.198 324.424 200.182 324.443C200.166 324.463 200.147 324.478 200.125 324.49L199.026 325.079C198.981 325.103 198.929 325.109 198.88 325.095C198.831 325.081 198.789 325.049 198.763 325.005C198.751 324.984 198.743 324.96 198.74 324.935C198.738 324.911 198.74 324.886 198.747 324.862C198.754 324.838 198.766 324.816 198.782 324.797C198.797 324.778 198.817 324.762 198.839 324.751L199.938 324.161C199.966 324.146 199.996 324.138 200.027 324.138C200.059 324.137 200.089 324.144 200.118 324.158V324.158ZM203.97 323.609C204.002 323.624 204.029 323.648 204.048 323.678C204.068 323.707 204.078 323.742 204.078 323.777C204.077 323.802 204.072 323.827 204.062 323.85C204.052 323.873 204.038 323.894 204.02 323.911C204.002 323.929 203.98 323.942 203.957 323.952C203.934 323.961 203.909 323.965 203.884 323.965L202.628 323.962C202.604 323.961 202.579 323.957 202.557 323.947C202.534 323.938 202.513 323.924 202.496 323.906C202.461 323.871 202.441 323.823 202.441 323.773C202.441 323.724 202.461 323.676 202.496 323.641C202.532 323.605 202.579 323.586 202.629 323.586L203.885 323.589C203.915 323.589 203.944 323.596 203.971 323.609H203.97ZM207.382 325.081C207.39 325.085 207.397 325.089 207.404 325.093L208.45 325.767C208.471 325.78 208.489 325.797 208.503 325.817C208.517 325.838 208.527 325.861 208.532 325.885C208.538 325.909 208.538 325.934 208.533 325.958C208.528 325.983 208.519 326.006 208.505 326.026C208.476 326.068 208.431 326.097 208.381 326.107C208.331 326.117 208.279 326.107 208.236 326.079L207.19 325.406C207.169 325.392 207.151 325.375 207.137 325.355C207.123 325.334 207.113 325.312 207.108 325.287C207.103 325.263 207.103 325.238 207.107 325.214C207.112 325.19 207.122 325.167 207.136 325.146C207.163 325.108 207.202 325.08 207.247 325.068C207.292 325.057 207.34 325.061 207.382 325.081V325.081ZM209.438 329.027C209.464 329.04 209.488 329.059 209.506 329.083C209.524 329.106 209.536 329.134 209.542 329.163L209.755 330.364C209.759 330.388 209.758 330.414 209.752 330.438C209.747 330.462 209.736 330.485 209.722 330.505C209.707 330.526 209.688 330.543 209.667 330.556C209.646 330.569 209.622 330.577 209.597 330.581C209.547 330.59 209.496 330.579 209.454 330.55C209.413 330.521 209.384 330.477 209.374 330.428L209.161 329.227C209.157 329.202 209.158 329.177 209.164 329.153C209.17 329.128 209.18 329.106 209.195 329.085C209.209 329.065 209.228 329.048 209.249 329.035C209.271 329.022 209.294 329.014 209.319 329.01C209.359 329.003 209.401 329.009 209.438 329.027V329.027ZM209.852 333.106C209.894 333.125 209.927 333.16 209.945 333.203C209.962 333.246 209.963 333.293 209.948 333.337L209.524 334.485C209.506 334.532 209.47 334.57 209.424 334.591C209.377 334.612 209.325 334.614 209.277 334.597C209.254 334.59 209.232 334.577 209.213 334.561C209.194 334.545 209.179 334.525 209.168 334.503C209.157 334.48 209.151 334.456 209.149 334.431C209.148 334.406 209.152 334.381 209.16 334.358L209.583 333.211C209.602 333.163 209.638 333.125 209.684 333.104C209.73 333.082 209.783 333.08 209.831 333.097C209.838 333.1 209.845 333.103 209.852 333.106V333.106ZM206.444 336.368C206.481 336.386 206.511 336.415 206.53 336.451C206.542 336.473 206.548 336.497 206.55 336.522C206.552 336.547 206.549 336.571 206.541 336.595C206.534 336.618 206.521 336.64 206.505 336.659C206.488 336.677 206.468 336.692 206.446 336.703L205.328 337.258C205.283 337.281 205.23 337.285 205.182 337.27C205.133 337.255 205.093 337.221 205.068 337.177C205.057 337.155 205.05 337.13 205.048 337.106C205.045 337.081 205.048 337.056 205.056 337.032C205.064 337.009 205.077 336.987 205.093 336.968C205.109 336.95 205.13 336.934 205.152 336.924L206.27 336.369C206.297 336.356 206.327 336.349 206.357 336.349C206.387 336.349 206.417 336.356 206.444 336.369V336.368ZM196.117 329.767C196.154 329.784 196.184 329.813 196.203 329.85C196.222 329.886 196.228 329.928 196.22 329.968L196 331.167C195.99 331.217 195.961 331.261 195.919 331.289C195.877 331.318 195.826 331.328 195.776 331.319C195.751 331.315 195.728 331.307 195.706 331.293C195.685 331.28 195.667 331.263 195.652 331.243C195.638 331.223 195.627 331.2 195.622 331.175C195.616 331.151 195.615 331.126 195.619 331.101L195.84 329.902C195.85 329.852 195.879 329.809 195.921 329.78C195.963 329.752 196.014 329.741 196.064 329.75C196.082 329.753 196.1 329.759 196.117 329.767V329.767ZM197.147 326.187L197.161 326.195C197.183 326.208 197.202 326.224 197.217 326.244C197.232 326.263 197.243 326.286 197.249 326.31C197.255 326.334 197.256 326.359 197.253 326.384C197.249 326.408 197.24 326.432 197.227 326.453L196.577 327.496C196.55 327.539 196.507 327.569 196.457 327.581C196.408 327.593 196.356 327.585 196.312 327.559C196.291 327.547 196.272 327.531 196.257 327.511C196.242 327.491 196.231 327.469 196.225 327.445C196.219 327.421 196.217 327.396 196.221 327.371C196.225 327.347 196.233 327.323 196.246 327.302L196.896 326.259C196.922 326.218 196.962 326.188 197.008 326.175C197.055 326.162 197.104 326.166 197.147 326.187V326.187ZM198.783 336.193L198.798 336.201L199.479 336.607C199.5 336.62 199.519 336.637 199.534 336.656C199.548 336.676 199.559 336.699 199.565 336.723C199.571 336.747 199.572 336.772 199.568 336.796C199.564 336.821 199.555 336.844 199.542 336.865C199.515 336.908 199.471 336.938 199.422 336.95C199.372 336.961 199.32 336.953 199.276 336.927L198.596 336.522C198.574 336.509 198.555 336.492 198.541 336.473C198.526 336.453 198.515 336.43 198.509 336.406C198.503 336.382 198.502 336.357 198.506 336.332C198.51 336.308 198.519 336.284 198.532 336.263C198.558 336.223 198.598 336.194 198.644 336.181C198.69 336.168 198.74 336.172 198.783 336.193V336.193Z" fill="#4FBA75"/>
<path d="M241.674 355.775C246.783 355.775 250.925 351.755 250.925 346.797C250.925 341.839 246.783 337.819 241.674 337.819C236.565 337.819 232.423 341.839 232.423 346.797C232.423 351.755 236.565 355.775 241.674 355.775Z" fill="#57C984"/>
<path d="M248.976 350.322C247.88 352.391 246.051 353.974 243.848 354.763C241.646 355.551 239.228 355.487 237.07 354.583C237.228 354.67 237.388 354.755 237.553 354.835C239.74 355.902 242.256 356.077 244.57 355.323C246.884 354.57 248.815 352.947 249.956 350.796C250.494 349.736 250.812 348.579 250.893 347.393C250.974 346.207 250.816 345.017 250.428 343.894C250.04 342.771 249.429 341.737 248.633 340.855C247.837 339.973 246.872 339.26 245.795 338.759C245.63 338.679 245.464 338.606 245.297 338.537C247.326 339.632 248.847 341.478 249.534 343.68C250.222 345.883 250.021 348.267 248.976 350.323V350.322Z" fill="#4FBA75"/>
<path d="M242.885 352.039C242.918 351.617 242.475 351.239 241.896 351.194C241.317 351.148 240.821 351.453 240.788 351.875C240.755 352.297 241.198 352.676 241.777 352.721C242.356 352.766 242.852 352.461 242.885 352.039Z" fill="#4FBA75"/>
<path d="M241.629 346.884C241.831 346.43 241.501 345.842 240.891 345.57C240.281 345.298 239.623 345.445 239.421 345.899C239.22 346.352 239.55 346.94 240.16 347.212C240.77 347.484 241.427 347.337 241.629 346.884Z" fill="#4FBA75"/>
<path d="M238.895 342.956C239.251 342.565 239.152 341.893 238.672 341.455C238.192 341.017 237.514 340.979 237.158 341.37C236.801 341.761 236.901 342.433 237.381 342.871C237.86 343.309 238.538 343.347 238.895 342.956Z" fill="#4FBA75"/>
<path d="M245.136 343.045C245.672 343.007 246.068 342.44 246.021 341.779C245.974 341.119 245.501 340.614 244.965 340.652C244.429 340.69 244.033 341.257 244.08 341.918C244.127 342.579 244.6 343.084 245.136 343.045Z" fill="#4FBA75"/>
<path d="M246.441 349.763C246.848 349.763 247.178 349.443 247.178 349.049C247.178 348.654 246.848 348.334 246.441 348.334C246.035 348.334 245.705 348.654 245.705 349.049C245.705 349.443 246.035 349.763 246.441 349.763Z" fill="#4FBA75"/>
<path d="M235.88 351.583C236.408 351.384 236.626 350.665 236.368 349.977C236.109 349.288 235.471 348.891 234.943 349.09C234.414 349.289 234.196 350.009 234.455 350.697C234.714 351.385 235.352 351.782 235.88 351.583Z" fill="#4FBA75"/>
<path d="M247.456 345.308C247.79 345.308 248.061 345.045 248.061 344.721C248.061 344.397 247.79 344.134 247.456 344.134C247.122 344.134 246.851 344.397 246.851 344.721C246.851 345.045 247.122 345.308 247.456 345.308Z" fill="#4FBA75"/>
<path d="M235.889 346.324C236.223 346.324 236.494 346.061 236.494 345.737C236.494 345.413 236.223 345.15 235.889 345.15C235.555 345.15 235.284 345.413 235.284 345.737C235.284 346.061 235.555 346.324 235.889 346.324Z" fill="#4FBA75"/>
<path d="M241.263 359.149C241.263 359.149 241.056 357.949 242.177 355.762L239.375 355.494C239.375 355.494 240.316 356.183 240.063 359.14L241.263 359.149ZM230.398 352.389C230.398 352.389 231.394 351.65 233.911 351.59L232.845 349.061C232.845 349.061 232.657 350.19 229.846 351.356L230.398 352.389ZM249.761 350.701C249.62 350.977 249.464 351.245 249.295 351.504C249.7 351.378 250.774 351.235 252.88 352.116L253.271 351.016C253.271 351.016 252.083 350.827 250.363 349.197C250.209 349.716 250.007 350.219 249.76 350.701H249.761ZM236.432 339.399C237.075 338.972 237.768 338.625 238.496 338.368C237.659 337.675 237.015 336.778 236.624 335.764L235.568 336.318C235.568 336.318 236.277 337.192 236.432 339.399V339.399ZM241.828 334.631C241.828 334.631 242.045 335.83 240.942 338.025L243.746 338.271C243.746 338.271 242.8 337.59 243.028 334.631H241.828ZM249.636 337.223C249.636 337.223 249.039 338.293 246.768 339.347L248.806 341.231C248.806 341.231 248.502 340.127 250.576 337.947L249.636 337.223ZM231.093 340.244C231.093 340.244 232.254 340.706 233.578 342.782L235.288 340.611C235.288 340.611 234.19 341.025 231.733 339.259L231.093 340.244ZM232.537 345.377C231.697 345.498 230.843 345.494 230.004 345.367L229.939 346.53C230.802 346.527 231.654 346.726 232.427 347.111C232.405 346.531 232.442 345.95 232.537 345.377V345.377ZM250.873 345.859C251.595 345.545 252.354 345.327 253.132 345.21L252.835 344.081C252.097 344.314 251.317 344.381 250.551 344.275C250.707 344.792 250.815 345.322 250.873 345.859V345.859ZM246.538 354.217C246.077 354.509 245.592 354.759 245.087 354.966C245.545 355.55 245.926 356.19 246.222 356.87L247.279 356.32C246.871 355.686 246.618 354.966 246.538 354.217V354.217ZM237.196 354.652C236.738 354.406 236.3 354.122 235.889 353.803C235.839 354.54 235.556 355.241 235.081 355.806L235.738 356.167C236.074 355.536 236.579 355.011 237.196 354.652V354.652Z" fill="#57C984"/>
<path d="M241.874 359.185C241.93 359.211 241.977 359.253 242.009 359.306C242.042 359.359 242.058 359.42 242.056 359.482C242.051 359.568 242.013 359.648 241.95 359.706C241.886 359.764 241.802 359.794 241.716 359.79L239.583 359.72C239.54 359.719 239.498 359.711 239.459 359.694C239.419 359.677 239.384 359.653 239.354 359.622C239.325 359.591 239.302 359.555 239.286 359.515C239.271 359.475 239.264 359.432 239.265 359.39C239.267 359.347 239.277 359.305 239.295 359.266C239.313 359.228 239.338 359.193 239.37 359.164C239.402 359.136 239.439 359.114 239.479 359.1C239.519 359.085 239.562 359.08 239.604 359.082L241.739 359.152C241.785 359.153 241.832 359.164 241.874 359.185V359.185ZM229.772 350.734C229.832 350.762 229.882 350.809 229.914 350.867L230.931 352.689C230.951 352.726 230.964 352.767 230.968 352.809C230.973 352.851 230.969 352.893 230.956 352.933C230.944 352.974 230.924 353.011 230.897 353.043C230.87 353.076 230.836 353.102 230.799 353.121C230.722 353.162 230.633 353.171 230.55 353.147C230.467 353.123 230.396 353.068 230.353 352.993L229.336 351.171C229.316 351.134 229.303 351.093 229.299 351.051C229.294 351.01 229.299 350.967 229.311 350.927C229.323 350.887 229.343 350.849 229.37 350.817C229.398 350.785 229.431 350.758 229.468 350.739C229.515 350.714 229.567 350.701 229.619 350.7C229.672 350.699 229.724 350.711 229.772 350.734V350.734ZM237.12 335.075C237.18 335.103 237.23 335.149 237.262 335.206C237.283 335.243 237.296 335.284 237.301 335.326C237.306 335.368 237.302 335.41 237.29 335.451C237.278 335.491 237.258 335.529 237.231 335.561C237.204 335.594 237.17 335.621 237.133 335.64L235.265 336.642C235.188 336.683 235.099 336.693 235.016 336.67C234.932 336.646 234.861 336.592 234.817 336.517C234.797 336.48 234.783 336.44 234.779 336.398C234.774 336.356 234.778 336.313 234.79 336.273C234.802 336.232 234.822 336.194 234.849 336.162C234.876 336.129 234.909 336.103 234.947 336.083L236.815 335.082C236.862 335.056 236.914 335.043 236.967 335.042C237.02 335.04 237.073 335.052 237.121 335.075H237.12ZM243.673 334.143C243.727 334.168 243.773 334.209 243.806 334.259C243.838 334.31 243.855 334.369 243.856 334.429C243.855 334.472 243.846 334.514 243.829 334.553C243.812 334.592 243.787 334.627 243.757 334.657C243.726 334.686 243.69 334.71 243.65 334.725C243.611 334.741 243.568 334.748 243.526 334.747L241.391 334.741C241.349 334.741 241.308 334.733 241.269 334.717C241.23 334.701 241.195 334.677 241.166 334.648C241.106 334.588 241.073 334.506 241.073 334.422C241.073 334.337 241.107 334.256 241.167 334.197C241.227 334.137 241.308 334.103 241.392 334.104L243.528 334.109C243.578 334.109 243.628 334.12 243.673 334.142V334.143ZM249.475 336.647C249.487 336.653 249.499 336.66 249.511 336.667L251.291 337.812C251.326 337.834 251.357 337.864 251.381 337.898C251.405 337.933 251.422 337.972 251.431 338.013C251.44 338.054 251.44 338.097 251.432 338.138C251.423 338.179 251.407 338.219 251.383 338.254C251.334 338.325 251.259 338.374 251.174 338.39C251.089 338.407 251.001 338.39 250.928 338.343L249.148 337.198C249.112 337.176 249.081 337.147 249.057 337.112C249.033 337.077 249.016 337.038 249.008 336.997C248.999 336.956 248.999 336.913 249.007 336.872C249.015 336.83 249.032 336.791 249.056 336.756C249.101 336.691 249.169 336.644 249.245 336.624C249.322 336.605 249.404 336.613 249.475 336.647V336.647ZM252.97 343.356C253.016 343.378 253.056 343.41 253.087 343.45C253.118 343.491 253.139 343.537 253.148 343.587L253.51 345.63C253.517 345.672 253.516 345.714 253.506 345.756C253.496 345.797 253.478 345.836 253.453 345.87C253.428 345.905 253.397 345.934 253.36 345.956C253.324 345.978 253.284 345.992 253.242 345.999C253.157 346.014 253.07 345.995 252.999 345.946C252.928 345.898 252.879 345.823 252.862 345.739L252.499 343.696C252.493 343.654 252.494 343.612 252.504 343.57C252.514 343.529 252.532 343.49 252.557 343.456C252.582 343.422 252.613 343.393 252.649 343.371C252.686 343.349 252.726 343.334 252.768 343.328C252.837 343.316 252.907 343.326 252.97 343.356V343.356ZM253.674 350.293C253.746 350.327 253.802 350.385 253.832 350.458C253.862 350.531 253.864 350.612 253.837 350.686L253.118 352.637C253.086 352.717 253.025 352.783 252.947 352.819C252.868 352.855 252.779 352.858 252.697 352.829C252.657 352.816 252.62 352.795 252.588 352.768C252.556 352.74 252.53 352.706 252.511 352.668C252.492 352.63 252.482 352.588 252.479 352.546C252.477 352.504 252.484 352.461 252.498 352.421L253.219 350.471C253.25 350.39 253.311 350.325 253.389 350.289C253.468 350.253 253.557 350.249 253.639 350.278C253.651 350.282 253.663 350.287 253.674 350.293V350.293ZM247.88 355.841C247.942 355.871 247.993 355.92 248.026 355.981C248.045 356.018 248.057 356.059 248.06 356.102C248.064 356.144 248.059 356.186 248.045 356.226C248.032 356.266 248.011 356.303 247.983 356.335C247.955 356.366 247.921 356.392 247.883 356.41L245.982 357.354C245.905 357.393 245.815 357.4 245.733 357.374C245.65 357.348 245.581 357.291 245.54 357.215C245.52 357.178 245.509 357.137 245.505 357.095C245.502 357.053 245.507 357.01 245.52 356.97C245.533 356.93 245.555 356.893 245.583 356.862C245.61 356.83 245.644 356.804 245.682 356.786L247.584 355.842C247.63 355.82 247.68 355.808 247.732 355.807C247.783 355.807 247.834 355.819 247.88 355.841ZM230.317 344.615C230.38 344.644 230.431 344.694 230.463 344.756C230.495 344.817 230.506 344.888 230.494 344.956L230.119 346.996C230.102 347.081 230.052 347.155 229.981 347.203C229.909 347.252 229.822 347.27 229.737 347.254C229.696 347.247 229.655 347.233 229.619 347.211C229.583 347.188 229.552 347.159 229.527 347.125C229.502 347.09 229.485 347.051 229.475 347.01C229.466 346.969 229.464 346.926 229.472 346.884L229.847 344.844C229.864 344.759 229.914 344.685 229.985 344.637C230.056 344.589 230.144 344.571 230.228 344.586C230.259 344.592 230.289 344.601 230.317 344.615V344.615ZM232.07 338.528C232.078 338.532 232.086 338.536 232.094 338.541C232.131 338.562 232.163 338.59 232.188 338.623C232.214 338.657 232.232 338.695 232.243 338.736C232.253 338.777 232.255 338.819 232.249 338.861C232.242 338.903 232.228 338.943 232.205 338.979L231.101 340.752C231.054 340.825 230.981 340.876 230.897 340.896C230.813 340.916 230.724 340.903 230.65 340.86C230.613 340.839 230.581 340.811 230.556 340.777C230.53 340.744 230.511 340.705 230.501 340.665C230.491 340.624 230.489 340.581 230.495 340.539C230.501 340.498 230.516 340.458 230.538 340.422L231.643 338.648C231.687 338.579 231.755 338.529 231.834 338.507C231.912 338.484 231.997 338.492 232.07 338.528ZM234.851 355.543C234.86 355.547 234.869 355.552 234.877 355.557L236.035 356.247C236.071 356.268 236.103 356.296 236.128 356.33C236.153 356.364 236.172 356.402 236.182 356.443C236.192 356.484 236.194 356.527 236.187 356.568C236.18 356.61 236.165 356.65 236.143 356.686C236.096 356.758 236.022 356.81 235.938 356.83C235.853 356.849 235.765 356.836 235.69 356.791L234.533 356.101C234.496 356.08 234.465 356.052 234.439 356.018C234.414 355.984 234.396 355.946 234.385 355.905C234.375 355.864 234.374 355.821 234.38 355.779C234.387 355.738 234.402 355.698 234.425 355.662C234.469 355.594 234.537 355.544 234.615 355.522C234.694 355.5 234.778 355.508 234.851 355.543V355.543Z" fill="#4FBA75"/>
<path d="M192.667 318.001C193.455 318.001 194.094 317.381 194.094 316.616C194.094 315.851 193.455 315.231 192.667 315.231C191.879 315.231 191.24 315.851 191.24 316.616C191.24 317.381 191.879 318.001 192.667 318.001Z" fill="#3CA05D"/>
<path d="M258.23 325.443C259.208 325.443 260 324.674 260 323.725C260 322.777 259.208 322.008 258.23 322.008C257.252 322.008 256.46 322.777 256.46 323.725C256.46 324.674 257.252 325.443 258.23 325.443Z" fill="#3CA05D"/>
<path d="M225.34 336.116C226.228 336.116 226.947 335.417 226.947 334.555C226.947 333.694 226.228 332.995 225.34 332.995C224.452 332.995 223.732 333.694 223.732 334.555C223.732 335.417 224.452 336.116 225.34 336.116Z" fill="#3CA05D"/>
<path d="M205.417 300.191C206.114 300.191 206.679 299.642 206.679 298.966C206.679 298.289 206.114 297.741 205.417 297.741C204.72 297.741 204.155 298.289 204.155 298.966C204.155 299.642 204.72 300.191 205.417 300.191Z" fill="#3CA05D"/>
<path d="M36.0062 268.884C39.4359 268.884 42.2162 266.186 42.2162 262.858C42.2162 259.529 39.4359 256.831 36.0062 256.831C32.5765 256.831 29.7961 259.529 29.7961 262.858C29.7961 266.186 32.5765 268.884 36.0062 268.884Z" fill="#57C984"/>
<path d="M40.9073 265.224C40.1716 266.612 38.944 267.675 37.4656 268.204C35.9871 268.734 34.3644 268.691 32.916 268.084C33.0216 268.143 33.1298 268.199 33.2399 268.253C34.7081 268.969 36.3968 269.087 37.95 268.581C39.5032 268.076 40.7996 266.986 41.5657 265.542C41.9267 264.831 42.1408 264.054 42.1953 263.258C42.2498 262.462 42.1435 261.663 41.8829 260.909C41.6223 260.155 41.2126 259.461 40.6783 258.869C40.1441 258.277 39.4961 257.799 38.7731 257.463C38.6631 257.41 38.5515 257.36 38.4386 257.313C39.8004 258.048 40.821 259.288 41.2823 260.766C41.7435 262.244 41.609 263.844 40.9073 265.224V265.224Z" fill="#4FBA75"/>
<path d="M36.8194 266.377C36.8415 266.093 36.5444 265.839 36.1557 265.809C35.767 265.778 35.434 265.983 35.4119 266.267C35.3898 266.55 35.6869 266.804 36.0756 266.834C36.4643 266.865 36.7973 266.66 36.8194 266.377Z" fill="#4FBA75"/>
<path d="M35.9761 262.916C36.1115 262.612 35.8895 262.218 35.4801 262.035C35.0708 261.853 34.6291 261.951 34.4937 262.255C34.3583 262.559 34.5804 262.954 34.9897 263.136C35.3991 263.319 35.8407 263.22 35.9761 262.916Z" fill="#4FBA75"/>
<path d="M34.1404 260.28C34.3798 260.017 34.3129 259.566 33.991 259.272C33.669 258.978 33.214 258.952 32.9745 259.215C32.7351 259.478 32.802 259.929 33.1239 260.223C33.4459 260.517 33.9009 260.542 34.1404 260.28Z" fill="#4FBA75"/>
<path d="M38.3302 260.34C38.69 260.314 38.956 259.934 38.9244 259.49C38.8928 259.046 38.5755 258.707 38.2157 258.733C37.8559 258.759 37.5898 259.139 37.6214 259.583C37.6531 260.027 37.9704 260.366 38.3302 260.34Z" fill="#4FBA75"/>
<path d="M39.2065 264.849C39.4794 264.849 39.7007 264.634 39.7007 264.369C39.7007 264.104 39.4794 263.889 39.2065 263.889C38.9336 263.889 38.7124 264.104 38.7124 264.369C38.7124 264.634 38.9336 264.849 39.2065 264.849Z" fill="#4FBA75"/>
<path d="M32.117 266.071C32.4717 265.937 32.6184 265.454 32.4446 264.992C32.2709 264.53 31.8425 264.264 31.4879 264.397C31.1332 264.531 30.9865 265.014 31.1603 265.476C31.334 265.938 31.7624 266.204 32.117 266.071Z" fill="#4FBA75"/>
<path d="M39.8874 261.858C40.1115 261.858 40.2932 261.682 40.2932 261.464C40.2932 261.246 40.1115 261.07 39.8874 261.07C39.6633 261.07 39.4817 261.246 39.4817 261.464C39.4817 261.682 39.6633 261.858 39.8874 261.858Z" fill="#4FBA75"/>
<path d="M32.123 262.541C32.3471 262.541 32.5288 262.364 32.5288 262.147C32.5288 261.929 32.3471 261.752 32.123 261.752C31.8989 261.752 31.7173 261.929 31.7173 262.147C31.7173 262.364 31.8989 262.541 32.123 262.541Z" fill="#4FBA75"/>
<path d="M35.7305 271.149C35.7061 270.347 35.9196 269.556 36.3441 268.876L34.4638 268.696C34.4638 268.696 35.0952 269.158 34.9256 271.143L35.7305 271.149ZM28.4378 266.611C29.1581 266.215 29.975 266.029 30.7957 266.075L30.0799 264.378C30.0799 264.378 29.9546 265.136 28.0664 265.918L28.4378 266.611ZM41.4345 265.479C41.3398 265.664 41.2357 265.844 41.1225 266.018C41.3943 265.932 42.1147 265.837 43.5279 266.429L43.7911 265.689C43.0406 265.47 42.3651 265.048 41.839 264.469C41.7353 264.817 41.5999 265.155 41.4345 265.479V265.479ZM32.4879 257.892C32.9195 257.605 33.3848 257.373 33.8734 257.2C33.3117 256.735 32.8789 256.133 32.6166 255.452L31.908 255.824C32.2912 256.445 32.4923 257.162 32.4886 257.892H32.4879ZM36.1098 254.691C36.1409 255.493 35.9338 256.286 35.5148 256.97L37.397 257.135C37.397 257.135 36.7617 256.677 36.9154 254.692L36.1098 254.691ZM41.3514 256.432C40.8587 257.082 40.1901 257.576 39.425 257.857L40.7939 259.122C40.7939 259.122 40.5894 258.38 41.9815 256.918L41.3514 256.432ZM28.9043 258.46C29.6118 258.856 30.1909 259.447 30.5727 260.163L31.7207 258.706C31.7207 258.706 30.9831 258.983 29.3338 257.798L28.9043 258.46ZM29.8734 261.905C29.3094 261.986 28.7366 261.984 28.1733 261.898L28.1297 262.679C28.7089 262.676 29.2806 262.81 29.7989 263.068C29.7847 262.679 29.8097 262.289 29.8734 261.905V261.905ZM42.1814 262.228C42.6657 262.017 43.1753 261.871 43.6974 261.792L43.4982 261.035C43.0033 261.191 42.4798 261.236 41.9656 261.165C42.0701 261.512 42.1423 261.868 42.1814 262.228ZM39.2713 267.839C38.9619 268.034 38.6361 268.202 38.2975 268.341C38.6045 268.733 38.8603 269.162 39.0588 269.619L39.7687 269.249C39.4953 268.824 39.325 268.341 39.2713 267.839V267.839ZM33.0012 268.13C32.6933 267.965 32.3998 267.775 32.1238 267.56C32.0904 268.055 31.9001 268.526 31.5808 268.905L32.0228 269.148C32.248 268.724 32.5868 268.372 33.0012 268.131V268.13Z" fill="#57C984"/>
<path d="M36.1401 271.173C36.1777 271.191 36.2093 271.219 36.2311 271.255C36.2529 271.29 36.2639 271.331 36.2628 271.372C36.2599 271.43 36.2343 271.484 36.1917 271.523C36.149 271.561 36.0927 271.582 36.0352 271.579L34.6023 271.532C34.5742 271.531 34.5466 271.524 34.5211 271.513C34.4955 271.501 34.4725 271.485 34.4534 271.464C34.4342 271.443 34.4193 271.419 34.4095 271.393C34.3997 271.367 34.3951 271.339 34.3961 271.31C34.3971 271.282 34.4036 271.255 34.4153 271.229C34.4269 271.204 34.4435 271.181 34.4641 271.161C34.4846 271.142 34.5088 271.127 34.5351 271.117C34.5614 271.108 34.5894 271.103 34.6174 271.104L36.0497 271.15C36.0814 271.152 36.1124 271.159 36.1408 271.173H36.1401ZM28.0175 265.5C28.0576 265.52 28.0908 265.551 28.1125 265.59L28.7953 266.813C28.809 266.838 28.8176 266.865 28.8205 266.893C28.8235 266.921 28.8207 266.95 28.8124 266.977C28.8041 267.004 28.7904 267.029 28.7722 267.051C28.7539 267.073 28.7315 267.091 28.7063 267.103C28.6549 267.13 28.5951 267.137 28.5394 267.12C28.4837 267.104 28.4364 267.067 28.4074 267.017L27.7246 265.794C27.7109 265.769 27.7023 265.742 27.6994 265.714C27.6964 265.686 27.6992 265.657 27.7075 265.63C27.7158 265.603 27.7295 265.578 27.7477 265.556C27.766 265.534 27.7884 265.516 27.8136 265.504C27.845 265.487 27.8798 265.478 27.9152 265.478C27.9506 265.477 27.9856 265.485 28.0175 265.5V265.5ZM32.9503 254.99C32.9902 255.009 33.0233 255.039 33.0453 255.078C33.0591 255.102 33.0678 255.13 33.0708 255.158C33.0739 255.186 33.0713 255.214 33.0632 255.241C33.0551 255.268 33.0416 255.294 33.0236 255.315C33.0055 255.337 32.9833 255.355 32.9582 255.368L31.7041 256.042C31.6529 256.069 31.5931 256.076 31.5371 256.06C31.4811 256.045 31.4333 256.008 31.4039 255.958C31.39 255.933 31.3812 255.906 31.378 255.878C31.3748 255.849 31.3774 255.821 31.3854 255.794C31.3935 255.767 31.4069 255.741 31.425 255.72C31.443 255.698 31.4652 255.68 31.4903 255.667L32.7451 254.994C32.7766 254.977 32.8116 254.968 32.8472 254.967C32.8829 254.967 32.9182 254.974 32.9503 254.99V254.99ZM37.3481 254.364C37.3846 254.381 37.4155 254.408 37.4372 254.442C37.459 254.476 37.4706 254.516 37.4708 254.556C37.4696 254.614 37.4456 254.668 37.4042 254.708C37.3628 254.748 37.3073 254.77 37.2498 254.769L35.8162 254.766C35.7594 254.766 35.705 254.743 35.665 254.703C35.625 254.662 35.6026 254.608 35.6028 254.551C35.6029 254.494 35.6257 254.44 35.6659 254.4C35.7062 254.36 35.7607 254.337 35.8175 254.337L37.2504 254.341C37.2843 254.341 37.3176 254.349 37.3481 254.364V254.364ZM41.2431 256.044C41.2513 256.048 41.2592 256.053 41.2669 256.057L42.461 256.826C42.4851 256.841 42.5059 256.861 42.5222 256.884C42.5385 256.907 42.55 256.933 42.5558 256.961C42.5617 256.989 42.5618 257.018 42.5563 257.045C42.5508 257.073 42.5397 257.1 42.5237 257.123C42.4904 257.171 42.4399 257.204 42.3828 257.215C42.3256 257.226 42.2664 257.215 42.2176 257.183L41.0234 256.415C40.9993 256.4 40.9785 256.38 40.9622 256.357C40.9459 256.334 40.9345 256.307 40.9286 256.28C40.9228 256.252 40.9226 256.223 40.9281 256.195C40.9336 256.167 40.9447 256.141 40.9608 256.118C40.9915 256.074 41.0368 256.042 41.0885 256.029C41.1403 256.016 41.1951 256.021 41.2431 256.045V256.044ZM43.5885 260.548C43.6193 260.563 43.6463 260.584 43.667 260.612C43.6878 260.639 43.7018 260.67 43.7079 260.704L43.9513 262.075C43.9559 262.103 43.9549 262.131 43.9483 262.159C43.9417 262.187 43.9297 262.213 43.9129 262.236C43.8962 262.259 43.875 262.278 43.8507 262.293C43.8263 262.308 43.7993 262.317 43.7712 262.322C43.7144 262.332 43.6559 262.319 43.6083 262.287C43.5607 262.254 43.5278 262.204 43.5166 262.147L43.2731 260.777C43.2684 260.748 43.2694 260.72 43.2759 260.692C43.2825 260.664 43.2945 260.638 43.3113 260.615C43.328 260.592 43.3492 260.572 43.3736 260.558C43.398 260.543 43.425 260.533 43.4532 260.529C43.4995 260.521 43.547 260.528 43.5891 260.549L43.5885 260.548ZM44.0615 265.204C44.1095 265.227 44.1474 265.266 44.1677 265.315C44.188 265.364 44.1892 265.419 44.171 265.469L43.6874 266.778C43.6664 266.832 43.6253 266.875 43.5727 266.899C43.5201 266.923 43.4602 266.926 43.4057 266.907C43.3787 266.898 43.3538 266.884 43.3324 266.865C43.311 266.847 43.2935 266.824 43.2811 266.798C43.2686 266.773 43.2615 266.745 43.26 266.717C43.2585 266.688 43.2627 266.66 43.2725 266.633L43.7554 265.324C43.7763 265.27 43.8175 265.226 43.8702 265.202C43.923 265.178 43.9831 265.175 44.0377 265.195C44.0459 265.197 44.0538 265.201 44.0615 265.204V265.204ZM40.1717 268.928C40.214 268.948 40.2488 268.982 40.2707 269.023C40.2837 269.048 40.2915 269.076 40.2936 269.104C40.2958 269.132 40.2922 269.161 40.2832 269.187C40.2741 269.214 40.2598 269.239 40.241 269.26C40.2222 269.281 40.1993 269.299 40.1737 269.311L38.8978 269.944C38.8459 269.97 38.7859 269.975 38.7305 269.958C38.6751 269.94 38.6286 269.902 38.6009 269.851C38.5878 269.826 38.5798 269.798 38.5776 269.77C38.5753 269.742 38.5788 269.713 38.5878 269.686C38.5968 269.659 38.6111 269.634 38.6299 269.613C38.6487 269.592 38.6716 269.575 38.6972 269.562L39.9731 268.93C40.004 268.914 40.0379 268.906 40.0723 268.906C40.1067 268.906 40.1407 268.914 40.1717 268.928V268.928ZM28.383 261.393C28.4252 261.413 28.4596 261.446 28.4811 261.488C28.5025 261.529 28.5098 261.576 28.5017 261.622L28.2504 262.992C28.2389 263.048 28.2056 263.098 28.1578 263.131C28.1099 263.163 28.0512 263.175 27.9944 263.165C27.9663 263.16 27.9394 263.15 27.9152 263.136C27.891 263.121 27.87 263.101 27.8534 263.078C27.8369 263.055 27.8251 263.029 27.8187 263.001C27.8123 262.973 27.8115 262.945 27.8163 262.917L28.0676 261.547C28.0791 261.49 28.1124 261.441 28.1603 261.408C28.2081 261.376 28.2668 261.364 28.3236 261.374C28.3442 261.378 28.3642 261.384 28.383 261.393ZM29.56 257.307L29.5758 257.316C29.6004 257.33 29.6219 257.349 29.6391 257.371C29.6563 257.394 29.6688 257.419 29.6758 257.447C29.6828 257.474 29.6842 257.503 29.68 257.531C29.6757 257.559 29.6659 257.586 29.651 257.61L28.9095 258.8C28.878 258.849 28.8288 258.884 28.7723 258.898C28.7157 258.911 28.6562 258.902 28.606 258.873C28.5813 258.859 28.5598 258.84 28.5426 258.817C28.5254 258.795 28.513 258.769 28.506 258.742C28.4991 258.714 28.4977 258.685 28.5021 258.657C28.5065 258.629 28.5164 258.603 28.5314 258.578L29.273 257.388C29.3026 257.342 29.3483 257.308 29.4012 257.293C29.4541 257.278 29.5106 257.283 29.56 257.307V257.307ZM31.4263 268.728L31.4441 268.738L32.2206 269.201C32.2451 269.215 32.2665 269.234 32.2835 269.257C32.3004 269.28 32.3127 269.305 32.3195 269.333C32.3262 269.36 32.3274 269.389 32.3229 269.417C32.3184 269.445 32.3083 269.472 32.2932 269.496C32.2615 269.544 32.2122 269.579 32.1556 269.592C32.099 269.605 32.0395 269.596 31.9897 269.566L31.2132 269.103C31.1887 269.089 31.1672 269.07 31.1502 269.048C31.1331 269.025 31.1209 268.999 31.1141 268.971C31.1073 268.944 31.1062 268.915 31.1107 268.887C31.1153 268.859 31.1255 268.832 31.1407 268.808C31.1705 268.763 31.216 268.729 31.2686 268.715C31.3211 268.7 31.3772 268.705 31.4263 268.729V268.728Z" fill="#4FBA75"/>
<path d="M11.5559 287.597C14.5604 287.597 16.996 285.234 16.996 282.318C16.996 279.402 14.5604 277.038 11.5559 277.038C8.55136 277.038 6.11572 279.402 6.11572 282.318C6.11572 285.234 8.55136 287.597 11.5559 287.597Z" fill="#57C984"/>
<path d="M15.8495 284.391C15.2048 285.607 14.1293 286.538 12.8341 287.002C11.5388 287.465 10.1173 287.428 8.84839 286.896C8.94075 286.948 9.03575 286.998 9.13207 287.045C10.4183 287.672 11.8978 287.775 13.2586 287.332C14.6193 286.889 15.755 285.935 16.4261 284.67C16.7422 284.046 16.9296 283.366 16.9773 282.669C17.025 281.971 16.9319 281.271 16.7035 280.611C16.4752 279.95 16.1163 279.343 15.6482 278.824C15.1801 278.305 14.6125 277.886 13.9791 277.591C13.8827 277.545 13.7851 277.501 13.6862 277.461C14.8794 278.105 15.7736 279.19 16.1778 280.485C16.582 281.78 16.4642 283.182 15.8495 284.391V284.391Z" fill="#4FBA75"/>
<path d="M12.2677 285.401C12.2871 285.153 12.0266 284.93 11.6858 284.904C11.3451 284.877 11.0532 285.056 11.0338 285.304C11.0145 285.552 11.275 285.775 11.6157 285.801C11.9564 285.828 12.2484 285.649 12.2677 285.401Z" fill="#4FBA75"/>
<path d="M11.5287 282.369C11.6474 282.102 11.453 281.757 11.0946 281.597C10.7361 281.437 10.3494 281.524 10.2307 281.79C10.1121 282.056 10.3064 282.402 10.6649 282.562C11.0233 282.722 11.41 282.635 11.5287 282.369Z" fill="#4FBA75"/>
<path d="M9.92129 280.06C10.131 279.83 10.0723 279.434 9.79023 279.177C9.50813 278.919 9.10945 278.897 8.89974 279.127C8.69003 279.357 8.74869 279.752 9.03078 280.01C9.31288 280.268 9.71157 280.29 9.92129 280.06Z" fill="#4FBA75"/>
<path d="M13.5913 280.113C13.9064 280.09 14.1393 279.757 14.1116 279.368C14.0839 278.979 13.806 278.682 13.4909 278.704C13.1758 278.727 12.9429 279.06 12.9706 279.449C12.9983 279.838 13.2762 280.135 13.5913 280.113Z" fill="#4FBA75"/>
<path d="M14.3591 284.062C14.5981 284.062 14.7918 283.874 14.7918 283.642C14.7918 283.41 14.5981 283.222 14.3591 283.222C14.12 283.222 13.9263 283.41 13.9263 283.642C13.9263 283.874 14.12 284.062 14.3591 284.062Z" fill="#4FBA75"/>
<path d="M8.14804 285.133C8.45871 285.016 8.58718 284.593 8.435 284.188C8.28282 283.783 7.9076 283.55 7.59694 283.667C7.28627 283.784 7.15779 284.207 7.30998 284.612C7.46216 285.016 7.83737 285.25 8.14804 285.133Z" fill="#4FBA75"/>
<path d="M14.9554 281.442C15.1518 281.442 15.311 281.288 15.311 281.097C15.311 280.906 15.1518 280.752 14.9554 280.752C14.7591 280.752 14.5999 280.906 14.5999 281.097C14.5999 281.288 14.7591 281.442 14.9554 281.442Z" fill="#4FBA75"/>
<path d="M8.15369 282.04C8.35008 282.04 8.50929 281.886 8.50929 281.695C8.50929 281.504 8.35008 281.35 8.15369 281.35C7.9573 281.35 7.7981 281.504 7.7981 281.695C7.7981 281.886 7.9573 282.04 8.15369 282.04Z" fill="#4FBA75"/>
<path d="M11.3144 289.582C11.2928 288.879 11.4797 288.186 11.8514 287.59L10.2034 287.432C10.2034 287.432 10.7576 287.838 10.6085 289.576L11.3144 289.582ZM4.92493 285.607C5.55593 285.26 6.27161 285.097 6.99055 285.137L6.3638 283.649C6.3638 283.649 6.25363 284.313 4.60034 284.999L4.92493 285.607ZM16.3106 284.614C16.2277 284.776 16.1365 284.934 16.0374 285.086C16.2749 285.012 16.907 284.928 18.1446 285.446L18.3755 284.799C17.718 284.607 17.1263 284.237 16.6655 283.73C16.5745 284.035 16.4557 284.331 16.3106 284.614V284.614ZM8.47362 277.968C8.85178 277.716 9.2595 277.513 9.68753 277.361C9.19524 276.954 8.81586 276.426 8.58578 275.83L7.96563 276.156C8.30103 276.7 8.47703 277.328 8.47362 277.968V277.968ZM11.6463 275.164C11.6735 275.867 11.4921 276.561 11.1251 277.16L12.7744 277.305C12.7744 277.305 12.2176 276.904 12.3522 275.164H11.6463ZM16.238 276.688C15.8066 277.257 15.2212 277.691 14.5511 277.937L15.7498 279.045C15.7498 279.045 15.5704 278.396 16.7902 277.114L16.238 276.688ZM5.3333 278.465C5.95324 278.812 6.46064 279.33 6.79527 279.957L7.8007 278.681C7.8007 278.681 7.15416 278.924 5.70935 277.885L5.3333 278.465ZM6.18304 281.483C5.68885 281.554 5.18697 281.552 4.69336 281.477L4.6551 282.161C5.1626 282.159 5.66355 282.276 6.11772 282.503C6.10528 282.162 6.12717 281.82 6.18304 281.483V281.483ZM16.965 281.766C17.3893 281.581 17.8357 281.453 18.2931 281.384L18.1189 280.721C17.6851 280.858 17.2263 280.897 16.7757 280.835C16.8673 281.139 16.9307 281.45 16.965 281.766V281.766ZM14.4152 286.681C14.1444 286.853 13.8592 287 13.5628 287.122C13.8314 287.465 14.0553 287.841 14.2291 288.241L14.8512 287.918C14.6118 287.545 14.4627 287.122 14.4158 286.682L14.4152 286.681ZM8.9229 286.937C8.65295 286.793 8.39563 286.626 8.15365 286.438C8.1245 286.871 7.9581 287.283 7.67865 287.615L8.06525 287.828C8.26259 287.457 8.55964 287.148 8.9229 286.937V286.937Z" fill="#57C984"/>
<path d="M11.6734 289.603C11.7062 289.618 11.7338 289.643 11.7528 289.674C11.7718 289.705 11.7813 289.741 11.7803 289.777C11.7776 289.828 11.755 289.875 11.7176 289.909C11.6801 289.943 11.6308 289.96 11.5804 289.958L10.3262 289.917C10.3016 289.916 10.2774 289.91 10.255 289.9C10.2326 289.89 10.2125 289.875 10.1957 289.857C10.1789 289.839 10.1658 289.818 10.1572 289.795C10.1486 289.772 10.1446 289.748 10.1455 289.723C10.1463 289.698 10.1521 289.674 10.1623 289.652C10.1725 289.629 10.187 289.609 10.205 289.592C10.223 289.575 10.2442 289.562 10.2672 289.554C10.2903 289.545 10.3148 289.541 10.3394 289.542L11.5936 289.583C11.6211 289.584 11.648 289.591 11.6728 289.603H11.6734ZM4.5569 284.633C4.59233 284.65 4.62159 284.678 4.64068 284.712L5.2384 285.783C5.25039 285.805 5.2579 285.829 5.26047 285.853C5.26304 285.878 5.26062 285.903 5.25335 285.927C5.24609 285.95 5.23413 285.972 5.21819 285.991C5.20224 286.01 5.18264 286.026 5.16055 286.037C5.11556 286.061 5.06314 286.066 5.0143 286.052C4.96547 286.038 4.92401 286.005 4.89864 285.961L4.30026 284.89C4.28829 284.869 4.28082 284.845 4.2783 284.82C4.27578 284.795 4.27825 284.77 4.28558 284.746C4.29291 284.723 4.30494 284.701 4.32095 284.682C4.33696 284.663 4.35662 284.647 4.37877 284.636C4.40614 284.622 4.43651 284.614 4.46744 284.613C4.49838 284.613 4.52902 284.619 4.5569 284.633V284.633ZM8.87814 275.425C8.91306 275.442 8.94206 275.469 8.96126 275.502C8.97344 275.524 8.98113 275.548 8.9839 275.572C8.98667 275.597 8.98444 275.622 8.97736 275.646C8.97028 275.67 8.95849 275.692 8.94269 275.711C8.92689 275.73 8.9074 275.746 8.88539 275.757L7.78694 276.346C7.74221 276.371 7.68977 276.377 7.64067 276.363C7.59157 276.349 7.54964 276.317 7.52371 276.274C7.51143 276.252 7.50365 276.228 7.50082 276.203C7.498 276.178 7.5002 276.153 7.50728 276.13C7.51437 276.106 7.52619 276.084 7.54205 276.064C7.55791 276.045 7.57748 276.029 7.59958 276.018L8.69869 275.429C8.72619 275.414 8.75676 275.406 8.78794 275.406C8.81912 275.405 8.85002 275.412 8.87814 275.425V275.425ZM12.731 274.877C12.763 274.892 12.7901 274.916 12.8091 274.946C12.8281 274.975 12.8383 275.01 12.8385 275.045C12.8375 275.096 12.8165 275.144 12.7801 275.179C12.7437 275.214 12.695 275.233 12.6445 275.232L11.3891 275.229C11.3645 275.229 11.3401 275.224 11.3174 275.214C11.2947 275.205 11.2741 275.191 11.2568 275.174C11.2394 275.156 11.2257 275.135 11.2164 275.113C11.207 275.09 11.2023 275.065 11.2024 275.041C11.2025 275.016 11.2074 274.992 11.2169 274.969C11.2264 274.946 11.2403 274.926 11.2577 274.908C11.2752 274.891 11.2959 274.877 11.3186 274.868C11.3414 274.859 11.3658 274.854 11.3904 274.854L12.6459 274.857C12.6756 274.857 12.7049 274.864 12.7316 274.877H12.731ZM16.1438 276.349C16.1508 276.353 16.1576 276.357 16.1642 276.361L17.2105 277.034C17.2316 277.047 17.2498 277.065 17.264 277.085C17.2782 277.105 17.2882 277.128 17.2933 277.153C17.2984 277.177 17.2986 277.202 17.2938 277.226C17.289 277.251 17.2793 277.274 17.2653 277.294C17.2362 277.336 17.192 277.365 17.142 277.375C17.0921 277.385 17.0402 277.375 16.9974 277.347L15.9505 276.674C15.9294 276.66 15.9113 276.643 15.8971 276.623C15.883 276.602 15.8731 276.579 15.868 276.555C15.863 276.531 15.8629 276.506 15.8677 276.481C15.8726 276.457 15.8823 276.434 15.8964 276.413C15.9233 276.375 15.9628 276.348 16.008 276.336C16.0532 276.324 16.101 276.329 16.1431 276.349H16.1438ZM18.1982 280.295C18.2252 280.307 18.2488 280.326 18.267 280.35C18.2853 280.374 18.2976 280.401 18.3031 280.431L18.5155 281.632C18.5195 281.656 18.5186 281.682 18.5129 281.706C18.5071 281.73 18.4966 281.753 18.4819 281.773C18.4672 281.793 18.4487 281.81 18.4274 281.823C18.4061 281.836 18.3824 281.845 18.3578 281.848C18.308 281.857 18.2567 281.846 18.2149 281.817C18.1732 281.789 18.1444 281.745 18.1348 281.695L17.9217 280.495C17.9177 280.47 17.9186 280.445 17.9244 280.421C17.9302 280.396 17.9408 280.373 17.9555 280.353C17.9703 280.333 17.9889 280.316 18.0103 280.303C18.0316 280.29 18.0554 280.282 18.0801 280.278C18.1204 280.271 18.1619 280.277 18.1988 280.295H18.1982ZM18.6125 284.374C18.6544 284.393 18.6876 284.428 18.7053 284.471C18.723 284.514 18.724 284.562 18.7081 284.605L18.2852 285.752C18.267 285.799 18.2309 285.838 18.1847 285.859C18.1384 285.88 18.0857 285.883 18.0378 285.866C18.0141 285.858 17.9921 285.846 17.9733 285.829C17.9544 285.813 17.939 285.793 17.9281 285.77C17.9172 285.748 17.911 285.723 17.9098 285.698C17.9085 285.674 17.9124 285.649 17.9211 285.625L18.3446 284.478C18.3628 284.431 18.3988 284.392 18.4449 284.371C18.491 284.35 18.5436 284.348 18.5914 284.365C18.5986 284.367 18.6056 284.37 18.6125 284.374V284.374ZM15.205 287.636C15.2416 287.654 15.2717 287.683 15.2907 287.719C15.3022 287.741 15.3091 287.765 15.3111 287.79C15.3131 287.814 15.3101 287.839 15.3023 287.863C15.2944 287.886 15.282 287.908 15.2656 287.927C15.2492 287.945 15.2293 287.96 15.2069 287.971L14.0887 288.526C14.0432 288.549 13.9907 288.553 13.9422 288.538C13.8937 288.522 13.853 288.489 13.8288 288.444C13.8173 288.422 13.8104 288.398 13.8085 288.373C13.8065 288.348 13.8096 288.323 13.8175 288.3C13.8254 288.276 13.8379 288.255 13.8543 288.236C13.8708 288.217 13.8908 288.202 13.9132 288.192L15.0308 287.637C15.0578 287.624 15.0876 287.617 15.1178 287.617C15.148 287.616 15.1778 287.623 15.205 287.636V287.636ZM4.87753 281.035C4.91451 281.052 4.94476 281.081 4.96359 281.118C4.98243 281.154 4.98882 281.195 4.98176 281.236L4.76075 282.435C4.75085 282.485 4.72175 282.529 4.67976 282.557C4.63777 282.586 4.58628 282.597 4.53645 282.587C4.5118 282.583 4.48816 282.575 4.46691 282.562C4.44566 282.548 4.42722 282.531 4.41266 282.511C4.39811 282.491 4.38774 282.468 4.38214 282.443C4.37655 282.419 4.37585 282.394 4.38009 282.369L4.6011 281.17C4.611 281.12 4.6401 281.076 4.68209 281.047C4.72408 281.019 4.77558 281.008 4.82541 281.018C4.84349 281.021 4.86103 281.027 4.87753 281.035V281.035ZM5.90803 277.455L5.92254 277.463C5.94403 277.475 5.96281 277.492 5.97779 277.511C5.99277 277.531 6.00362 277.554 6.00972 277.578C6.01581 277.602 6.01701 277.627 6.01326 277.651C6.0095 277.676 6.00086 277.699 5.98785 277.72L5.33868 278.763C5.31101 278.806 5.26794 278.837 5.21843 278.848C5.16892 278.86 5.11677 278.853 5.07281 278.827C5.05132 278.815 5.03253 278.798 5.01756 278.778C5.00258 278.758 4.99173 278.736 4.98563 278.712C4.97954 278.688 4.97834 278.663 4.98209 278.638C4.98585 278.614 4.99449 278.59 5.00749 278.569L5.65667 277.526C5.68267 277.486 5.72262 277.456 5.76894 277.443C5.81526 277.43 5.86475 277.434 5.90803 277.455V277.455ZM7.5435 287.461L7.55867 287.469L8.23952 287.875C8.26093 287.887 8.27961 287.904 8.29445 287.924C8.30929 287.944 8.31998 287.966 8.32589 287.99C8.3318 288.015 8.3328 288.04 8.32885 288.064C8.32489 288.089 8.31605 288.112 8.30285 288.133C8.27509 288.176 8.23188 288.206 8.18229 288.217C8.13271 288.229 8.08062 288.221 8.03698 288.194L7.3568 287.789C7.33542 287.777 7.31676 287.76 7.30191 287.74C7.28707 287.72 7.27634 287.698 7.27038 287.674C7.26441 287.65 7.26332 287.625 7.26717 287.6C7.27102 287.576 7.27974 287.552 7.2928 287.531C7.31878 287.491 7.35861 287.462 7.40479 287.449C7.45096 287.436 7.5003 287.44 7.5435 287.461V287.461Z" fill="#4FBA75"/>
<path d="M50.4352 307.042C55.5447 307.042 59.6867 303.023 59.6867 298.064C59.6867 293.106 55.5447 289.086 50.4352 289.086C45.3258 289.086 41.1838 293.106 41.1838 298.064C41.1838 303.023 45.3258 307.042 50.4352 307.042Z" fill="#57C984"/>
<path d="M57.7363 301.59C56.6401 303.658 54.8113 305.242 52.6087 306.03C50.406 306.818 47.9887 306.754 45.8308 305.85C45.9891 305.938 46.1488 306.023 46.3137 306.103C48.5011 307.17 51.017 307.345 53.3309 306.591C55.6449 305.838 57.5761 304.215 58.7173 302.064C59.2548 301.004 59.5735 299.846 59.6545 298.661C59.7354 297.475 59.577 296.285 59.1887 295.161C58.8003 294.038 58.19 293.005 57.394 292.122C56.5981 291.24 55.6328 290.527 54.5558 290.027C54.3908 289.947 54.2246 289.874 54.0577 289.805C56.0866 290.9 57.6072 292.746 58.2946 294.948C58.9819 297.15 58.7816 299.534 57.7363 301.59V301.59Z" fill="#4FBA75"/>
<path d="M51.646 303.307C51.6789 302.885 51.2362 302.506 50.6571 302.461C50.0781 302.416 49.582 302.721 49.5491 303.143C49.5162 303.564 49.9589 303.943 50.5379 303.988C51.1169 304.033 51.613 303.728 51.646 303.307Z" fill="#4FBA75"/>
<path d="M50.3891 298.151C50.591 297.698 50.2603 297.11 49.6506 296.838C49.0409 296.566 48.383 296.713 48.1812 297.167C47.9793 297.62 48.3099 298.208 48.9196 298.48C49.5293 298.752 50.1872 298.605 50.3891 298.151Z" fill="#4FBA75"/>
<path d="M47.6553 294.224C48.0119 293.833 47.9121 293.161 47.4324 292.723C46.9528 292.285 46.2749 292.247 45.9183 292.638C45.5618 293.029 45.6615 293.701 46.1412 294.139C46.6209 294.577 47.2988 294.615 47.6553 294.224Z" fill="#4FBA75"/>
<path d="M53.897 294.314C54.433 294.276 54.8294 293.709 54.7824 293.048C54.7353 292.387 54.2626 291.882 53.7265 291.921C53.1904 291.959 52.794 292.526 52.8411 293.187C52.8882 293.847 53.3609 294.352 53.897 294.314Z" fill="#4FBA75"/>
<path d="M55.2016 301.031C55.6082 301.031 55.9379 300.711 55.9379 300.317C55.9379 299.922 55.6082 299.602 55.2016 299.602C54.795 299.602 54.4653 299.922 54.4653 300.317C54.4653 300.711 54.795 301.031 55.2016 301.031Z" fill="#4FBA75"/>
<path d="M44.6403 302.851C45.1685 302.652 45.3869 301.932 45.1281 301.244C44.8693 300.556 44.2313 300.159 43.703 300.358C43.1748 300.557 42.9564 301.276 43.2152 301.964C43.474 302.653 44.112 303.05 44.6403 302.851Z" fill="#4FBA75"/>
<path d="M56.2163 296.575C56.5504 296.575 56.8213 296.313 56.8213 295.988C56.8213 295.664 56.5504 295.401 56.2163 295.401C55.8822 295.401 55.6113 295.664 55.6113 295.988C55.6113 296.313 55.8822 296.575 56.2163 296.575Z" fill="#4FBA75"/>
<path d="M44.6499 297.592C44.984 297.592 45.2549 297.329 45.2549 297.005C45.2549 296.681 44.984 296.418 44.6499 296.418C44.3158 296.418 44.0449 296.681 44.0449 297.005C44.0449 297.329 44.3158 297.592 44.6499 297.592Z" fill="#4FBA75"/>
<path d="M50.0235 310.417C50.0235 310.417 49.8163 309.217 50.9379 307.03L48.136 306.762C48.136 306.762 49.0768 307.451 48.8235 310.408L50.0235 310.417ZM39.1591 303.657C39.1591 303.657 40.1552 302.918 42.6715 302.857L41.6053 300.329C41.6053 300.329 41.418 301.458 38.6062 302.623L39.1591 303.657ZM58.5215 301.969C58.3801 302.245 58.2247 302.513 58.0557 302.772C58.4615 302.645 59.5348 302.503 61.64 303.384L62.0319 302.284C62.0319 302.284 60.8431 302.095 59.1238 300.465C58.9694 300.984 58.7678 301.487 58.5215 301.969V301.969ZM45.193 290.667C45.8361 290.239 46.5294 289.893 47.2573 289.635C46.4203 288.942 45.7754 288.046 45.3843 287.032L44.3287 287.585C44.3287 287.585 45.0379 288.46 45.193 290.667V290.667ZM50.5882 285.899C50.5882 285.899 50.8059 287.098 49.7029 289.293L52.5067 289.539C52.5067 289.539 51.56 288.857 51.7883 285.899L50.5882 285.899ZM58.3968 288.491C58.3968 288.491 57.7991 289.561 55.5283 290.615L57.5669 292.499C57.5669 292.499 57.2621 291.394 59.3369 289.215L58.3968 288.491ZM39.8538 291.512C39.8538 291.512 41.0142 291.973 42.3396 294.05L44.0496 291.879C44.0496 291.879 42.9505 292.293 40.4937 290.527L39.8538 291.512ZM41.2979 296.645C40.4575 296.765 39.604 296.762 38.7645 296.636L38.6999 297.798C39.5629 297.794 40.4148 297.993 41.1871 298.379C41.1658 297.798 41.203 297.218 41.2979 296.645ZM59.6338 297.127C60.3554 296.813 61.1148 296.595 61.8927 296.477L61.5958 295.349C60.8583 295.582 60.0782 295.648 59.3119 295.543C59.4676 296.06 59.5754 296.59 59.6338 297.126V297.127ZM55.2987 305.485C54.8378 305.777 54.3524 306.027 53.848 306.234C54.3051 306.818 54.6862 307.457 54.982 308.137L56.0396 307.587C55.6323 306.954 55.3786 306.234 55.2987 305.485ZM45.9569 305.919C45.4981 305.674 45.0607 305.39 44.6493 305.071C44.5998 305.807 44.3167 306.509 43.8412 307.073L44.4996 307.435C44.835 306.804 45.34 306.279 45.9576 305.919H45.9569Z" fill="#57C984"/>
<path d="M50.6343 310.453C50.6903 310.479 50.7374 310.521 50.7697 310.574C50.8021 310.627 50.8183 310.688 50.8164 310.75C50.8118 310.835 50.7736 310.916 50.7101 310.973C50.6465 311.031 50.5629 311.061 50.4773 311.057L48.3431 310.988C48.2586 310.985 48.1787 310.948 48.1211 310.886C48.0634 310.824 48.0327 310.742 48.0357 310.657C48.0386 310.573 48.0751 310.493 48.1369 310.435C48.1988 310.377 48.281 310.347 48.3655 310.35L50.4991 310.42C50.546 310.421 50.5921 310.432 50.6343 310.453V310.453ZM38.5322 302.002C38.5923 302.03 38.6421 302.077 38.6747 302.135L39.692 303.957C39.7125 303.994 39.7253 304.034 39.7296 304.076C39.734 304.118 39.7299 304.161 39.7175 304.201C39.7051 304.242 39.6848 304.279 39.6576 304.311C39.6304 304.344 39.5971 304.37 39.5594 304.389C39.4829 304.43 39.3937 304.439 39.3105 304.415C39.2273 304.391 39.1567 304.336 39.1135 304.261L38.0968 302.439C38.0764 302.402 38.0635 302.361 38.0591 302.319C38.0547 302.277 38.0587 302.235 38.0711 302.195C38.0834 302.154 38.1037 302.117 38.1308 302.084C38.1579 302.052 38.1912 302.025 38.2288 302.006C38.2755 301.982 38.3272 301.969 38.3799 301.968C38.4326 301.967 38.4848 301.979 38.5322 302.002V302.002ZM45.8816 286.343C45.9409 286.371 45.9901 286.417 46.0228 286.474C46.0436 286.51 46.0568 286.551 46.0616 286.593C46.0663 286.635 46.0626 286.677 46.0506 286.718C46.0386 286.758 46.0185 286.796 45.9917 286.829C45.9648 286.861 45.9316 286.888 45.8942 286.907L44.0252 287.91C43.9489 287.951 43.8598 287.961 43.7766 287.937C43.6933 287.914 43.6223 287.859 43.5785 287.784C43.5578 287.748 43.5447 287.707 43.54 287.665C43.5353 287.623 43.5391 287.581 43.5511 287.54C43.5631 287.5 43.5831 287.462 43.6099 287.43C43.6367 287.397 43.6698 287.371 43.7072 287.351L45.5762 286.349C45.623 286.324 45.675 286.31 45.7281 286.309C45.7812 286.308 45.8338 286.319 45.8816 286.342V286.343ZM52.4334 285.41C52.4879 285.436 52.5341 285.476 52.5664 285.527C52.5988 285.578 52.616 285.637 52.6162 285.697C52.6154 285.74 52.6062 285.782 52.5892 285.821C52.5722 285.86 52.5477 285.895 52.5171 285.924C52.4864 285.954 52.4503 285.977 52.4107 285.993C52.3711 286.008 52.3288 286.016 52.2863 286.015L50.1514 286.009C50.0668 286.009 49.9858 285.975 49.9262 285.915C49.8665 285.855 49.8332 285.774 49.8334 285.689C49.8337 285.605 49.8675 285.523 49.9276 285.464C49.9876 285.404 50.0688 285.371 50.1534 285.371L52.2883 285.377C52.3385 285.377 52.3881 285.388 52.4334 285.41V285.41ZM58.2364 287.914C58.2487 287.92 58.2606 287.927 58.272 287.934L60.0513 289.079C60.0871 289.102 60.118 289.131 60.1422 289.166C60.1663 289.2 60.1832 289.239 60.1918 289.281C60.2005 289.322 60.2007 289.365 60.1924 289.406C60.1841 289.447 60.1675 289.487 60.1437 289.522C60.0941 289.592 60.0189 289.641 59.934 289.658C59.8492 289.675 59.7612 289.658 59.6885 289.611L57.9085 288.466C57.8727 288.444 57.8419 288.415 57.8177 288.38C57.7936 288.345 57.7767 288.306 57.768 288.265C57.7594 288.224 57.7592 288.181 57.7675 288.14C57.7758 288.098 57.7923 288.059 57.8162 288.024C57.8618 287.959 57.9292 287.912 58.0062 287.892C58.0831 287.872 58.1648 287.88 58.2364 287.914V287.914ZM61.731 294.624C61.7769 294.646 61.8169 294.678 61.8479 294.718C61.8789 294.759 61.8999 294.805 61.9091 294.855L62.2707 296.898C62.2775 296.939 62.276 296.982 62.2662 297.023C62.2564 297.065 62.2386 297.104 62.2137 297.138C62.1887 297.172 62.1573 297.201 62.1211 297.223C62.0849 297.245 62.0447 297.26 62.0028 297.266C61.918 297.281 61.8306 297.263 61.7595 297.214C61.6884 297.165 61.6393 297.091 61.6228 297.006L61.26 294.964C61.2531 294.922 61.2547 294.879 61.2645 294.838C61.2743 294.796 61.2922 294.758 61.3172 294.723C61.3422 294.689 61.3737 294.66 61.41 294.638C61.4463 294.616 61.4865 294.601 61.5285 294.595C61.5973 294.583 61.6681 294.593 61.731 294.624V294.624ZM62.4356 301.561C62.5068 301.594 62.5629 301.653 62.593 301.725C62.623 301.798 62.6248 301.88 62.5979 301.953L61.8781 303.905C61.8469 303.985 61.7855 304.05 61.707 304.086C61.6285 304.122 61.5391 304.126 61.4579 304.097C61.4176 304.084 61.3804 304.063 61.3484 304.035C61.3164 304.007 61.2904 303.973 61.2719 303.935C61.2533 303.897 61.2426 303.855 61.2405 303.813C61.2383 303.771 61.2447 303.729 61.2593 303.689L61.9791 301.738C62.0102 301.658 62.0715 301.592 62.15 301.556C62.2285 301.52 62.318 301.516 62.3993 301.545C62.4117 301.55 62.4238 301.555 62.4356 301.561V301.561ZM56.6405 307.108C56.7029 307.138 56.7541 307.188 56.7863 307.249C56.8059 307.286 56.8177 307.327 56.821 307.37C56.8244 307.412 56.8192 307.454 56.8058 307.494C56.7925 307.534 56.7712 307.571 56.7432 307.603C56.7153 307.634 56.6813 307.66 56.6432 307.678L54.7425 308.622C54.6652 308.661 54.5759 308.668 54.4935 308.642C54.411 308.616 54.3418 308.559 54.3005 308.483C54.2809 308.446 54.2691 308.405 54.2657 308.363C54.2623 308.321 54.2674 308.278 54.2807 308.238C54.294 308.198 54.3152 308.161 54.3431 308.13C54.371 308.098 54.4049 308.072 54.443 308.054L56.3443 307.11C56.3903 307.087 56.4409 307.075 56.4923 307.075C56.5436 307.074 56.5943 307.086 56.6405 307.108ZM39.0778 295.882C39.1407 295.912 39.1921 295.961 39.2241 296.023C39.256 296.085 39.2668 296.156 39.2546 296.224L38.8799 298.264C38.8628 298.349 38.8132 298.423 38.7417 298.472C38.6702 298.52 38.5826 298.538 38.4979 298.522C38.4561 298.515 38.4159 298.501 38.3798 298.479C38.3437 298.456 38.3124 298.427 38.2876 298.393C38.2629 298.358 38.2452 298.319 38.2357 298.278C38.2261 298.237 38.2249 298.194 38.2321 298.152L38.6081 296.112C38.6252 296.028 38.6746 295.953 38.7458 295.905C38.817 295.857 38.9043 295.839 38.9888 295.854C39.0196 295.859 39.0496 295.869 39.0778 295.882V295.882ZM40.8307 289.796C40.8388 289.799 40.8467 289.804 40.8545 289.808C40.8913 289.829 40.9235 289.857 40.9491 289.89C40.9748 289.924 40.9935 289.962 41.0039 290.003C41.0144 290.044 41.0165 290.087 41.0101 290.129C41.0037 290.171 40.9889 290.211 40.9666 290.247L39.8616 292.019C39.8146 292.092 39.7416 292.144 39.6576 292.164C39.5736 292.184 39.4851 292.171 39.4103 292.128C39.3736 292.107 39.3415 292.079 39.3159 292.045C39.2902 292.012 39.2717 291.973 39.2613 291.932C39.2508 291.891 39.2488 291.849 39.2553 291.807C39.2617 291.765 39.2765 291.725 39.2988 291.689L40.4032 289.916C40.4474 289.847 40.5153 289.797 40.594 289.775C40.6728 289.752 40.757 289.76 40.8307 289.796V289.796ZM43.6115 306.811C43.6205 306.815 43.6293 306.819 43.6379 306.824L44.7951 307.514C44.8316 307.536 44.8635 307.564 44.8888 307.598C44.9142 307.631 44.9325 307.67 44.9426 307.711C44.9527 307.752 44.9544 307.795 44.9476 307.836C44.9409 307.878 44.9258 307.918 44.9033 307.954C44.856 308.026 44.7825 308.078 44.6981 308.097C44.6137 308.117 44.5251 308.103 44.4507 308.059L43.2935 307.369C43.257 307.347 43.2251 307.319 43.1997 307.285C43.1744 307.252 43.1561 307.213 43.146 307.172C43.1359 307.131 43.1342 307.088 43.1409 307.047C43.1477 307.005 43.1628 306.965 43.1853 306.929C43.2297 306.861 43.2975 306.811 43.376 306.789C43.4544 306.768 43.5382 306.775 43.6115 306.811V306.811Z" fill="#4FBA75"/>
<path d="M1.42773 269.268C2.21584 269.268 2.85473 268.648 2.85473 267.883C2.85473 267.118 2.21584 266.498 1.42773 266.498C0.639621 266.498 0.000732422 267.118 0.000732422 267.883C0.000732422 268.648 0.639621 269.268 1.42773 269.268Z" fill="#3CA05D"/>
<path d="M66.9905 276.711C67.9681 276.711 68.7606 275.942 68.7606 274.993C68.7606 274.045 67.9681 273.276 66.9905 273.276C66.0129 273.276 65.2205 274.045 65.2205 274.993C65.2205 275.942 66.0129 276.711 66.9905 276.711Z" fill="#3CA05D"/>
<path d="M34.1009 287.383C34.9889 287.383 35.7087 286.684 35.7087 285.823C35.7087 284.961 34.9889 284.262 34.1009 284.262C33.213 284.262 32.4932 284.961 32.4932 285.823C32.4932 286.684 33.213 287.383 34.1009 287.383Z" fill="#3CA05D"/>
<path d="M14.1776 251.459C14.8746 251.459 15.4397 250.91 15.4397 250.234C15.4397 249.557 14.8746 249.009 14.1776 249.009C13.4806 249.009 12.9155 249.557 12.9155 250.234C12.9155 250.91 13.4806 251.459 14.1776 251.459Z" fill="#3CA05D"/>
<path d="M12.1951 384.231H220.291" stroke="#139DA0" stroke-width="2.33" stroke-linecap="round" stroke-linejoin="round"/>
</g>
<defs>
<clipPath id="clip0_5_2059">
<rect width="260" height="297" fill="white" transform="translate(0 88)"/>
</clipPath>
</defs>
</svg>
