<svg width="372" height="389" viewBox="0 0 372 389" fill="none" xmlns="http://www.w3.org/2000/svg">
<path d="M199 11.5C199 9.96218 198.678 8.44316 198.058 7.05029L194.012 9.03752C194.356 9.80833 194.534 10.649 194.534 11.5H199Z" fill="#276EF1" stroke="#276EF1"/>
<path d="M198.058 7.05034C197.45 5.68702 196.571 4.47677 195.479 3.50162C194.387 2.52647 193.108 1.80923 191.729 1.3985C190.35 0.98777 188.903 0.893161 187.486 1.12108C186.069 1.34901 184.715 1.89413 183.516 2.71951L185.965 6.64089C186.629 6.18413 187.378 5.88246 188.162 5.75633C188.946 5.6302 189.747 5.68255 190.51 5.90985C191.273 6.13715 191.981 6.53407 192.585 7.07371C193.19 7.61336 193.676 8.28311 194.013 9.03757L198.058 7.05034Z" fill="#276EF1" stroke="#276EF1"/>
<path d="M183.516 2.71948C182.069 3.71634 180.892 5.09078 180.102 6.70831C179.312 8.32584 178.935 10.131 179.009 11.9472C179.083 13.7634 179.604 15.5284 180.523 17.0695C181.441 18.6105 182.725 19.8748 184.248 20.7387C185.771 21.6025 187.482 22.0363 189.213 21.9976C190.944 21.9589 192.636 21.449 194.122 20.5178C195.609 19.5866 196.841 18.266 197.696 16.6853C198.551 15.1045 199 13.3178 199 11.5H194.534C194.534 12.506 194.285 13.4947 193.812 14.3695C193.339 15.2443 192.658 15.9751 191.835 16.4904C191.012 17.0057 190.076 17.2879 189.118 17.3093C188.16 17.3308 187.213 17.0907 186.37 16.6127C185.527 16.1346 184.817 15.4349 184.309 14.5821C183.8 13.7293 183.512 12.7526 183.471 11.7475C183.43 10.7424 183.639 9.74341 184.076 8.84827C184.513 7.95314 185.164 7.19252 185.965 6.64087L183.516 2.71948Z" fill="#276EF1" stroke="#276EF1"/>
<rect x="178" y="24" width="22" height="4" fill="#276EF1"/>
<path d="M156.43 44.24C156.43 43.68 156.543 43.19 156.77 42.77C156.997 42.3433 157.307 42.0133 157.7 41.78C158.1 41.5467 158.543 41.43 159.03 41.43C159.51 41.43 159.927 41.5333 160.28 41.74C160.633 41.9467 160.897 42.2067 161.07 42.52V41.52H161.99V47H161.07V45.98C160.89 46.3 160.62 46.5667 160.26 46.78C159.907 46.9867 159.493 47.09 159.02 47.09C158.533 47.09 158.093 46.97 157.7 46.73C157.307 46.49 156.997 46.1533 156.77 45.72C156.543 45.2867 156.43 44.7933 156.43 44.24ZM161.07 44.25C161.07 43.8367 160.987 43.4767 160.82 43.17C160.653 42.8633 160.427 42.63 160.14 42.47C159.86 42.3033 159.55 42.22 159.21 42.22C158.87 42.22 158.56 42.3 158.28 42.46C158 42.62 157.777 42.8533 157.61 43.16C157.443 43.4667 157.36 43.8267 157.36 44.24C157.36 44.66 157.443 45.0267 157.61 45.34C157.777 45.6467 158 45.8833 158.28 46.05C158.56 46.21 158.87 46.29 159.21 46.29C159.55 46.29 159.86 46.21 160.14 46.05C160.427 45.8833 160.653 45.6467 160.82 45.34C160.987 45.0267 161.07 44.6633 161.07 44.25ZM164.438 39.6V47H163.528V39.6H164.438ZM166.899 42.54C167.085 42.2133 167.359 41.9467 167.719 41.74C168.079 41.5333 168.489 41.43 168.949 41.43C169.442 41.43 169.885 41.5467 170.279 41.78C170.672 42.0133 170.982 42.3433 171.209 42.77C171.435 43.19 171.549 43.68 171.549 44.24C171.549 44.7933 171.435 45.2867 171.209 45.72C170.982 46.1533 170.669 46.49 170.269 46.73C169.875 46.97 169.435 47.09 168.949 47.09C168.475 47.09 168.059 46.9867 167.699 46.78C167.345 46.5733 167.079 46.31 166.899 45.99V47H165.989V39.6H166.899V42.54ZM170.619 44.24C170.619 43.8267 170.535 43.4667 170.369 43.16C170.202 42.8533 169.975 42.62 169.689 42.46C169.409 42.3 169.099 42.22 168.759 42.22C168.425 42.22 168.115 42.3033 167.829 42.47C167.549 42.63 167.322 42.8667 167.149 43.18C166.982 43.4867 166.899 43.8433 166.899 44.25C166.899 44.6633 166.982 45.0267 167.149 45.34C167.322 45.6467 167.549 45.8833 167.829 46.05C168.115 46.21 168.425 46.29 168.759 46.29C169.099 46.29 169.409 46.21 169.689 46.05C169.975 45.8833 170.202 45.6467 170.369 45.34C170.535 45.0267 170.619 44.66 170.619 44.24ZM177.607 41.52V47H176.697V46.19C176.523 46.47 176.28 46.69 175.967 46.85C175.66 47.0033 175.32 47.08 174.947 47.08C174.52 47.08 174.137 46.9933 173.797 46.82C173.457 46.64 173.187 46.3733 172.987 46.02C172.793 45.6667 172.697 45.2367 172.697 44.73V41.52H173.597V44.61C173.597 45.15 173.733 45.5667 174.007 45.86C174.28 46.1467 174.653 46.29 175.127 46.29C175.613 46.29 175.997 46.14 176.277 45.84C176.557 45.54 176.697 45.1033 176.697 44.53V41.52H177.607ZM180.053 42.41C180.213 42.0967 180.44 41.8533 180.733 41.68C181.033 41.5067 181.396 41.42 181.823 41.42V42.36H181.583C180.563 42.36 180.053 42.9133 180.053 44.02V47H179.143V41.52H180.053V42.41ZM187.594 41.52L184.294 49.58H183.354L184.434 46.94L182.224 41.52H183.234L184.954 45.96L186.654 41.52H187.594ZM194.108 47.38V48.22H188.788V47.38H194.108ZM197.782 47.09C197.362 47.09 196.986 47.02 196.652 46.88C196.319 46.7333 196.056 46.5333 195.862 46.28C195.669 46.02 195.562 45.7233 195.542 45.39H196.482C196.509 45.6633 196.636 45.8867 196.862 46.06C197.096 46.2333 197.399 46.32 197.772 46.32C198.119 46.32 198.392 46.2433 198.592 46.09C198.792 45.9367 198.892 45.7433 198.892 45.51C198.892 45.27 198.786 45.0933 198.572 44.98C198.359 44.86 198.029 44.7433 197.582 44.63C197.176 44.5233 196.842 44.4167 196.582 44.31C196.329 44.1967 196.109 44.0333 195.922 43.82C195.742 43.6 195.652 43.3133 195.652 42.96C195.652 42.68 195.736 42.4233 195.902 42.19C196.069 41.9567 196.306 41.7733 196.612 41.64C196.919 41.5 197.269 41.43 197.662 41.43C198.269 41.43 198.759 41.5833 199.132 41.89C199.506 42.1967 199.706 42.6167 199.732 43.15H198.822C198.802 42.8633 198.686 42.6333 198.472 42.46C198.266 42.2867 197.986 42.2 197.632 42.2C197.306 42.2 197.046 42.27 196.852 42.41C196.659 42.55 196.562 42.7333 196.562 42.96C196.562 43.14 196.619 43.29 196.732 43.41C196.852 43.5233 196.999 43.6167 197.172 43.69C197.352 43.7567 197.599 43.8333 197.912 43.92C198.306 44.0267 198.626 44.1333 198.872 44.24C199.119 44.34 199.329 44.4933 199.502 44.7C199.682 44.9067 199.776 45.1767 199.782 45.51C199.782 45.81 199.699 46.08 199.532 46.32C199.366 46.56 199.129 46.75 198.822 46.89C198.522 47.0233 198.176 47.09 197.782 47.09ZM203.787 41.42C204.2 41.42 204.574 41.51 204.907 41.69C205.24 41.8633 205.5 42.1267 205.687 42.48C205.88 42.8333 205.977 43.2633 205.977 43.77V47H205.077V43.9C205.077 43.3533 204.94 42.9367 204.667 42.65C204.394 42.3567 204.02 42.21 203.547 42.21C203.067 42.21 202.684 42.36 202.397 42.66C202.117 42.96 201.977 43.3967 201.977 43.97V47H201.067V39.6H201.977V42.3C202.157 42.02 202.404 41.8033 202.717 41.65C203.037 41.4967 203.394 41.42 203.787 41.42ZM207.933 40.63C207.76 40.63 207.613 40.57 207.493 40.45C207.373 40.33 207.313 40.1833 207.313 40.01C207.313 39.8367 207.373 39.69 207.493 39.57C207.613 39.45 207.76 39.39 207.933 39.39C208.1 39.39 208.24 39.45 208.353 39.57C208.473 39.69 208.533 39.8367 208.533 40.01C208.533 40.1833 208.473 40.33 208.353 40.45C208.24 40.57 208.1 40.63 207.933 40.63ZM208.373 41.52V47H207.463V41.52H208.373ZM212.594 41.42C213.261 41.42 213.801 41.6233 214.214 42.03C214.628 42.43 214.834 43.01 214.834 43.77V47H213.934V43.9C213.934 43.3533 213.798 42.9367 213.524 42.65C213.251 42.3567 212.878 42.21 212.404 42.21C211.924 42.21 211.541 42.36 211.254 42.66C210.974 42.96 210.834 43.3967 210.834 43.97V47H209.924V41.52H210.834V42.3C211.014 42.02 211.258 41.8033 211.564 41.65C211.878 41.4967 212.221 41.42 212.594 41.42ZM221.321 44.05C221.321 44.2233 221.311 44.4067 221.291 44.6H216.911C216.944 45.14 217.127 45.5633 217.461 45.87C217.801 46.17 218.211 46.32 218.691 46.32C219.084 46.32 219.411 46.23 219.671 46.05C219.937 45.8633 220.124 45.6167 220.231 45.31H221.211C221.064 45.8367 220.771 46.2667 220.331 46.6C219.891 46.9267 219.344 47.09 218.691 47.09C218.171 47.09 217.704 46.9733 217.291 46.74C216.884 46.5067 216.564 46.1767 216.331 45.75C216.097 45.3167 215.981 44.8167 215.981 44.25C215.981 43.6833 216.094 43.1867 216.321 42.76C216.547 42.3333 216.864 42.0067 217.271 41.78C217.684 41.5467 218.157 41.43 218.691 41.43C219.211 41.43 219.671 41.5433 220.071 41.77C220.471 41.9967 220.777 42.31 220.991 42.71C221.211 43.1033 221.321 43.55 221.321 44.05ZM220.381 43.86C220.381 43.5133 220.304 43.2167 220.151 42.97C219.997 42.7167 219.787 42.5267 219.521 42.4C219.261 42.2667 218.971 42.2 218.651 42.2C218.191 42.2 217.797 42.3467 217.471 42.64C217.151 42.9333 216.967 43.34 216.921 43.86H220.381Z" fill="#276EF1"/>
<path d="M214.668 156.808C214.668 156.808 217.052 154.25 217.493 152.045C217.935 149.84 221.731 147.812 223.497 148.253C223.497 148.253 222.084 152.486 224.027 153.809C225.765 154.908 227.563 155.91 229.412 156.808C229.412 156.808 230.737 152.398 232.414 153.192C234.092 153.986 235.416 154.515 235.328 158.131L239.124 161.218C239.124 161.218 240.449 149.223 238.595 147.106C236.741 144.989 235.328 143.225 232.414 143.578C232.414 143.578 229.677 141.285 224.91 142.519C220.142 143.754 218.906 144.283 218.288 145.518C217.67 146.753 215.992 149.84 215.021 150.899C214.05 151.957 212.14 156.582 214.668 156.808Z" fill="black"/>
<path d="M217.846 156.544C218.23 156.011 218.732 155.573 219.312 155.264C219.882 154.926 220.538 154.758 221.201 154.78C220.912 154.95 220.637 155.093 220.363 155.242L219.548 155.693C218.997 156.008 218.429 156.292 217.846 156.544ZM221.202 159.944C221.112 159.944 221.024 159.92 220.948 159.874C220.871 159.827 220.808 159.761 220.767 159.682L219.796 157.83C219.765 157.773 219.747 157.71 219.741 157.646C219.735 157.582 219.742 157.517 219.761 157.456C219.78 157.394 219.811 157.337 219.853 157.287C219.894 157.238 219.945 157.197 220.002 157.167C220.059 157.137 220.121 157.118 220.186 157.113C220.25 157.107 220.315 157.114 220.376 157.133C220.438 157.153 220.495 157.184 220.545 157.225C220.594 157.267 220.635 157.318 220.665 157.375L221.636 159.227C221.675 159.301 221.694 159.385 221.692 159.469C221.689 159.553 221.665 159.635 221.621 159.708C221.577 159.78 221.516 159.839 221.443 159.881C221.369 159.922 221.286 159.944 221.202 159.944V159.944ZM222.746 166.673C223.438 166.365 224.054 165.912 224.554 165.344C224.796 165.061 225.015 164.759 225.211 164.442C225.315 164.284 225.399 164.112 225.502 163.946C225.596 163.776 225.681 163.6 225.793 163.427C225.784 163.629 225.763 163.83 225.728 164.029C225.684 164.227 225.626 164.422 225.554 164.611C225.403 164.996 225.19 165.353 224.922 165.667C224.644 165.978 224.31 166.234 223.936 166.42C223.57 166.611 223.159 166.698 222.746 166.673V166.673Z" fill="black"/>
<path d="M233.17 160.599C233.3 161.468 233.355 162.348 233.334 163.227C233.325 164.117 233.227 165.003 233.041 165.873C232.839 166.752 232.53 167.602 232.12 168.405C231.915 168.811 231.676 169.199 231.406 169.564C231.129 169.951 230.799 170.295 230.424 170.587L230.398 170.607L230.384 170.614C229.386 171.048 228.337 171.354 227.262 171.524C226.734 171.615 226.207 171.704 225.675 171.749C225.396 171.797 225.11 171.79 224.834 171.73C224.551 171.659 224.29 171.522 224.072 171.329C223.66 170.947 223.34 170.477 223.133 169.955C222.921 169.452 222.753 168.931 222.632 168.399C222.386 167.342 222.259 166.261 222.254 165.176L222.862 165.606C222.243 165.85 221.596 166.013 220.935 166.09C220.566 166.134 220.192 166.112 219.831 166.024C219.728 165.992 219.626 165.954 219.527 165.91C219.423 165.854 219.323 165.79 219.23 165.716C219.132 165.63 219.045 165.533 218.972 165.426C218.902 165.311 218.852 165.185 218.823 165.054C218.76 164.688 218.758 164.314 218.819 163.947C218.861 163.619 218.917 163.306 218.984 163C219.114 162.389 219.247 161.794 219.338 161.21C219.455 160.676 219.456 160.123 219.339 159.589C219.312 159.489 219.265 159.395 219.201 159.314C219.137 159.233 219.056 159.165 218.965 159.116C218.849 159.048 218.665 158.961 218.528 158.873C218.386 158.778 218.251 158.674 218.122 158.563C217.178 157.673 216.54 156.508 216.299 155.234L216.393 155.207C216.637 155.767 216.941 156.298 217.299 156.793C217.629 157.279 218.044 157.702 218.525 158.04C218.641 158.118 218.762 158.188 218.887 158.252L219.281 158.422C219.471 158.502 219.644 158.62 219.789 158.767C219.934 158.915 220.048 159.089 220.126 159.281C220.347 159.941 220.407 160.645 220.3 161.333C220.233 161.976 220.108 162.594 220.004 163.197C219.954 163.498 219.896 163.795 219.859 164.08C219.816 164.324 219.809 164.574 219.84 164.82C219.847 164.892 219.918 164.983 220.121 165.054C220.361 165.118 220.611 165.14 220.859 165.119C221.433 165.074 221.999 164.956 222.543 164.769L223.172 164.563L223.151 165.199C223.115 166.229 223.153 167.26 223.265 168.285C223.32 168.794 223.425 169.297 223.578 169.786C223.708 170.269 223.956 170.712 224.3 171.075C224.475 171.244 224.689 171.367 224.924 171.434C225.158 171.5 225.405 171.508 225.643 171.456C226.164 171.4 226.679 171.306 227.185 171.174C228.183 170.913 229.14 170.516 230.03 169.993L229.99 170.02C230.262 169.731 230.505 169.418 230.718 169.083C230.942 168.734 231.148 168.375 231.336 168.005C231.722 167.261 232.036 166.483 232.274 165.68C232.693 164.015 232.96 162.316 233.072 160.603L233.17 160.599ZM239.124 161.219C239.722 161.663 240.242 162.136 240.804 162.544C241.336 162.992 241.973 163.296 242.656 163.427C242.294 163.567 241.894 163.577 241.526 163.455C241.159 163.346 240.816 163.17 240.512 162.937C240.213 162.714 239.942 162.454 239.707 162.164C239.466 161.88 239.27 161.561 239.124 161.219V161.219Z" fill="black"/>
<path d="M230.207 170.303C230.438 170.563 230.597 170.879 230.667 171.219C230.752 171.556 230.746 171.91 230.649 172.244C230.417 171.985 230.258 171.669 230.189 171.328C230.105 170.991 230.111 170.637 230.207 170.303Z" fill="black"/>
<path d="M266.035 189.983L266.035 189.963L266.037 189.978C265.636 188.744 265.27 187.498 264.962 186.236C264.654 184.975 264.376 183.704 264.191 182.412C264.084 181.76 264.032 181.1 264.034 180.44C264.036 180.259 264.059 180.078 264.104 179.903C264.133 179.797 264.186 179.7 264.259 179.619C264.319 179.541 264.39 179.471 264.47 179.413C264.756 179.208 265.073 179.051 265.41 178.948C266.68 178.584 267.989 178.371 269.31 178.312L269.058 178.491L271.941 171.675L274.876 164.893L275.071 165.408C273.778 164.888 272.453 164.453 271.102 164.106C269.744 163.737 268.377 163.394 267.002 163.076C264.253 162.447 261.491 161.846 258.717 161.375C258.023 161.265 257.33 161.158 256.639 161.079C256.298 161.044 255.946 161.01 255.624 161.003C255.293 161.002 254.963 161.034 254.639 161.099C253.263 161.342 251.873 161.62 250.491 161.906C247.723 162.48 244.959 163.087 242.198 163.702L242.411 163.384C242.691 165.342 242.362 167.339 241.468 169.104C241.037 169.975 240.512 170.796 239.901 171.553C239.302 172.31 238.646 173.022 237.94 173.681C237.243 174.347 236.504 174.965 235.754 175.563C235.382 175.879 234.988 176.17 234.576 176.431C234.347 176.558 234.096 176.637 233.836 176.664C233.572 176.683 233.307 176.643 233.062 176.546C232.6 176.336 232.199 176.012 231.898 175.604C231.595 175.221 231.331 174.808 231.11 174.372C230.669 173.509 230.316 172.605 230.055 171.672L230.332 171.735L225.195 177.789C224.338 178.797 223.479 179.803 222.603 180.799C222.178 181.301 221.671 181.781 221.297 182.263C220.926 182.767 220.672 183.348 220.555 183.962C220.526 184.113 220.508 184.265 220.501 184.419C220.491 184.56 220.508 184.716 220.514 184.887L220.563 185.878L220.66 187.859L220.855 191.822L221.243 199.748L221.01 199.405C222.123 199.76 223.28 199.953 224.448 199.976C225.644 200.032 226.848 200.03 228.054 200.011C230.464 199.949 232.885 199.794 235.282 199.556L235.316 199.553C235.417 199.543 235.518 199.569 235.602 199.625C235.686 199.682 235.747 199.766 235.775 199.863L236.012 200.675L236.182 201.464C236.302 201.99 236.377 202.511 236.474 203.035C236.65 204.081 236.811 205.126 236.957 206.171C237.255 208.263 237.526 210.356 237.771 212.45C238.254 216.64 238.696 220.833 239.096 225.03L238.831 224.635C238.984 224.687 239.147 224.701 239.306 224.673C239.532 224.65 239.756 224.606 239.974 224.543C240.446 224.408 240.909 224.243 241.36 224.049C242.281 223.659 243.188 223.199 244.085 222.722C245.874 221.753 247.641 220.722 249.385 219.652C252.876 217.513 256.306 215.263 259.739 213.015C261.457 211.892 263.18 210.776 264.922 209.682C265.796 209.139 266.669 208.597 267.591 208.106C267.829 207.977 268.076 207.865 268.329 207.77C268.406 207.742 268.484 207.722 268.564 207.709L268.739 207.673C268.853 207.657 268.965 207.627 269.072 207.584C269.518 207.427 269.916 207.154 270.222 206.794C270.845 206.034 271.189 205.084 271.2 204.102C271.217 203.096 271.059 202.095 270.73 201.144C270.127 199.203 268.887 197.512 268.12 195.599C268.114 195.587 268.114 195.574 268.118 195.561C268.123 195.549 268.132 195.539 268.144 195.534C268.156 195.529 268.169 195.529 268.181 195.533C268.193 195.538 268.203 195.547 268.209 195.559C269.031 197.433 270.322 199.071 271.012 201.047C271.385 202.027 271.583 203.065 271.597 204.113C271.62 205.199 271.262 206.259 270.585 207.109C270.231 207.541 269.77 207.871 269.247 208.068C269.117 208.123 268.981 208.162 268.841 208.186L268.64 208.231C268.594 208.241 268.548 208.255 268.504 208.272C268.28 208.364 268.062 208.47 267.851 208.589C266.972 209.083 266.111 209.643 265.256 210.202C263.544 211.326 261.854 212.489 260.154 213.637C256.751 215.932 253.348 218.232 249.87 220.43C248.127 221.523 246.374 222.606 244.552 223.588C243.639 224.078 242.715 224.551 241.747 224.964C241.256 225.176 240.751 225.358 240.237 225.506C239.962 225.585 239.681 225.64 239.396 225.669C239.045 225.721 238.686 225.669 238.363 225.521C238.291 225.487 238.228 225.434 238.182 225.368C238.136 225.302 238.108 225.226 238.1 225.146L238.098 225.126C237.679 220.938 237.226 216.753 236.737 212.57C236.495 210.48 236.251 208.39 235.968 206.308C235.831 205.267 235.68 204.229 235.514 203.195C235.423 202.682 235.351 202.159 235.24 201.657L235.083 200.9L234.885 200.193L235.378 200.5C232.943 200.723 230.514 200.86 228.07 200.904C226.848 200.919 225.623 200.898 224.395 200.82C223.781 200.769 223.166 200.714 222.549 200.613C221.913 200.52 221.29 200.355 220.691 200.122C220.625 200.096 220.567 200.051 220.526 199.992C220.484 199.933 220.461 199.864 220.459 199.792L220.458 199.78L220.201 191.851L220.073 187.886L220.008 185.904L219.976 184.913C219.974 184.754 219.958 184.579 219.971 184.39C219.983 184.213 220.007 184.037 220.043 183.864C220.187 183.177 220.482 182.53 220.908 181.972C221.122 181.707 221.351 181.455 221.594 181.217C221.821 180.984 222.044 180.739 222.267 180.498C223.157 179.523 224.033 178.532 224.907 177.54C226.65 175.55 228.368 173.539 230.087 171.528C230.115 171.496 230.154 171.476 230.197 171.473C230.239 171.469 230.281 171.483 230.314 171.51C230.338 171.532 230.356 171.56 230.364 171.591C230.614 172.503 230.954 173.388 231.378 174.234C231.585 174.654 231.837 175.051 232.128 175.418C232.401 175.782 232.761 176.071 233.175 176.258C233.378 176.336 233.596 176.367 233.812 176.347C234.029 176.328 234.238 176.26 234.424 176.148C234.816 175.891 235.19 175.609 235.544 175.303C236.285 174.702 237.01 174.084 237.691 173.422C239.09 172.143 240.238 170.615 241.075 168.916C241.888 167.225 242.16 165.325 241.856 163.473C241.846 163.403 241.862 163.332 241.901 163.273C241.94 163.215 242 163.173 242.069 163.155C244.819 162.478 247.573 161.819 250.332 161.18C251.715 160.868 253.092 160.545 254.503 160.295C254.872 160.22 255.248 160.182 255.626 160.181C256.01 160.187 256.364 160.22 256.727 160.254C257.442 160.331 258.148 160.435 258.852 160.542C261.661 161.005 264.442 161.566 267.2 162.24C268.581 162.57 269.956 162.927 271.324 163.313C272.713 163.682 274.076 164.143 275.403 164.693C275.45 164.713 275.491 164.743 275.527 164.779C275.562 164.815 275.589 164.858 275.608 164.905C275.626 164.952 275.635 165.003 275.634 165.053C275.634 165.104 275.623 165.154 275.602 165.2L275.601 165.203L275.599 165.208L269.585 178.699L269.581 178.708C269.56 178.757 269.525 178.798 269.481 178.828C269.438 178.858 269.387 178.875 269.334 178.878C268.06 178.909 266.794 179.088 265.561 179.411C265.275 179.492 265.003 179.617 264.756 179.782C264.657 179.844 264.58 179.935 264.534 180.042C264.497 180.179 264.476 180.321 264.471 180.464C264.449 181.099 264.48 181.735 264.563 182.365C264.704 183.643 264.94 184.916 265.206 186.18C265.478 187.444 265.781 188.703 266.132 189.949L266.134 189.963L266.134 189.983C266.133 189.996 266.128 190.008 266.119 190.017C266.11 190.026 266.097 190.031 266.084 190.031C266.072 190.031 266.059 190.026 266.05 190.017C266.041 190.008 266.036 189.996 266.035 189.983V189.983Z" fill="black"/>
<path d="M223.409 189.973C225.594 191.399 227.737 192.892 229.837 194.452C230.885 195.236 231.914 196.047 232.918 196.898C233.961 197.744 234.907 198.703 235.738 199.759L234.918 200.297C234.193 199.257 233.356 198.299 232.423 197.441C231.49 196.545 230.521 195.678 229.531 194.835C227.546 193.152 225.505 191.531 223.409 189.973ZM264.213 180.292C263.417 179.946 262.649 179.535 261.92 179.064C261.197 178.602 260.512 178.083 259.87 177.514C259.234 176.944 258.658 176.31 258.153 175.621C257.659 174.933 257.258 174.183 256.959 173.39C257.328 174.141 257.794 174.839 258.345 175.469C258.897 176.086 259.513 176.644 260.181 177.134C260.848 177.619 261.552 178.052 262.286 178.427C263.01 178.8 263.763 179.114 264.537 179.367L264.213 180.292ZM269.078 179.021C267.985 178.339 266.955 177.614 265.943 176.846C264.931 176.08 263.963 175.259 263.042 174.388C262.111 173.523 261.275 172.562 260.545 171.522C259.774 170.506 259.324 169.283 259.254 168.01C259.402 169.256 259.921 170.43 260.744 171.378C261.524 172.349 262.404 173.236 263.369 174.023C264.328 174.819 265.33 175.561 266.37 176.248C267.407 176.933 268.48 177.587 269.561 178.168L269.078 179.021ZM258.46 187.415C257.804 188.943 257.036 190.421 256.162 191.836C255.292 193.258 254.324 194.619 253.266 195.908C252.196 197.197 250.985 198.361 249.655 199.38C248.332 200.417 246.78 201.123 245.128 201.439C245.921 201.209 246.683 200.884 247.398 200.471C248.116 200.073 248.794 199.607 249.424 199.082C250.693 198.038 251.854 196.869 252.891 195.594C253.95 194.331 254.937 193.009 255.846 191.634C256.311 190.951 256.758 190.256 257.187 189.549C257.631 188.851 258.047 188.135 258.46 187.415ZM226.458 200.448C226.848 201.484 227.16 202.548 227.391 203.63C227.636 204.717 227.78 205.825 227.821 206.938C227.84 207.5 227.826 208.063 227.779 208.624C227.738 209.166 227.7 209.709 227.675 210.258L227.5 213.547L227.186 220.136C227.077 222.333 226.918 224.527 226.752 226.722L226.254 233.305L226.129 234.953C226.1 235.235 226.098 235.488 226.054 235.794C226.042 235.945 225.996 236.092 225.919 236.223C225.853 236.348 225.787 236.472 225.717 236.591L224.034 239.435C223.48 240.384 222.923 241.332 222.422 242.305C222.17 242.785 221.943 243.279 221.742 243.783C221.555 244.29 221.399 244.808 221.274 245.333C221.021 246.387 220.857 247.461 220.786 248.542C220.751 249.075 220.751 249.611 220.787 250.144C220.808 250.657 220.903 251.164 221.071 251.649L220.39 251.549C221.995 249.319 223.619 247.104 225.245 244.89C226.866 242.672 228.497 240.462 230.139 238.259L230.06 238.414L231.936 232.609L233.838 226.812L235.743 221.015L236.682 218.114C237.009 217.158 237.286 216.186 237.511 215.202L237.608 215.191C237.472 216.207 237.267 217.213 236.995 218.202C236.753 219.192 236.498 220.178 236.23 221.16C235.689 223.123 235.165 225.091 234.585 227.042L232.86 232.898L231.06 238.732L231.035 238.813L230.981 238.886C229.342 241.091 227.688 243.284 226.019 245.466C224.359 247.655 222.691 249.838 221.017 252.016L220.559 252.607L220.336 251.916C220.032 250.799 219.962 249.632 220.131 248.487C220.256 247.376 220.473 246.278 220.78 245.203C220.93 244.664 221.113 244.134 221.327 243.616C221.553 243.106 221.806 242.609 222.084 242.125C222.623 241.159 223.182 240.209 223.755 239.269C224.323 238.327 224.918 237.397 225.45 236.442C225.519 236.323 225.58 236.203 225.641 236.084C225.705 235.978 225.741 235.858 225.745 235.734C225.776 235.494 225.786 235.197 225.804 234.931L225.879 233.284L226.069 226.687C226.156 222.286 226.412 217.893 226.722 213.501C226.802 212.403 226.865 211.304 226.979 210.205C227.028 209.657 227.092 209.105 227.16 208.552C227.229 208.019 227.266 207.482 227.273 206.944C227.259 204.759 226.953 202.585 226.365 200.48L226.458 200.448Z" fill="black"/>
<path d="M274.913 165.746L274.918 165.746L274.922 165.746L274.927 165.747C276.708 166.114 278.469 166.579 280.209 167.123C281.076 167.404 281.937 167.711 282.782 168.067C283.646 168.409 284.467 168.849 285.23 169.378C285.652 169.656 285.991 170.041 286.212 170.495C286.329 170.761 286.354 171.059 286.284 171.341L286.101 171.999C285.86 172.88 285.565 173.75 285.25 174.611C284.603 176.326 283.803 177.98 282.861 179.552C280.966 182.675 278.725 185.575 276.181 188.197C275.569 188.871 274.917 189.506 274.268 190.144L273.305 191.11L272.307 192.038C270.988 193.291 269.603 194.467 268.245 195.676L268.253 195.669L268.248 195.674L268.236 195.686L268.215 195.697C267.662 195.977 267.187 196.388 266.831 196.894C266.681 197.158 266.597 197.453 266.585 197.755L266.46 198.71C266.377 199.353 266.25 199.99 266.078 200.615C265.991 200.937 265.87 201.248 265.718 201.545C265.567 201.878 265.314 202.156 264.995 202.336L265.089 202.248C264.969 202.459 264.833 202.66 264.681 202.85C264.531 203.041 264.364 203.219 264.181 203.38C263.803 203.74 263.31 203.954 262.788 203.986L263.037 203.775C262.981 204.099 262.888 204.416 262.76 204.719C262.634 205.036 262.45 205.326 262.216 205.575C261.961 205.843 261.626 206.021 261.261 206.083C260.905 206.128 260.543 206.083 260.208 205.952L260.611 205.718C260.528 206.286 260.399 206.846 260.224 207.393C260.132 207.677 260.014 207.952 259.869 208.214C259.709 208.543 259.429 208.798 259.087 208.928C258.877 208.983 258.653 208.962 258.457 208.868C258.296 208.791 258.15 208.688 258.024 208.563C257.911 208.453 257.809 208.332 257.721 208.202C257.629 208.081 257.544 207.955 257.466 207.825C257.186 207.3 256.996 206.731 256.902 206.144C256.724 205.018 256.678 203.876 256.764 202.74C256.834 201.615 256.979 200.497 257.201 199.392C257.418 198.277 257.739 197.186 258.159 196.131C258.271 195.859 258.4 195.595 258.545 195.34C258.623 195.204 258.71 195.075 258.805 194.951C258.902 194.826 259.01 194.709 259.127 194.602C259.552 194.223 259.998 193.867 260.463 193.536C261.371 192.877 262.297 192.26 263.221 191.643L264.605 190.726L265.28 190.259C265.39 190.18 265.498 190.1 265.597 190.019C265.648 189.98 265.694 189.939 265.733 189.903C265.747 189.89 265.76 189.877 265.773 189.862C265.771 189.865 265.784 189.849 265.772 189.87C265.76 189.891 265.752 189.915 265.748 189.939C265.745 189.965 265.75 189.997 265.749 189.975L265.763 190.071C265.746 189.983 265.751 189.892 265.778 189.807L265.81 189.729C265.83 189.684 265.851 189.64 265.875 189.597L266.002 189.37L266.259 188.944L266.777 188.109L267.801 186.443C268.469 185.326 269.122 184.2 269.727 183.05C270.34 181.905 270.88 180.722 271.344 179.51C271.839 178.312 272.129 177.04 272.202 175.746L272.234 175.807L270.943 174.824L270.94 174.822L270.939 174.82L270.934 174.815L270.986 174.763L270.991 174.768L270.987 174.764L272.325 175.682L272.356 175.703L272.357 175.744C272.351 177.067 272.119 178.379 271.669 179.624C271.241 180.868 270.736 182.084 270.156 183.265C269.587 184.45 268.964 185.606 268.309 186.742L267.316 188.437L266.818 189.278L266.578 189.696L266.47 189.9C266.454 189.928 266.44 189.957 266.428 189.988L266.413 190.023C266.421 189.999 266.425 189.975 266.424 189.95C266.423 189.925 266.417 189.901 266.407 189.879L266.421 189.975C266.42 190.004 266.417 190.033 266.41 190.061C266.401 190.102 266.388 190.142 266.37 190.18C266.352 190.212 266.331 190.243 266.309 190.271C266.278 190.311 266.244 190.349 266.208 190.384C266.147 190.444 266.089 190.496 266.032 190.543C265.917 190.64 265.804 190.727 265.691 190.813L265.007 191.308L263.632 192.255C262.712 192.875 261.793 193.493 260.907 194.142C260.469 194.458 260.048 194.796 259.645 195.156C259.298 195.52 259.032 195.954 258.867 196.428C258.472 197.438 258.17 198.483 257.965 199.548C257.738 200.617 257.584 201.699 257.504 202.789C257.409 203.866 257.439 204.951 257.593 206.022C257.668 206.533 257.825 207.028 258.059 207.489C258.183 207.701 258.328 207.9 258.494 208.082C258.66 208.248 258.822 208.32 258.912 208.289C259.087 208.204 259.228 208.063 259.312 207.888C259.44 207.665 259.546 207.431 259.629 207.189C259.803 206.682 259.934 206.161 260.022 205.632L260.081 205.289L260.425 205.399C260.662 205.498 260.92 205.538 261.176 205.514C261.421 205.477 261.647 205.361 261.82 205.184C262.192 204.763 262.441 204.248 262.54 203.695L262.587 203.482L262.789 203.484C263.195 203.465 263.583 203.305 263.883 203.031C264.215 202.749 264.499 202.417 264.725 202.046L264.765 201.982L264.82 201.958C265.064 201.821 265.259 201.612 265.377 201.359C265.525 201.089 265.644 200.804 265.732 200.509C265.915 199.904 266.056 199.287 266.153 198.662L266.303 197.715C266.33 197.377 266.432 197.048 266.602 196.753C266.988 196.208 267.504 195.769 268.104 195.474L268.071 195.497L268.076 195.493L268.079 195.489L268.084 195.485L270.142 193.707C270.834 193.121 271.47 192.473 272.131 191.854L273.114 190.915L274.061 189.94C274.691 189.289 275.314 188.632 275.901 187.942C278.31 185.249 280.453 182.33 282.302 179.226C283.216 177.677 284.011 176.061 284.68 174.392C284.999 173.552 285.298 172.707 285.547 171.84L285.737 171.189C285.777 171.028 285.762 170.858 285.695 170.706C285.512 170.343 285.241 170.031 284.908 169.796C284.193 169.269 283.42 168.825 282.604 168.472C281.786 168.097 280.945 167.767 280.093 167.461C278.395 166.836 276.658 166.31 274.91 165.819L274.919 165.82L274.914 165.82L274.913 165.746Z" fill="black"/>
<path d="M260.068 205.673L260.314 202.233L260.559 205.673H260.068Z" fill="black"/>
<path d="M262.541 203.732L262.786 201.792L263.031 203.732H262.541Z" fill="black"/>
<path d="M264.66 202.145L264.905 200.998L265.15 202.145H264.66Z" fill="black"/>
<path d="M258.098 208.149L226.157 249.422C225.856 249.073 225.527 248.748 225.175 248.451C223.057 247.347 223.764 250.481 223.764 250.481C221.773 249.641 222.746 252.729 222.746 252.729C221.351 252.225 221.386 253.278 221.6 254.118C221.669 254.379 221.798 254.622 221.977 254.824L166.035 327.112L158.092 337.377L155.765 335.581L163.708 325.311L257.1 204.634C257.08 205.732 257.336 206.818 257.843 207.793C257.935 207.93 258.021 208.047 258.098 208.149Z" fill="black"/>
<path d="M163.899 325.464L155.956 335.731L157.896 337.229L165.839 326.962L163.899 325.464Z" fill="black"/>
<path d="M128.076 340.182C129.714 340.44 131.32 340.684 132.929 340.911L137.675 341.57C139.24 341.785 140.792 341.985 142.323 342.226L146.931 342.948L146.759 342.955C149.743 342.16 152.736 341.399 155.738 340.675L164.76 338.561C167.766 337.85 170.766 337.118 173.75 336.323C176.741 335.553 179.72 334.738 182.698 333.92L182.751 334.459C178.895 334.334 175.04 334.186 171.187 334.014L159.627 333.474L159.771 333.461C157.179 334.062 154.588 334.64 151.998 335.195C149.412 335.762 146.792 336.278 144.167 336.82L136.195 338.448C133.519 339.005 130.803 339.58 128.076 340.182ZM127.978 340.184C130.521 339.582 133.077 338.951 135.672 338.303L143.515 336.316C146.16 335.653 148.812 334.964 151.497 334.326C154.173 333.675 156.854 333.047 159.538 332.444L159.612 332.428L159.683 332.432L171.234 333.124C175.084 333.367 178.933 333.63 182.781 333.912L184.553 334.044L182.834 334.45C179.828 335.161 176.823 335.876 173.83 336.634C170.83 337.368 167.846 338.165 164.868 338.982L155.938 341.456C152.957 342.262 149.966 343.031 146.965 343.761L146.875 343.783L146.792 343.768L141.983 342.903C140.374 342.614 138.788 342.286 137.213 341.972L132.541 341.043C131.012 340.74 129.478 340.456 127.978 340.184H127.978Z" fill="black"/>
<path d="M140.662 338.685L151.477 340.281L172.093 335.67L158.823 335.05L140.662 338.685Z" fill="black"/>
<path d="M134.38 293.93C134.003 298.715 133.532 303.489 133.038 308.261C132.512 313.029 132.028 317.801 131.402 322.558L130.435 329.689L130.191 331.471C130.13 332.086 129.987 332.689 129.765 333.266C129.319 334.428 128.529 335.426 127.5 336.127C126.479 336.83 125.27 337.21 124.03 337.217L120.428 337.239C118.028 337.241 115.627 337.304 113.226 337.335C110.826 337.374 108.425 337.434 106.025 337.456L102.423 337.498C101.12 337.503 99.8463 337.11 98.7735 336.371C97.7006 335.632 96.8796 334.583 96.4205 333.365C96.3054 333.061 96.2129 332.749 96.1435 332.432C96.0853 332.109 96.0331 331.79 96.0027 331.501L95.7819 329.716L94.9363 322.571C93.8737 313.037 92.8749 303.495 92.0725 293.93L92.1699 293.919C93.5907 303.411 94.8151 312.927 95.9756 322.45L96.7974 329.598L96.9934 331.386C97.0219 331.694 97.0655 331.967 97.1085 332.235C97.1639 332.504 97.2388 332.769 97.3327 333.028C97.7086 334.074 98.3983 334.979 99.3079 335.619C100.221 336.264 101.307 336.617 102.424 336.634L106.025 336.678C108.425 336.7 110.826 336.759 113.226 336.798C115.627 336.829 118.028 336.892 120.428 336.894L124.029 336.915C125.207 336.913 126.356 336.547 127.318 335.867C128.276 335.191 129 334.233 129.387 333.126C129.575 332.574 129.687 331.999 129.719 331.416L129.892 329.625L130.591 322.463C131.077 317.691 131.705 312.935 132.291 308.174C132.908 303.417 133.549 298.662 134.283 293.919L134.38 293.93Z" fill="black"/>
<path d="M138.068 294.48H88.3852C87.6675 294.48 86.9792 294.195 86.4718 293.688C85.9643 293.181 85.6792 292.493 85.6792 291.776C85.6792 291.06 85.9643 290.372 86.4718 289.865C86.9792 289.358 87.6675 289.073 88.3852 289.073H138.068C138.785 289.073 139.473 289.358 139.981 289.865C140.488 290.372 140.773 291.06 140.773 291.776C140.773 292.493 140.488 293.181 139.981 293.688C139.473 294.195 138.785 294.48 138.068 294.48V294.48Z" fill="#276EF1"/>
<path d="M95.3523 321.623L101.578 314.509C102.602 313.315 103.646 312.143 104.653 310.938C105.669 309.742 106.69 308.551 107.671 307.329C109.667 304.912 111.589 302.439 113.401 299.892C114.294 298.61 115.167 297.313 115.964 295.968C116.784 294.629 117.497 293.227 118.097 291.776C117.756 293.33 117.238 294.84 116.553 296.276C115.877 297.717 115.119 299.117 114.283 300.471C113.463 301.834 112.546 303.131 111.628 304.425C110.695 305.709 109.71 306.951 108.717 308.185C106.695 310.624 104.58 312.981 102.349 315.223C100.138 317.485 97.802 319.621 95.3523 321.623ZM269.085 251.661C269.425 246.943 269.484 242.209 269.264 237.484C268.87 228.049 267.764 218.658 265.954 209.39C266.672 214.049 267.252 218.729 267.665 223.419C268.108 228.109 268.408 232.809 268.515 237.509C268.525 238.684 268.566 239.859 268.556 241.035L268.541 244.56L268.418 248.08C268.388 249.255 268.266 250.425 268.194 251.595C268.133 252.765 267.981 253.929 267.853 255.094L267.466 258.609C267.166 260.964 267.069 263.33 266.916 265.69C266.784 270.415 266.769 275.141 266.927 279.862C266.972 282.222 267.105 284.577 267.196 286.932C267.329 289.287 267.441 291.647 267.629 293.998C267.955 298.703 268.378 303.398 268.826 308.093C269.315 312.778 269.824 317.457 270.46 322.122C267.473 322.171 264.486 322.018 261.519 321.664C261.519 321.664 259.401 296.907 259.167 276.911C258.933 256.92 254.223 245.862 254.223 245.862C253.846 244.285 253.378 242.731 252.823 241.207C252.324 239.779 251.749 238.378 251.102 237.011C251.254 237.082 251.407 237.158 251.56 237.23C252.054 237.459 252.553 237.667 253.052 237.881C253.556 238.079 254.06 238.278 254.574 238.456C253.632 237.911 252.675 237.413 251.728 236.894L248.892 235.332L246.076 233.745C245.603 233.481 245.139 233.206 244.676 232.926C244.202 232.662 243.744 232.382 243.276 232.102C244.098 232.812 244.967 233.467 245.877 234.061C246.774 234.671 247.71 235.225 248.652 235.76C249.437 236.187 250.226 236.594 251.03 236.975C251.8 240.035 252.87 243.011 254.223 245.862L249.045 264.683C247.161 283.265 237.033 313.368 235.149 319.487C233.265 325.601 218.199 316.898 218.199 316.898C226.595 292.258 233.775 253.548 236.911 235.276C238.164 233.872 239.365 232.443 240.572 231.003C241.774 229.564 242.94 228.099 244.126 226.644C245.282 225.169 246.458 223.704 247.599 222.214C248.739 220.728 249.874 219.233 250.964 217.707C249.717 219.106 248.505 220.54 247.303 221.98C246.102 223.419 244.93 224.889 243.744 226.339C242.588 227.814 241.417 229.279 240.277 230.77C239.136 232.26 238.001 233.745 236.911 235.276C237.313 232.936 237.644 230.937 237.909 229.34C240.166 227.085 242.186 224.605 243.938 221.939C242.801 223.058 241.73 224.242 240.73 225.484C239.717 226.715 238.775 228.003 237.909 229.34C238.357 226.619 238.596 225.077 238.596 225.077L270.822 205.672C275.292 212.946 276.591 231.283 274.233 240.455C271.881 249.626 273.057 260.684 273.057 260.684C276.351 276.677 276.591 320.662 276.591 320.662C275.593 321.659 273.123 322.035 270.465 322.122C270.048 317.432 269.63 312.747 269.304 308.052C268.953 303.352 268.617 298.652 268.383 293.952C267.874 284.546 267.548 275.126 267.899 265.731C268.031 263.386 268.113 261.035 268.398 258.711L268.76 255.196C268.887 254.021 269.029 252.846 269.085 251.661Z" fill="#276EF1"/>
<path d="M219.541 317.62C218.406 320.907 216.731 323.981 214.586 326.719C213.498 328.093 212.262 329.343 210.899 330.447C209.522 331.561 207.962 332.429 206.288 333.012C205.437 333.292 204.594 333.475 203.759 333.68L201.244 334.277C200.406 334.475 199.57 334.674 198.74 334.891C197.917 335.082 197.123 335.38 196.378 335.777C196.036 335.976 195.785 336.301 195.679 336.683C195.61 337.091 195.604 337.508 195.663 337.918C195.683 338.129 195.717 338.342 195.743 338.554C195.761 338.737 195.842 338.908 195.971 339.038C196.272 339.311 196.628 339.518 197.015 339.644C197.816 339.925 198.646 340.118 199.489 340.22C200.335 340.337 201.188 340.418 202.042 340.473C205.469 340.637 208.901 340.624 212.327 340.436C214.039 340.351 215.75 340.225 217.45 340.044C219.136 339.896 220.808 339.627 222.455 339.24C222.644 339.189 222.831 339.129 223.014 339.058C223.157 339.013 223.289 338.939 223.404 338.843C223.656 338.602 223.849 338.305 223.968 337.977C224.142 337.217 224.135 336.427 223.948 335.67C223.639 334.019 223.204 332.254 223.376 330.452C223.472 329.566 223.685 328.696 224.01 327.866C224.309 327.048 224.656 326.247 225.049 325.469C225.825 323.922 226.717 322.436 227.716 321.023L227.799 321.077C226.944 322.564 226.176 324.1 225.499 325.676C225.16 326.455 224.866 327.254 224.619 328.067C224.365 328.86 224.205 329.679 224.141 330.509C224.041 332.161 224.492 333.786 224.876 335.491C225.131 336.404 225.147 337.367 224.924 338.289C224.76 338.776 224.484 339.218 224.118 339.579C223.912 339.771 223.669 339.92 223.405 340.017C223.188 340.105 222.966 340.181 222.74 340.246C221.886 340.473 221.018 340.645 220.141 340.762C219.278 340.887 218.414 340.987 217.55 341.06C215.822 341.211 214.093 341.304 212.364 341.357C208.904 341.484 205.439 341.367 201.995 341.008C200.258 340.86 198.545 340.51 196.89 339.965C196.458 339.815 196.063 339.574 195.734 339.258C195.563 339.076 195.457 338.842 195.432 338.594C195.409 338.378 195.378 338.166 195.362 337.948C195.308 337.504 195.315 337.055 195.384 336.613C195.504 336.155 195.796 335.761 196.201 335.513C196.964 335.078 197.779 334.739 198.626 334.505C199.45 334.24 200.277 333.994 201.104 333.75L203.581 333.018C204.408 332.772 205.237 332.532 206.012 332.244C209.144 330.956 211.895 328.89 214.004 326.243C215.102 324.938 216.104 323.555 217.002 322.105C217.912 320.652 218.729 319.143 219.449 317.586L219.541 317.62ZM267.803 322.112C267.962 322.744 268.044 323.393 268.047 324.045C268.053 324.37 268.053 324.697 268.028 325.022C268.014 325.348 267.981 325.674 267.931 325.997C267.742 327.293 267.401 328.562 266.913 329.778C265.897 332.19 264.461 334.404 262.671 336.315C262.238 336.812 261.785 337.234 261.383 337.721C260.972 338.19 260.604 338.695 260.283 339.23C259.962 339.744 259.77 340.327 259.723 340.931C259.726 341.225 259.801 341.515 259.941 341.774C260.08 342.034 260.281 342.256 260.525 342.421C261.04 342.772 261.621 343.017 262.233 343.141C262.852 343.279 263.481 343.365 264.115 343.397C265.391 343.436 266.669 343.406 267.942 343.31C269.176 343.241 270.376 342.88 271.443 342.256C271.699 342.099 271.943 341.922 272.172 341.727C272.411 341.53 272.59 341.331 272.853 341.085C273.349 340.613 273.91 340.215 274.519 339.903C275.118 339.598 275.746 339.352 276.393 339.169C277.02 338.98 277.665 338.837 278.185 338.628L278.362 338.545C278.39 338.519 278.421 338.497 278.454 338.48C278.48 338.443 278.51 338.409 278.542 338.376C278.57 338.336 278.594 338.284 278.623 338.24C278.734 338.008 278.803 337.758 278.827 337.502C278.883 336.919 278.848 336.331 278.72 335.759C278.604 335.166 278.421 334.589 278.176 334.037C278.051 333.762 277.912 333.494 277.76 333.233C277.689 333.118 277.601 332.921 277.526 332.765L277.41 332.518L277.331 332.273C276.961 331.007 276.726 329.705 276.631 328.389C276.423 325.818 276.393 323.236 276.54 320.661H276.638C276.823 323.221 277.025 325.781 277.393 328.299C277.54 329.54 277.816 330.762 278.217 331.946L278.295 332.155L278.394 332.338C278.468 332.467 278.505 332.567 278.604 332.725C278.781 333.014 278.944 333.313 279.091 333.619C279.38 334.236 279.6 334.883 279.745 335.548C279.9 336.231 279.941 336.934 279.865 337.63C279.825 338.014 279.716 338.387 279.543 338.731C279.491 338.825 279.434 338.916 279.372 339.004C279.296 339.09 279.217 339.176 279.136 339.257C279.037 339.329 278.934 339.398 278.829 339.461L278.567 339.575C277.886 339.825 277.265 339.935 276.659 340.104C276.066 340.255 275.488 340.463 274.934 340.726C274.393 340.989 273.89 341.324 273.439 341.721C273.224 341.902 272.955 342.167 272.688 342.366C272.419 342.575 272.133 342.763 271.834 342.928C270.643 343.554 269.312 343.87 267.966 343.846L266.03 343.826C265.384 343.812 264.736 343.786 264.09 343.729C263.442 343.675 262.798 343.575 262.163 343.431C261.513 343.297 260.894 343.042 260.339 342.678C260.045 342.488 259.8 342.232 259.623 341.931C259.446 341.63 259.342 341.291 259.32 340.942C259.318 340.258 259.482 339.583 259.799 338.977C260.426 337.826 261.185 336.752 262.059 335.775C263.719 333.871 265.116 331.753 266.214 329.479C266.73 328.33 267.133 327.133 267.417 325.906C267.714 324.672 267.812 323.399 267.707 322.135L267.803 322.112ZM226.177 249.406C226.412 249.586 226.619 249.799 226.794 250.038C226.987 250.29 227.111 250.588 227.155 250.903C227.176 251.081 227.149 251.261 227.077 251.424C227.005 251.588 226.891 251.73 226.746 251.834C226.478 251.999 226.178 252.103 225.865 252.137L225.946 251.975C226.025 252.23 226.035 252.502 225.975 252.763C225.937 252.896 225.868 253.017 225.774 253.118C225.68 253.218 225.563 253.295 225.434 253.342C224.937 253.511 224.405 253.546 223.891 253.443L224.166 253.151C224.267 253.492 224.319 253.845 224.319 254.2C224.328 254.399 224.297 254.596 224.227 254.782C224.158 254.968 224.052 255.138 223.915 255.282C223.758 255.427 223.558 255.517 223.345 255.538C223.155 255.557 222.964 255.538 222.781 255.484C222.434 255.383 222.14 255.153 221.958 254.841L221.996 254.808C222.24 255.004 222.536 255.124 222.847 255.153C222.975 255.172 223.106 255.162 223.23 255.123C223.354 255.084 223.468 255.018 223.562 254.93C223.713 254.711 223.789 254.449 223.777 254.184C223.791 253.879 223.768 253.573 223.709 253.273L223.637 252.912L223.984 252.981C224.43 253.116 224.897 253.165 225.36 253.125C225.469 253.11 225.571 253.064 225.654 252.993C225.736 252.921 225.797 252.827 225.827 252.722C225.878 252.5 225.842 252.266 225.727 252.069L225.668 251.963L225.808 251.906C226.054 251.818 226.281 251.682 226.475 251.507C226.554 251.434 226.616 251.345 226.658 251.246C226.7 251.147 226.721 251.041 226.718 250.933C226.697 250.678 226.629 250.428 226.516 250.198C226.407 249.946 226.274 249.696 226.138 249.439L226.177 249.406Z" fill="black"/>
<path d="M222.747 252.729C222.97 252.648 223.216 252.653 223.435 252.745C223.502 252.712 223.578 252.701 223.651 252.712C223.725 252.723 223.794 252.756 223.849 252.807C223.903 252.857 223.941 252.924 223.957 252.997C223.973 253.069 223.967 253.145 223.938 253.215C223.91 253.284 223.862 253.343 223.799 253.383C223.737 253.424 223.663 253.445 223.589 253.444C223.514 253.442 223.442 253.418 223.381 253.374C223.321 253.33 223.275 253.269 223.25 253.199C223.029 253.111 222.849 252.944 222.747 252.729V252.729ZM223.762 250.48C224.192 250.588 224.595 250.784 224.946 251.056C225.307 251.313 225.611 251.642 225.837 252.024C225.406 251.917 225.003 251.721 224.653 251.448C224.292 251.191 223.989 250.861 223.762 250.48Z" fill="black"/>
</svg>
