<svg width="414" height="383" viewBox="0 0 414 383" fill="none" xmlns="http://www.w3.org/2000/svg">
<path d="M217 11.5C217 9.96218 216.678 8.44316 216.058 7.05029L212.012 9.03752C212.356 9.80833 212.534 10.649 212.534 11.5H217Z" fill="#276EF1" stroke="#276EF1"/>
<path d="M216.058 7.05034C215.45 5.68702 214.571 4.47677 213.479 3.50162C212.387 2.52647 211.108 1.80923 209.729 1.3985C208.35 0.98777 206.903 0.893161 205.486 1.12108C204.069 1.34901 202.715 1.89413 201.516 2.71951L203.965 6.64089C204.629 6.18413 205.378 5.88246 206.162 5.75633C206.946 5.6302 207.747 5.68255 208.51 5.90985C209.273 6.13715 209.981 6.53407 210.585 7.07371C211.19 7.61336 211.676 8.28311 212.013 9.03757L216.058 7.05034Z" fill="#276EF1" stroke="#276EF1"/>
<path d="M201.516 2.71948C200.069 3.71634 198.892 5.09078 198.102 6.70831C197.312 8.32584 196.935 10.131 197.009 11.9472C197.083 13.7634 197.604 15.5284 198.523 17.0695C199.441 18.6105 200.725 19.8748 202.248 20.7387C203.771 21.6025 205.482 22.0363 207.213 21.9976C208.944 21.9589 210.636 21.449 212.122 20.5178C213.609 19.5866 214.841 18.266 215.696 16.6853C216.551 15.1045 217 13.3178 217 11.5H212.534C212.534 12.506 212.285 13.4947 211.812 14.3695C211.339 15.2443 210.658 15.9751 209.835 16.4904C209.012 17.0057 208.076 17.2879 207.118 17.3093C206.16 17.3308 205.213 17.0907 204.37 16.6127C203.527 16.1346 202.817 15.4349 202.309 14.5821C201.8 13.7293 201.512 12.7526 201.471 11.7475C201.43 10.7424 201.639 9.74341 202.076 8.84827C202.513 7.95314 203.164 7.19252 203.965 6.64087L201.516 2.71948Z" fill="#276EF1" stroke="#276EF1"/>
<rect x="196" y="24" width="22" height="4" fill="#276EF1"/>
<path d="M174.43 44.24C174.43 43.68 174.543 43.19 174.77 42.77C174.997 42.3433 175.307 42.0133 175.7 41.78C176.1 41.5467 176.543 41.43 177.03 41.43C177.51 41.43 177.927 41.5333 178.28 41.74C178.633 41.9467 178.897 42.2067 179.07 42.52V41.52H179.99V47H179.07V45.98C178.89 46.3 178.62 46.5667 178.26 46.78C177.907 46.9867 177.493 47.09 177.02 47.09C176.533 47.09 176.093 46.97 175.7 46.73C175.307 46.49 174.997 46.1533 174.77 45.72C174.543 45.2867 174.43 44.7933 174.43 44.24ZM179.07 44.25C179.07 43.8367 178.987 43.4767 178.82 43.17C178.653 42.8633 178.427 42.63 178.14 42.47C177.86 42.3033 177.55 42.22 177.21 42.22C176.87 42.22 176.56 42.3 176.28 42.46C176 42.62 175.777 42.8533 175.61 43.16C175.443 43.4667 175.36 43.8267 175.36 44.24C175.36 44.66 175.443 45.0267 175.61 45.34C175.777 45.6467 176 45.8833 176.28 46.05C176.56 46.21 176.87 46.29 177.21 46.29C177.55 46.29 177.86 46.21 178.14 46.05C178.427 45.8833 178.653 45.6467 178.82 45.34C178.987 45.0267 179.07 44.6633 179.07 44.25ZM182.438 39.6V47H181.528V39.6H182.438ZM184.899 42.54C185.085 42.2133 185.359 41.9467 185.719 41.74C186.079 41.5333 186.489 41.43 186.949 41.43C187.442 41.43 187.885 41.5467 188.279 41.78C188.672 42.0133 188.982 42.3433 189.209 42.77C189.435 43.19 189.549 43.68 189.549 44.24C189.549 44.7933 189.435 45.2867 189.209 45.72C188.982 46.1533 188.669 46.49 188.269 46.73C187.875 46.97 187.435 47.09 186.949 47.09C186.475 47.09 186.059 46.9867 185.699 46.78C185.345 46.5733 185.079 46.31 184.899 45.99V47H183.989V39.6H184.899V42.54ZM188.619 44.24C188.619 43.8267 188.535 43.4667 188.369 43.16C188.202 42.8533 187.975 42.62 187.689 42.46C187.409 42.3 187.099 42.22 186.759 42.22C186.425 42.22 186.115 42.3033 185.829 42.47C185.549 42.63 185.322 42.8667 185.149 43.18C184.982 43.4867 184.899 43.8433 184.899 44.25C184.899 44.6633 184.982 45.0267 185.149 45.34C185.322 45.6467 185.549 45.8833 185.829 46.05C186.115 46.21 186.425 46.29 186.759 46.29C187.099 46.29 187.409 46.21 187.689 46.05C187.975 45.8833 188.202 45.6467 188.369 45.34C188.535 45.0267 188.619 44.66 188.619 44.24ZM195.607 41.52V47H194.697V46.19C194.523 46.47 194.28 46.69 193.967 46.85C193.66 47.0033 193.32 47.08 192.947 47.08C192.52 47.08 192.137 46.9933 191.797 46.82C191.457 46.64 191.187 46.3733 190.987 46.02C190.793 45.6667 190.697 45.2367 190.697 44.73V41.52H191.597V44.61C191.597 45.15 191.733 45.5667 192.007 45.86C192.28 46.1467 192.653 46.29 193.127 46.29C193.613 46.29 193.997 46.14 194.277 45.84C194.557 45.54 194.697 45.1033 194.697 44.53V41.52H195.607ZM198.053 42.41C198.213 42.0967 198.44 41.8533 198.733 41.68C199.033 41.5067 199.396 41.42 199.823 41.42V42.36H199.583C198.563 42.36 198.053 42.9133 198.053 44.02V47H197.143V41.52H198.053V42.41ZM205.594 41.52L202.294 49.58H201.354L202.434 46.94L200.224 41.52H201.234L202.954 45.96L204.654 41.52H205.594ZM212.108 47.38V48.22H206.788V47.38H212.108ZM215.782 47.09C215.362 47.09 214.986 47.02 214.652 46.88C214.319 46.7333 214.056 46.5333 213.862 46.28C213.669 46.02 213.562 45.7233 213.542 45.39H214.482C214.509 45.6633 214.636 45.8867 214.862 46.06C215.096 46.2333 215.399 46.32 215.772 46.32C216.119 46.32 216.392 46.2433 216.592 46.09C216.792 45.9367 216.892 45.7433 216.892 45.51C216.892 45.27 216.786 45.0933 216.572 44.98C216.359 44.86 216.029 44.7433 215.582 44.63C215.176 44.5233 214.842 44.4167 214.582 44.31C214.329 44.1967 214.109 44.0333 213.922 43.82C213.742 43.6 213.652 43.3133 213.652 42.96C213.652 42.68 213.736 42.4233 213.902 42.19C214.069 41.9567 214.306 41.7733 214.612 41.64C214.919 41.5 215.269 41.43 215.662 41.43C216.269 41.43 216.759 41.5833 217.132 41.89C217.506 42.1967 217.706 42.6167 217.732 43.15H216.822C216.802 42.8633 216.686 42.6333 216.472 42.46C216.266 42.2867 215.986 42.2 215.632 42.2C215.306 42.2 215.046 42.27 214.852 42.41C214.659 42.55 214.562 42.7333 214.562 42.96C214.562 43.14 214.619 43.29 214.732 43.41C214.852 43.5233 214.999 43.6167 215.172 43.69C215.352 43.7567 215.599 43.8333 215.912 43.92C216.306 44.0267 216.626 44.1333 216.872 44.24C217.119 44.34 217.329 44.4933 217.502 44.7C217.682 44.9067 217.776 45.1767 217.782 45.51C217.782 45.81 217.699 46.08 217.532 46.32C217.366 46.56 217.129 46.75 216.822 46.89C216.522 47.0233 216.176 47.09 215.782 47.09ZM221.787 41.42C222.2 41.42 222.574 41.51 222.907 41.69C223.24 41.8633 223.5 42.1267 223.687 42.48C223.88 42.8333 223.977 43.2633 223.977 43.77V47H223.077V43.9C223.077 43.3533 222.94 42.9367 222.667 42.65C222.394 42.3567 222.02 42.21 221.547 42.21C221.067 42.21 220.684 42.36 220.397 42.66C220.117 42.96 219.977 43.3967 219.977 43.97V47H219.067V39.6H219.977V42.3C220.157 42.02 220.404 41.8033 220.717 41.65C221.037 41.4967 221.394 41.42 221.787 41.42ZM225.933 40.63C225.76 40.63 225.613 40.57 225.493 40.45C225.373 40.33 225.313 40.1833 225.313 40.01C225.313 39.8367 225.373 39.69 225.493 39.57C225.613 39.45 225.76 39.39 225.933 39.39C226.1 39.39 226.24 39.45 226.353 39.57C226.473 39.69 226.533 39.8367 226.533 40.01C226.533 40.1833 226.473 40.33 226.353 40.45C226.24 40.57 226.1 40.63 225.933 40.63ZM226.373 41.52V47H225.463V41.52H226.373ZM230.594 41.42C231.261 41.42 231.801 41.6233 232.214 42.03C232.628 42.43 232.834 43.01 232.834 43.77V47H231.934V43.9C231.934 43.3533 231.798 42.9367 231.524 42.65C231.251 42.3567 230.878 42.21 230.404 42.21C229.924 42.21 229.541 42.36 229.254 42.66C228.974 42.96 228.834 43.3967 228.834 43.97V47H227.924V41.52H228.834V42.3C229.014 42.02 229.258 41.8033 229.564 41.65C229.878 41.4967 230.221 41.42 230.594 41.42ZM239.321 44.05C239.321 44.2233 239.311 44.4067 239.291 44.6H234.911C234.944 45.14 235.127 45.5633 235.461 45.87C235.801 46.17 236.211 46.32 236.691 46.32C237.084 46.32 237.411 46.23 237.671 46.05C237.937 45.8633 238.124 45.6167 238.231 45.31H239.211C239.064 45.8367 238.771 46.2667 238.331 46.6C237.891 46.9267 237.344 47.09 236.691 47.09C236.171 47.09 235.704 46.9733 235.291 46.74C234.884 46.5067 234.564 46.1767 234.331 45.75C234.097 45.3167 233.981 44.8167 233.981 44.25C233.981 43.6833 234.094 43.1867 234.321 42.76C234.547 42.3333 234.864 42.0067 235.271 41.78C235.684 41.5467 236.157 41.43 236.691 41.43C237.211 41.43 237.671 41.5433 238.071 41.77C238.471 41.9967 238.777 42.31 238.991 42.71C239.211 43.1033 239.321 43.55 239.321 44.05ZM238.381 43.86C238.381 43.5133 238.304 43.2167 238.151 42.97C237.997 42.7167 237.787 42.5267 237.521 42.4C237.261 42.2667 236.971 42.2 236.651 42.2C236.191 42.2 235.797 42.3467 235.471 42.64C235.151 42.9333 234.967 43.34 234.921 43.86H238.381Z" fill="#276EF1"/>
<path d="M254.299 229.318C254.442 224.651 254.472 220.014 254.567 215.352C254.621 213.022 254.591 210.691 254.603 208.367C254.579 206.036 254.538 203.705 254.478 201.375C254.335 196.719 254.097 192.052 253.537 187.409C253.277 185.076 252.847 182.765 252.25 180.494C252.077 179.935 251.881 179.377 251.684 178.818L251.333 178.009L251.154 177.605L250.933 177.218C250.653 176.698 250.326 176.205 249.957 175.744L249.355 175.102L248.7 174.519C250.385 176.172 251.231 178.396 251.684 180.637C252.134 182.905 252.445 185.198 252.613 187.504C252.792 189.811 252.947 192.13 253.042 194.448L253.185 197.926L253.293 201.41L253.638 215.358C253.698 220.002 253.978 224.669 254.299 229.318C255.693 266.775 264.718 317.299 264.718 317.299C264.718 317.299 232.449 309.481 225.538 312.24C218.622 315.004 189.462 303.036 189.462 303.036C188.949 298.547 187.835 282.685 187.835 264.504C188.026 253.641 188.675 242.987 189.557 233.058C190.445 223.123 191.553 213.908 192.673 205.923C193.418 206.104 194.203 206.037 194.907 205.733C195.615 205.43 196.264 205.006 196.825 204.478C197.924 203.425 198.87 202.225 199.637 200.911C201.146 198.317 202.395 195.581 203.366 192.742C204.345 189.927 205.178 187.063 205.862 184.163C206.475 181.541 207.006 178.895 207.357 176.219C215.673 175.417 227.129 172.854 232.508 165.09C230.972 168.88 229.222 172.58 227.266 176.172C222.774 184.567 221.732 186.178 221.732 186.178C221.732 186.178 214.011 188.818 212.629 192.849C211.539 196.018 209.382 196.547 207.673 197.807C207.206 198.135 206.814 198.557 206.524 199.047C206.233 199.537 206.05 200.083 205.987 200.649C205.898 201.624 206.231 202.605 208.131 202.165C211.593 201.363 212.164 197.451 213.088 198.711C214.011 199.977 215.048 201.815 213.088 204.466C211.128 207.112 206.636 207.915 206.749 209.526C206.863 211.137 207.786 213.093 210.556 211.482C210.556 211.482 208.251 215.043 212.051 217.118C212.051 217.118 214.011 220.567 217.121 218.616C217.121 218.616 223.578 212.172 224.728 210.328C225.884 208.491 227.266 209.752 227.147 211.018C227.033 212.285 225.187 212.974 225.187 215.043V215.109C225.204 215.452 225.323 215.782 225.53 216.057C225.736 216.332 226.021 216.539 226.346 216.651C226.671 216.764 227.023 216.777 227.356 216.688C227.688 216.6 227.987 216.414 228.213 216.155C229.22 215.008 230.763 212.832 230.608 210.328C230.375 206.654 230.375 199.864 231.18 198.711C231.966 197.599 247.687 175.916 248.652 174.584L248.64 174.477C251.535 172.147 251.196 170.333 251.196 170.333L251.916 170.084C251.916 170.084 276.776 219.199 282.78 223.26C282.78 223.26 279.921 224.175 273.63 229.318C267.339 234.455 258.428 233.308 254.299 229.318ZM184.994 134.758C185.979 135.371 187.046 135.839 188.163 136.15C189.28 136.441 190.446 136.49 191.583 136.293C192.716 136.079 193.792 135.632 194.742 134.98C195.693 134.33 196.558 133.563 197.318 132.697C198.824 130.942 200.088 128.994 201.078 126.905C202.103 124.833 202.951 122.678 203.614 120.464L203.652 120.337L203.774 120.289C206.695 119.12 209.739 118.285 212.849 117.802C215.981 117.287 219.185 117.395 222.276 118.12C225.382 118.893 228.236 120.451 230.564 122.643C232.845 124.847 234.717 127.436 236.093 130.291C236.453 130.988 236.786 131.697 237.15 132.362C237.522 133.029 237.931 133.676 238.375 134.298C239.278 135.549 240.275 136.73 241.356 137.831C243.57 140.202 244.919 143.248 245.186 146.478C245.217 146.894 245.212 147.312 245.171 147.728C245.106 148.161 244.968 148.58 244.763 148.968C244.374 149.688 243.888 150.353 243.319 150.943C242.222 152.086 241.031 153.136 239.758 154.08C237.244 155.961 234.612 157.68 231.878 159.225L231.938 159.183C229.199 161.403 226.227 163.321 223.076 164.905L221.9 165.507C221.509 165.709 221.092 165.855 220.69 166.032L218.254 167.05C216.581 167.596 214.934 168.223 213.219 168.622C209.821 169.528 206.344 170.108 202.836 170.355C199.329 170.621 195.805 170.537 192.315 170.103L192.44 170.079C192.274 170.154 192.089 170.177 191.91 170.145C191.762 170.128 191.615 170.101 191.47 170.065C191.186 169.996 190.912 169.909 190.642 169.817C190.101 169.631 189.575 169.418 189.052 169.198C188.008 168.754 186.984 168.275 185.967 167.772L186.215 167.599L186.294 168.526L186.314 169.457C186.306 170.081 186.244 170.703 186.13 171.316C186.018 171.933 185.829 172.535 185.568 173.105C185.307 173.692 184.925 174.217 184.446 174.646L184.277 174.788L184.205 174.568C183.604 172.786 182.393 171.272 180.785 170.292C179.17 169.321 177.392 168.647 175.538 168.303C173.684 167.934 171.8 167.733 169.909 167.704C168.019 167.661 166.128 167.748 164.25 167.967L164.015 167.995L164.027 167.766C164.052 167.085 164.133 166.407 164.271 165.74C164.407 165.071 164.607 164.417 164.868 163.786C165.128 163.154 165.449 162.549 165.828 161.98C166.204 161.399 166.65 160.868 167.155 160.397L167.077 160.573C166.927 157.027 167.014 153.475 167.338 149.94C167.42 149.056 167.515 148.175 167.64 147.291C167.818 146.391 168.043 145.541 168.302 144.682C168.809 142.958 169.548 141.311 170.5 139.786C171.461 138.241 172.748 136.923 174.27 135.924C175.814 134.944 177.565 134.337 179.386 134.152C181.181 133.986 182.991 134.088 184.757 134.453C184.805 134.459 184.856 134.465 184.881 134.465L184.888 134.466C184.876 134.466 184.863 134.468 184.851 134.471L184.831 134.478L184.778 134.502C184.739 134.523 184.706 134.553 184.68 134.588C184.662 134.61 184.649 134.635 184.641 134.662L184.664 134.623L184.714 134.546C184.764 134.478 184.822 134.417 184.889 134.365C184.935 134.322 184.983 134.282 185.034 134.244C185.222 134.098 185.407 133.97 185.594 133.843C185.967 133.59 186.343 133.352 186.721 133.115C187.477 132.643 188.237 132.187 189.005 131.736L188.847 132.21C188.692 132.037 188.493 131.908 188.27 131.837C187.98 131.727 187.681 131.638 187.378 131.571C186.75 131.433 186.114 131.336 185.473 131.28L185.706 131.227C184.805 131.777 183.811 132.16 182.774 132.359C181.715 132.553 180.624 132.486 179.597 132.163C177.531 131.505 175.946 129.987 174.695 128.377C174.072 127.562 173.508 126.704 173.008 125.809C172.497 124.919 172.047 123.997 171.66 123.048C170.898 121.12 170.487 119.071 170.447 116.999L170.483 117.189C170.21 116.536 169.994 115.861 169.839 115.17C169.682 114.477 169.598 113.769 169.589 113.058C169.578 112.345 169.646 111.633 169.79 110.935C169.929 110.22 170.165 109.527 170.493 108.875L170.808 108.264L171.277 108.808C172.167 109.833 173.143 110.781 174.194 111.642C175.232 112.508 176.366 113.25 177.576 113.853C178.747 114.453 180.044 114.768 181.361 114.772C181.999 114.753 182.629 114.631 183.228 114.408C183.82 114.161 184.376 113.833 184.877 113.433L184.692 113.776C184.772 113.078 184.907 112.388 185.097 111.712C185.283 111.008 185.578 110.337 185.972 109.724C186.198 109.38 186.496 109.09 186.846 108.874C187.236 108.643 187.694 108.552 188.143 108.615C188.547 108.676 188.933 108.824 189.274 109.049C189.589 109.247 189.884 109.475 190.153 109.732C190.702 110.247 191.125 110.881 191.39 111.584C191.646 112.293 191.732 113.051 191.642 113.798C191.555 114.53 191.331 115.24 190.981 115.89C190.804 116.223 190.588 116.534 190.338 116.816C190.198 116.973 190.04 117.112 189.866 117.23C189.758 117.305 189.639 117.363 189.514 117.402C189.328 117.465 189.127 117.464 188.941 117.401L189.504 116.613C190.6 117.934 191.558 119.365 192.362 120.882C193.165 122.399 193.808 123.996 194.281 125.646C195.217 128.955 195.471 132.42 195.027 135.83L194.421 135.297C196.119 134.869 197.745 134.191 199.244 133.286C200.734 132.365 202.083 131.235 203.252 129.932C204.422 128.621 205.412 127.16 206.195 125.588C206.982 124.009 207.599 122.351 208.035 120.642L208.106 120.994C204.939 116.746 201.602 112.631 198.097 108.647C196.339 106.667 194.564 104.688 192.695 102.827C191.773 101.896 190.774 101.044 189.708 100.28C188.648 99.5344 187.457 98.9919 186.198 98.6806C183.634 98.1217 180.96 98.3623 178.538 99.3698C177.315 99.8527 176.155 100.479 175.081 101.235C173.972 101.944 172.92 102.739 171.936 103.612C169.939 105.342 168.458 107.587 167.655 110.101C167.463 110.728 167.32 111.369 167.226 112.019C167.156 112.672 167.132 113.329 167.155 113.986C167.196 115.303 167.475 116.601 167.978 117.82L167.929 117.78L171.021 118.549L170.998 118.642L167.894 117.924L167.859 117.916L167.845 117.885C167.312 116.654 167.006 115.336 166.943 113.996C166.909 113.327 166.922 112.657 166.983 111.99C167.067 111.325 167.203 110.668 167.389 110.024C168.169 107.439 169.646 105.118 171.659 103.315C172.645 102.408 173.706 101.585 174.83 100.856C175.925 100.073 177.108 99.4218 178.356 98.9164C180.87 97.8479 183.652 97.5762 186.326 98.1379C186.991 98.2957 187.64 98.5142 188.264 98.7907C188.883 99.076 189.477 99.4106 190.042 99.7912C191.144 100.565 192.178 101.431 193.133 102.379C195.044 104.25 196.834 106.212 198.618 108.186C202.171 112.146 205.556 116.248 208.773 120.494L208.892 120.651L208.844 120.845C208.408 122.618 207.785 124.34 206.983 125.98C206.179 127.63 205.157 129.166 203.946 130.547C201.516 133.354 198.274 135.342 194.667 136.238L193.969 136.419L194.06 135.706C194.482 132.427 194.234 129.097 193.33 125.917C192.874 124.334 192.254 122.803 191.481 121.347C190.707 119.892 189.785 118.52 188.731 117.252L189.293 116.463C189.145 116.43 189.229 116.465 189.312 116.393C189.416 116.32 189.511 116.236 189.594 116.14C189.789 115.918 189.957 115.674 190.094 115.413C190.382 114.876 190.567 114.29 190.638 113.685C190.712 113.093 190.643 112.492 190.436 111.932C190.23 111.372 189.892 110.869 189.452 110.466C189.062 110.053 188.561 109.76 188.008 109.623C187.764 109.606 187.52 109.661 187.308 109.782C187.095 109.903 186.923 110.084 186.813 110.303C186.194 111.402 185.816 112.62 185.705 113.877L185.676 114.099L185.52 114.22C184.934 114.686 184.285 115.066 183.591 115.349C182.884 115.61 182.139 115.753 181.386 115.772C179.911 115.767 178.458 115.414 177.147 114.739C175.869 114.098 174.671 113.309 173.577 112.389C172.482 111.485 171.465 110.49 170.54 109.413L171.323 109.346C171.043 109.911 170.839 110.51 170.717 111.128C170.584 111.759 170.52 112.403 170.528 113.049C170.534 113.696 170.608 114.34 170.749 114.972C170.889 115.607 171.084 116.228 171.333 116.829L171.368 116.919L171.37 117.019C171.406 118.971 171.788 120.901 172.498 122.72C173.239 124.544 174.211 126.266 175.391 127.844C176.576 129.381 178.045 130.78 179.852 131.366C180.766 131.63 181.727 131.693 182.668 131.552C183.61 131.411 184.509 131.069 185.306 130.549L185.416 130.484L185.539 130.497C186.217 130.561 186.89 130.67 187.553 130.822C187.895 130.9 188.231 131.004 188.558 131.132C188.735 131.203 188.905 131.291 189.065 131.395C189.268 131.521 189.433 131.701 189.541 131.914L189.692 132.21L189.383 132.388C188.62 132.828 187.858 133.276 187.107 133.736C186.732 133.967 186.358 134.199 185.997 134.44C185.817 134.56 185.636 134.683 185.474 134.808C185.435 134.835 185.398 134.866 185.363 134.898C185.334 134.921 185.276 134.975 185.302 134.949C185.303 134.945 185.303 134.942 185.302 134.938L185.3 134.932C185.284 134.963 185.266 134.992 185.246 135.02C185.214 135.06 185.175 135.093 185.132 135.119C185.109 135.133 185.085 135.144 185.06 135.151L185.02 135.162C184.994 135.168 184.968 135.172 184.942 135.175L184.866 135.175C184.797 135.172 184.728 135.166 184.659 135.155C182.952 134.784 181.198 134.669 179.457 134.813C177.734 134.973 176.072 135.533 174.604 136.447C173.147 137.388 171.912 138.635 170.985 140.099C170.049 141.574 169.318 143.169 168.812 144.84C168.551 145.671 168.323 146.535 168.151 147.367C168.024 148.234 167.923 149.111 167.837 149.988C167.495 153.499 167.388 157.029 167.516 160.555L167.52 160.658L167.438 160.732C166.962 161.174 166.541 161.673 166.184 162.216C165.817 162.761 165.505 163.34 165.252 163.946C164.997 164.552 164.801 165.18 164.666 165.823C164.53 166.467 164.448 167.121 164.42 167.779L164.197 167.578C166.097 167.368 168.008 167.29 169.918 167.345C171.829 167.386 173.733 167.6 175.606 167.984C177.494 168.347 179.302 169.045 180.944 170.046C182.61 171.063 183.868 172.628 184.502 174.472L184.262 174.395C184.695 173.994 185.041 173.51 185.278 172.97C185.526 172.423 185.704 171.846 185.808 171.255C185.916 170.66 185.973 170.058 185.978 169.454L185.955 168.545L185.873 167.639L185.846 167.331L186.121 167.466C187.131 167.96 188.155 168.433 189.191 168.868C189.71 169.084 190.232 169.292 190.76 169.471C191.024 169.56 191.29 169.644 191.555 169.706C191.684 169.738 191.815 169.761 191.947 169.776C192.048 169.794 192.151 169.789 192.248 169.76L192.301 169.726L192.374 169.736C194.1 169.957 195.838 170.072 197.578 170.078C198.449 170.09 199.321 170.057 200.191 170.046L202.8 169.887C206.272 169.606 209.71 168.993 213.066 168.059C214.758 167.646 216.38 167.009 218.025 166.453L220.419 165.423C220.814 165.244 221.224 165.096 221.607 164.892L222.759 164.286C225.842 162.691 228.748 160.776 231.427 158.571L231.46 158.546L231.487 158.53C234.182 156.994 236.776 155.288 239.253 153.423C240.484 152.504 241.635 151.483 242.696 150.372C243.209 149.838 243.648 149.236 244.001 148.584C244.162 148.282 244.27 147.955 244.321 147.616C244.352 147.256 244.354 146.893 244.326 146.533C244.067 143.497 242.803 140.633 240.734 138.392C239.635 137.262 238.623 136.051 237.706 134.769C237.247 134.12 236.825 133.446 236.441 132.75C236.059 132.046 235.733 131.342 235.38 130.653C234.057 127.873 232.25 125.349 230.044 123.197C227.816 121.081 225.079 119.572 222.097 118.817C219.1 118.083 215.986 117.949 212.936 118.42C209.865 118.866 206.855 119.659 203.964 120.783L204.124 120.608C203.43 122.846 202.548 125.021 201.487 127.11C200.446 129.213 199.128 131.169 197.568 132.924C196.776 133.796 195.877 134.564 194.893 135.212C193.904 135.866 192.79 136.307 191.621 136.506C190.454 136.688 189.261 136.619 188.123 136.302C186.998 135.968 185.927 135.476 184.943 134.84L184.994 134.758Z" fill="#276EF1"/>
<path d="M184.994 134.758C185.982 135.363 187.051 135.824 188.169 136.127C189.283 136.409 190.444 136.449 191.575 136.245C192.699 136.025 193.764 135.574 194.702 134.919C195.643 134.266 196.501 133.502 197.257 132.642C198.757 130.892 200.016 128.949 201 126.866C202.011 124.794 202.851 122.643 203.515 120.436L203.569 120.258L203.737 120.193C206.666 119.024 209.719 118.192 212.836 117.712C215.98 117.196 219.195 117.311 222.294 118.052C225.403 118.843 228.256 120.418 230.579 122.627C232.842 124.847 234.687 127.454 236.025 130.326C236.377 131.026 236.7 131.738 237.059 132.411C237.425 133.087 237.829 133.742 238.267 134.373C239.159 135.64 240.145 136.838 241.217 137.956C243.362 140.317 244.667 143.318 244.927 146.494C244.956 146.894 244.951 147.295 244.911 147.693C244.849 148.097 244.72 148.488 244.527 148.849C244.147 149.547 243.673 150.19 243.12 150.761C242.029 151.888 240.852 152.928 239.598 153.872C237.102 155.757 234.488 157.481 231.771 159.033L231.798 159.015C229.092 161.257 226.155 163.206 223.037 164.828L221.871 165.444C221.483 165.651 221.068 165.802 220.668 165.984L218.247 167.032C216.583 167.599 214.942 168.247 213.231 168.668C209.838 169.62 206.362 170.246 202.85 170.538L200.212 170.701C199.331 170.71 198.45 170.741 197.568 170.728C195.797 170.716 194.028 170.599 192.27 170.376L192.583 170.316C192.367 170.425 192.121 170.462 191.882 170.422C191.721 170.404 191.562 170.376 191.404 170.338C191.106 170.268 190.826 170.18 190.549 170.087C189.997 169.901 189.465 169.689 188.937 169.47C187.882 169.028 186.854 168.554 185.826 168.053L186.527 167.562L186.614 168.507L186.639 169.461C186.634 170.104 186.574 170.745 186.459 171.378C186.346 172.024 186.152 172.654 185.881 173.251C185.739 173.556 185.572 173.848 185.382 174.125C185.181 174.428 184.937 174.7 184.657 174.932L184.1 175.389L183.866 174.677C183.287 172.975 182.128 171.53 180.591 170.593C179.015 169.638 177.28 168.973 175.469 168.629C173.635 168.257 171.772 168.05 169.901 168.013C168.027 167.963 166.151 168.042 164.288 168.25L163.707 168.316L163.741 167.756C163.772 167.06 163.862 166.367 164.008 165.685C164.154 165.001 164.365 164.334 164.638 163.69C164.909 163.046 165.243 162.43 165.636 161.851C166.028 161.257 166.492 160.713 167.018 160.233L166.864 160.582C166.762 157.449 166.843 154.313 167.104 151.19C167.172 150.41 167.245 149.63 167.339 148.851L167.494 147.685C167.525 147.485 167.544 147.306 167.591 147.089L167.73 146.507C168.101 144.971 168.619 143.474 169.277 142.036C169.934 140.589 170.807 139.25 171.866 138.065C172.933 136.878 174.241 135.932 175.703 135.29C177.161 134.665 178.726 134.328 180.312 134.3C181.098 134.28 181.884 134.319 182.665 134.415C183.054 134.462 183.442 134.522 183.827 134.591L184.403 134.697L184.69 134.748C184.737 134.756 184.786 134.764 184.832 134.767C184.871 134.781 184.945 134.755 184.924 134.781L185.013 134.817C184.916 134.906 184.878 134.857 184.824 134.868C184.773 134.865 184.725 134.858 184.675 134.852L184.384 134.809L183.806 134.719C183.421 134.662 183.034 134.614 182.647 134.579C181.874 134.506 181.097 134.49 180.322 134.532C178.776 134.604 177.26 134.976 175.856 135.626C174.47 136.288 173.235 137.229 172.227 138.388C171.227 139.554 170.411 140.864 169.805 142.275C169.193 143.688 168.717 145.156 168.386 146.66L168.264 147.218C168.23 147.382 168.21 147.591 168.185 147.777L168.056 148.931C167.974 149.702 167.91 150.475 167.853 151.248C167.632 154.343 167.591 157.447 167.73 160.546L167.739 160.745L167.576 160.895C167.12 161.329 166.717 161.815 166.377 162.344C166.024 162.879 165.724 163.448 165.483 164.042C165.24 164.635 165.054 165.25 164.929 165.879C164.802 166.508 164.728 167.146 164.706 167.788L164.16 167.295C166.073 167.075 168 166.988 169.926 167.035C171.857 167.069 173.782 167.277 175.675 167.657C177.607 168.021 179.457 168.728 181.138 169.745C182.875 170.805 184.186 172.439 184.841 174.363L184.051 174.108C184.24 173.942 184.406 173.752 184.547 173.544C184.705 173.315 184.845 173.075 184.965 172.824C185.203 172.303 185.376 171.755 185.478 171.192C185.586 170.617 185.645 170.034 185.653 169.45L185.636 168.564L185.561 167.675L185.487 166.799L186.262 167.184C187.261 167.68 188.281 168.159 189.306 168.596C189.819 168.813 190.336 169.022 190.853 169.201C191.11 169.289 191.37 169.372 191.62 169.433C191.737 169.462 191.856 169.484 191.975 169.499C192.074 169.523 192.206 169.482 192.106 169.523L192.419 169.463C195.858 169.887 199.331 169.967 202.786 169.704C206.255 169.468 209.693 168.901 213.054 168.012C214.75 167.621 216.378 167.006 218.032 166.47L220.44 165.471C220.838 165.297 221.251 165.153 221.637 164.954L222.799 164.363C225.914 162.806 228.854 160.921 231.568 158.739L231.584 158.727L231.595 158.721C234.307 157.192 236.918 155.492 239.413 153.631C240.663 152.71 241.828 151.681 242.895 150.554C243.424 150 243.875 149.378 244.238 148.703C244.411 148.374 244.527 148.018 244.58 147.65C244.614 147.273 244.615 146.893 244.585 146.516C244.466 144.98 244.076 143.478 243.434 142.077C242.787 140.68 241.923 139.394 240.873 138.266C239.765 137.153 238.742 135.959 237.813 134.693C237.349 134.053 236.921 133.388 236.532 132.7C236.144 132.005 235.81 131.304 235.448 130.618C234.747 129.245 233.947 127.923 233.054 126.664C232.16 125.419 231.147 124.263 230.029 123.213C227.796 121.113 225.058 119.622 222.08 118.885C219.09 118.167 215.988 118.039 212.948 118.51C209.886 118.959 206.884 119.754 204.002 120.879L204.224 120.636C203.53 122.88 202.64 125.06 201.564 127.148C200.518 129.258 199.195 131.219 197.629 132.978C196.834 133.857 195.927 134.628 194.932 135.273C193.932 135.924 192.808 136.36 191.63 136.554C190.456 136.729 189.258 136.651 188.116 136.325C186.993 135.983 185.924 135.483 184.943 134.839L184.994 134.758Z" fill="black"/>
<path d="M170.908 117.009C168.987 112.484 170.908 109.11 170.908 109.11C170.908 109.11 178.975 118.887 185.199 113.826C185.199 113.826 185.89 106.925 189.463 109.801C193.036 112.676 190.039 117.277 189.117 116.932C190.867 119.036 192.252 121.418 193.212 123.98C194.606 127.743 195.063 131.789 194.544 135.768C196.577 135.256 198.504 134.392 200.238 133.216C203.294 131.113 206.768 127.357 208.439 120.744C204.443 115.421 200.172 110.31 195.644 105.431C191.525 100.997 189.156 98.8775 185.587 98.2729C181.219 97.5328 177.559 99.4253 175.979 100.369C163.071 108.075 167.912 117.852 167.912 117.852C168.944 118.1 169.977 118.348 171.009 118.595M179.091 150.749C180.004 152.038 180.774 153.422 181.387 154.877C181.695 155.611 181.939 156.37 182.116 157.146C182.257 157.927 182.346 158.717 182.383 159.509C182.489 161.05 182.825 162.565 183.38 164.006C183.876 165.402 184.906 166.544 186.245 167.181L185.843 168.056C185.073 167.676 184.399 167.126 183.873 166.448C183.369 165.788 182.975 165.051 182.705 164.267C182.202 162.741 181.931 161.148 181.901 159.542C181.906 158.763 181.859 157.985 181.76 157.213C181.626 156.447 181.426 155.694 181.162 154.963C180.626 153.488 179.932 152.075 179.091 150.749ZM214.703 136.266C215.818 138.556 216.892 140.867 217.835 143.239C218.068 143.833 218.288 144.435 218.479 145.047C218.629 145.653 218.832 146.245 219.086 146.815C219.423 147.334 219.827 147.808 220.288 148.222C220.742 148.663 221.209 149.093 221.676 149.528C222.636 150.386 223.54 151.305 224.382 152.279C224.807 152.788 225.165 153.349 225.45 153.948C225.723 154.548 225.934 155.174 226.079 155.817C226.19 156.403 226.39 156.968 226.672 157.494C226.823 157.716 227.016 157.905 227.242 158.05C227.467 158.195 227.72 158.293 227.984 158.338C229.195 158.538 230.428 158.558 231.645 158.397L231.72 159.357C230.4 159.489 229.067 159.42 227.767 159.153C227.405 159.071 227.064 158.919 226.761 158.705C226.459 158.491 226.202 158.219 226.005 157.905C225.695 157.302 225.483 156.653 225.375 155.983C225.166 154.769 224.663 153.625 223.908 152.65C223.112 151.671 222.255 150.745 221.341 149.875C220.89 149.427 220.434 148.979 219.988 148.519C219.515 148.064 219.104 147.549 218.768 146.986C218.519 146.387 218.326 145.766 218.19 145.132C218.021 144.522 217.822 143.922 217.609 143.323C216.745 140.934 215.745 138.589 214.703 136.266ZM248.701 174.52C249.677 173.626 250.423 172.511 250.877 171.269C251.336 170.051 251.596 168.767 251.646 167.466C251.708 166.165 251.639 164.861 251.44 163.573C251.314 162.931 251.196 162.287 251.058 161.648L250.554 159.744L250.546 159.711L250.544 159.704C250.297 158.697 249.98 157.707 249.595 156.744C249.205 155.774 248.75 154.83 248.236 153.919C247.718 153.006 247.125 152.138 246.461 151.324C245.788 150.504 245.037 149.751 244.217 149.076C245.147 149.623 246.006 150.282 246.774 151.039C247.549 151.8 248.24 152.642 248.833 153.552C249.434 154.458 249.957 155.414 250.395 156.408C250.846 157.407 251.205 158.444 251.468 159.507L251.458 159.467L251.993 161.432C252.129 162.098 252.244 162.77 252.365 163.439C252.55 164.796 252.577 166.17 252.444 167.533C252.315 168.902 251.942 170.238 251.342 171.476C251.032 172.086 250.654 172.658 250.214 173.183C249.791 173.712 249.279 174.165 248.701 174.52V174.52ZM193.726 170.084C194.566 171.027 195.314 172.048 195.959 173.133C196.629 174.203 197.194 175.335 197.646 176.514C196.805 175.572 196.057 174.551 195.413 173.465C194.744 172.394 194.179 171.262 193.726 170.084V170.084Z" fill="black"/>
<path d="M232.289 158.554C232.698 160.036 233.094 161.52 233.478 163.007L233.494 163.067L233.474 163.126C233.125 164.152 232.8 165.197 232.407 166.203C232.026 167.217 231.6 168.212 231.171 169.205C230.307 171.188 229.39 173.147 228.419 175.082C227.454 177.021 226.433 178.914 225.427 180.826C224.409 182.74 223.4 184.61 222.27 186.52L222.168 186.693L221.941 186.778C219.955 187.503 218.061 188.459 216.3 189.627C215.443 190.19 214.673 190.874 214.013 191.657C213.707 192.031 213.456 192.447 213.267 192.891C213.209 193.011 213.157 193.133 213.111 193.258L212.947 193.661C212.824 193.928 212.687 194.188 212.537 194.44C211.93 195.446 211.083 196.287 210.072 196.888C209.139 197.379 208.255 197.954 207.429 198.607C207.076 198.935 206.8 199.336 206.618 199.781C206.436 200.227 206.353 200.706 206.376 201.186C206.38 201.38 206.459 201.565 206.598 201.701C206.737 201.837 206.923 201.914 207.118 201.914C207.612 201.944 208.107 201.873 208.573 201.706C209.552 201.354 210.409 200.727 211.04 199.902C211.385 199.496 211.674 199.055 212.055 198.617C212.162 198.492 212.29 198.385 212.432 198.303C212.531 198.246 212.644 198.22 212.757 198.228C212.87 198.237 212.979 198.28 213.067 198.351C213.189 198.455 213.294 198.578 213.378 198.714C213.459 198.826 213.534 198.945 213.611 199.06C213.923 199.535 214.158 200.056 214.305 200.604C214.447 201.164 214.46 201.748 214.344 202.314C214.228 202.869 214.02 203.402 213.73 203.889C213.457 204.381 213.12 204.835 212.728 205.239C211.929 206.008 211.024 206.661 210.042 207.179L208.619 207.969C208.159 208.209 207.731 208.507 207.346 208.855C207.189 208.997 207.082 209.186 207.041 209.394C207.038 209.505 207.046 209.616 207.065 209.725C207.08 209.851 207.108 209.975 207.132 210.1C207.22 210.575 207.443 211.015 207.774 211.368C207.934 211.519 208.13 211.629 208.342 211.687C208.555 211.745 208.779 211.751 208.994 211.703C209.48 211.603 209.944 211.417 210.364 211.154L211.587 210.451L210.875 211.688C210.627 212.129 210.451 212.607 210.356 213.104C210.258 213.586 210.271 214.084 210.393 214.56C210.513 215.026 210.755 215.451 211.094 215.791C211.263 215.97 211.448 216.133 211.647 216.278C211.852 216.421 212.079 216.541 212.292 216.676L212.415 216.754L212.488 216.869C212.731 217.241 213.024 217.577 213.359 217.868C213.679 218.151 214.051 218.372 214.453 218.517C214.835 218.655 215.247 218.682 215.644 218.597C216.058 218.51 216.453 218.347 216.808 218.116L216.705 218.198C218.777 216.052 220.855 213.885 222.804 211.659C223.28 211.127 223.723 210.567 224.129 209.981C224.38 209.556 224.729 209.198 225.149 208.937C225.424 208.771 225.743 208.689 226.064 208.703C226.386 208.717 226.696 208.826 226.956 209.015C227.406 209.348 227.715 209.837 227.823 210.385C227.878 210.649 227.887 210.919 227.852 211.186C227.815 211.453 227.73 211.712 227.603 211.95C227.394 212.321 227.146 212.669 226.864 212.988C226.645 213.241 226.449 213.512 226.277 213.798C226.132 214.047 226.032 214.32 225.983 214.604C225.959 214.746 225.946 214.889 225.944 215.032C225.944 215.141 225.96 215.249 225.993 215.353C226.066 215.548 226.201 215.713 226.377 215.824C226.553 215.935 226.76 215.986 226.967 215.97C227.175 215.963 227.375 215.884 227.531 215.746L227.652 215.626L227.823 215.426C227.935 215.29 228.045 215.154 228.15 215.014C228.573 214.464 228.935 213.87 229.23 213.243C229.518 212.638 229.71 211.992 229.798 211.327C229.839 211.004 229.852 210.677 229.837 210.351L229.785 209.216C229.727 207.704 229.717 206.197 229.744 204.685C229.751 203.156 229.86 201.629 230.07 200.114C230.1 199.92 230.132 199.726 230.181 199.523L230.249 199.223L230.351 198.902C230.429 198.663 230.544 198.438 230.691 198.234L231.026 197.784L232.367 195.98L237.737 188.771L243.158 181.6C244.983 179.223 246.795 176.837 248.642 174.477L248.759 174.562C247.093 177.052 245.392 179.517 243.705 181.991L238.587 189.373L233.418 196.717L232.125 198.552L231.801 199.011C231.76 199.06 231.729 199.117 231.709 199.178C231.699 199.198 231.689 199.218 231.677 199.237L231.647 199.344L231.583 199.559L231.535 199.808C231.499 199.97 231.475 200.145 231.452 200.322C231.294 201.777 231.216 203.241 231.22 204.705C231.211 206.186 231.238 207.672 231.312 209.15L231.375 210.256C231.402 210.678 231.389 211.101 231.336 211.52C231.228 212.342 230.99 213.142 230.633 213.891C230.291 214.619 229.87 215.308 229.379 215.946C229.259 216.104 229.133 216.259 229.007 216.412L228.812 216.639C228.736 216.723 228.628 216.825 228.534 216.914C228.119 217.271 227.596 217.479 227.048 217.504C226.509 217.531 225.975 217.387 225.522 217.093C225.055 216.794 224.709 216.338 224.547 215.808C224.471 215.554 224.433 215.29 224.436 215.024C224.441 214.793 224.464 214.563 224.506 214.337C224.592 213.883 224.757 213.449 224.994 213.052C225.442 212.289 226.078 211.737 226.314 211.28C226.368 211.189 226.404 211.09 226.421 210.986C226.436 210.882 226.434 210.775 226.415 210.672C226.382 210.478 226.283 210.301 226.134 210.172C226.015 210.1 225.99 210.088 225.828 210.165C225.614 210.31 225.436 210.5 225.304 210.721C224.852 211.362 224.359 211.973 223.827 212.55C221.807 214.811 219.684 216.921 217.538 219.029L217.48 219.087L217.436 219.111C216.946 219.413 216.403 219.619 215.836 219.72C215.248 219.825 214.642 219.769 214.084 219.556C213.55 219.354 213.062 219.047 212.648 218.653C212.243 218.275 211.894 217.841 211.614 217.363L211.81 217.556C211.56 217.389 211.301 217.237 211.061 217.054C210.819 216.864 210.595 216.652 210.393 216.42C209.968 215.953 209.673 215.383 209.537 214.767C209.405 214.164 209.412 213.538 209.555 212.937C209.689 212.35 209.919 211.789 210.236 211.276L210.747 211.81C210.235 212.108 209.673 212.309 209.088 212.404C208.768 212.456 208.44 212.432 208.132 212.333C207.823 212.233 207.542 212.062 207.313 211.833C206.905 211.382 206.637 210.823 206.542 210.223C206.519 210.08 206.493 209.938 206.48 209.795C206.458 209.636 206.455 209.476 206.471 209.316C206.535 208.988 206.706 208.689 206.958 208.467C207.384 208.093 207.856 207.772 208.361 207.513L209.795 206.738C210.743 206.254 211.619 205.64 212.395 204.912C212.764 204.54 213.083 204.121 213.342 203.667C213.617 203.226 213.811 202.739 213.913 202.23C213.998 201.722 213.981 201.202 213.861 200.701C213.742 200.2 213.524 199.727 213.219 199.312C213.145 199.202 213.074 199.092 212.994 198.985C212.936 198.89 212.865 198.804 212.784 198.728C212.717 198.687 212.732 198.697 212.658 198.727C212.568 198.786 212.489 198.859 212.422 198.942C212.1 199.331 211.799 199.805 211.452 200.236C210.771 201.155 209.848 201.869 208.785 202.299C208.234 202.521 207.642 202.626 207.048 202.607C206.696 202.589 206.36 202.456 206.093 202.228C205.834 201.981 205.668 201.654 205.621 201.3C205.559 200.695 205.631 200.085 205.832 199.512C206.034 198.939 206.36 198.418 206.787 197.985C207.628 197.249 208.539 196.596 209.508 196.038C210.356 195.496 211.055 194.751 211.541 193.87C211.659 193.651 211.767 193.427 211.863 193.197L211.993 192.842C212.033 192.73 212.081 192.606 212.147 192.457C212.368 191.897 212.668 191.371 213.039 190.896C213.754 189.995 214.605 189.212 215.563 188.574C217.412 187.319 219.417 186.312 221.528 185.576L221.199 185.834C222.287 184.047 223.327 182.122 224.383 180.258L227.509 174.608C228.541 172.724 229.524 170.815 230.459 168.88C231.388 166.944 232.268 164.983 233.038 162.991L233.034 163.11C232.729 161.604 232.433 160.097 232.148 158.587L232.289 158.554ZM167.272 167.565C165.423 171.744 163.781 176.003 162.348 180.34C160.977 184.684 159.776 189.096 159.462 193.628C159.148 198.205 158.569 202.76 157.728 207.27C157.325 209.559 156.608 211.781 155.598 213.875C155.322 214.402 154.995 214.901 154.621 215.365C154.425 215.597 154.212 215.814 153.984 216.015C153.745 216.215 153.492 216.391 153.272 216.542C152.363 217.217 151.494 217.944 150.67 218.721C148.998 220.271 147.419 221.919 145.943 223.657C145.208 224.528 144.499 225.421 143.835 226.345C143.157 227.253 142.571 228.226 142.085 229.25C141.833 229.734 141.713 230.275 141.738 230.82C141.862 231.34 142.157 231.803 142.575 232.137C142.798 232.274 143.052 232.352 143.313 232.364C143.575 232.375 143.835 232.319 144.069 232.201C144.58 231.984 145.052 231.684 145.465 231.313C146.314 230.564 147.08 229.725 147.749 228.813C148.444 227.889 149.215 227.026 150.054 226.231C150.894 225.427 151.821 224.719 152.819 224.121C153.828 223.503 154.95 223.089 156.12 222.903C157.327 222.732 158.557 222.96 159.622 223.552C160.709 224.081 161.643 224.878 162.336 225.868C162.966 226.896 163.338 228.061 163.418 229.263C163.441 229.522 163.496 229.777 163.581 230.023C163.672 230.278 163.776 230.527 163.893 230.77C164.135 231.267 164.409 231.747 164.715 232.207C165.283 233.124 166.043 233.907 166.944 234.503C167.338 234.754 167.811 234.85 168.272 234.772C168.726 234.636 169.122 234.354 169.398 233.97L169.551 233.846C169.524 233.857 169.593 233.816 169.617 233.779C169.655 233.738 169.689 233.695 169.719 233.649C169.784 233.541 169.836 233.426 169.874 233.305C169.95 233.03 169.985 232.745 169.978 232.459C169.952 231.833 169.837 231.215 169.638 230.621C169.444 230.003 169.209 229.398 168.933 228.811C168.617 228.173 168.39 227.495 168.259 226.795C168.06 225.721 168.134 224.614 168.476 223.576C168.59 223.222 168.739 222.924 168.871 222.597C169.329 221.429 169.459 220.158 169.246 218.922C169.173 218.276 169.061 217.636 168.912 217.004C168.839 216.687 168.756 216.371 168.664 216.058C168.557 215.723 168.471 215.381 168.404 215.035C168.277 214.321 168.268 213.592 168.376 212.876C168.493 212.179 168.697 211.499 168.983 210.852L171.919 203.374C173.906 198.4 175.859 193.413 177.874 188.45C179.867 183.478 181.888 178.517 183.936 173.567L184.026 173.602C182.188 178.633 180.331 183.658 178.456 188.675C176.593 193.697 174.669 198.695 172.779 203.707L169.9 211.207C169.642 211.786 169.46 212.395 169.356 213.02C169.266 213.63 169.276 214.251 169.386 214.858C169.49 215.433 169.746 216.104 169.89 216.774C170.05 217.445 170.171 218.124 170.252 218.809C170.337 219.504 170.36 220.205 170.32 220.905C170.297 221.266 170.245 221.624 170.166 221.977C170.124 222.16 170.073 222.34 170.012 222.517L169.804 223.019C169.684 223.312 169.531 223.615 169.44 223.898C169.142 224.776 169.071 225.714 169.234 226.626C169.344 227.245 169.54 227.846 169.818 228.412C170.105 229.04 170.35 229.686 170.551 230.348C170.77 231.028 170.892 231.736 170.913 232.45C170.918 232.834 170.865 233.217 170.756 233.586C170.691 233.785 170.602 233.974 170.491 234.151C170.428 234.244 170.358 234.332 170.281 234.414C170.189 234.514 170.08 234.599 169.961 234.665L170.113 234.541C169.705 235.085 169.125 235.475 168.467 235.65C167.788 235.772 167.088 235.636 166.504 235.27C165.486 234.602 164.633 233.713 164.009 232.669C163.689 232.171 163.403 231.652 163.153 231.116C163.026 230.843 162.915 230.562 162.819 230.277C162.722 229.98 162.66 229.673 162.634 229.362C162.585 228.272 162.271 227.211 161.719 226.269C161.105 225.368 160.276 224.633 159.306 224.133C158.368 223.578 157.272 223.347 156.189 223.477C155.088 223.627 154.027 223.994 153.068 224.556C152.09 225.116 151.177 225.783 150.347 226.546C149.507 227.308 148.734 228.14 148.035 229.032C147.343 229.959 146.553 230.81 145.679 231.569C145.236 231.96 144.731 232.275 144.184 232.501C143.902 232.634 143.59 232.695 143.278 232.675C142.967 232.656 142.665 232.558 142.401 232.39C142.271 232.305 142.155 232.2 142.057 232.078C141.953 231.967 141.864 231.843 141.792 231.709C141.711 231.583 141.644 231.449 141.591 231.309C141.522 231.17 141.473 231.022 141.447 230.87C141.416 230.269 141.541 229.67 141.81 229.132C142.293 228.083 142.88 227.085 143.561 226.152C144.223 225.211 144.928 224.305 145.659 223.42C147.12 221.648 148.672 219.953 150.308 218.341C151.129 217.527 151.998 216.761 152.91 216.05C153.156 215.87 153.369 215.712 153.565 215.541C153.761 215.358 153.944 215.161 154.113 214.953C154.446 214.516 154.735 214.048 154.978 213.555C155.463 212.545 155.853 211.492 156.142 210.409C156.45 209.325 156.709 208.222 156.926 207.109C157.364 204.882 157.668 202.624 157.939 200.362C158.22 198.1 158.451 195.83 158.669 193.556C158.865 191.26 159.244 188.982 159.802 186.746C160.363 184.515 161.048 182.322 161.804 180.157C163.332 175.838 165.13 171.618 167.186 167.523L167.272 167.565Z" fill="black"/>
<path d="M210.414 211.02C211.287 210.762 212.132 210.418 212.935 209.991C213.752 209.56 214.524 209.049 215.239 208.465C215.961 207.881 216.606 207.207 217.157 206.459C217.714 205.704 218.168 204.879 218.506 204.005C218.24 204.915 217.853 205.786 217.357 206.594C216.856 207.41 216.253 208.16 215.561 208.823C214.87 209.494 214.112 210.094 213.3 210.614C212.479 211.145 211.606 211.59 210.693 211.942L210.414 211.02ZM211.846 216.682C212.845 216.234 213.819 215.732 214.764 215.179C215.719 214.632 216.638 214.025 217.517 213.362C218.403 212.708 219.223 211.969 219.963 211.155C220.714 210.34 221.313 209.399 221.733 208.375C221.383 209.439 220.847 210.432 220.149 211.308C219.455 212.192 218.675 213.005 217.822 213.735C216.975 214.475 216.083 215.161 215.151 215.79C214.219 216.429 213.253 217.018 212.258 217.553L211.846 216.682ZM147.125 229.916C147.334 230.504 147.585 231.076 147.874 231.629C148.154 232.145 148.556 232.623 148.926 232.632C149.429 232.56 149.891 232.315 150.233 231.94C150.699 231.532 151.125 231.08 151.505 230.59L151.689 230.354L151.821 230.593C152.048 231.009 152.384 231.355 152.792 231.596C152.986 231.71 153.203 231.778 153.427 231.794C153.651 231.811 153.876 231.776 154.084 231.693C154.49 231.502 154.841 231.214 155.107 230.854C155.238 230.659 155.387 230.487 155.513 230.29L155.883 229.688L156.109 229.319L156.519 229.543C156.766 229.675 157.033 229.765 157.31 229.809C157.554 229.849 157.804 229.828 158.038 229.748C158.271 229.627 158.477 229.457 158.641 229.252C158.805 229.046 158.924 228.808 158.99 228.553C159.207 227.894 159.481 227.256 159.811 226.645C159.986 226.334 160.193 226.041 160.428 225.773C160.66 225.489 160.964 225.274 161.309 225.15L161.338 225.242C160.883 225.706 160.557 226.281 160.392 226.909C160.179 227.54 160.055 228.147 159.88 228.837C159.838 229.023 159.776 229.204 159.696 229.377C159.621 229.563 159.524 229.74 159.407 229.903C159.288 230.081 159.146 230.243 158.984 230.383C158.806 230.521 158.607 230.631 158.396 230.711C157.986 230.856 157.543 230.877 157.121 230.771C156.73 230.68 156.359 230.522 156.024 230.303L156.66 230.157L156.197 230.792C156.026 230.995 155.845 231.19 155.654 231.375C155.25 231.755 154.755 232.025 154.217 232.159C153.672 232.262 153.108 232.154 152.639 231.857C152.201 231.569 151.816 231.206 151.502 230.786L151.818 230.79C151.524 231.379 151.175 231.939 150.778 232.464C150.56 232.744 150.295 232.985 149.997 233.177C149.652 233.414 149.232 233.516 148.817 233.464C148.61 233.43 148.412 233.356 148.235 233.244C148.057 233.133 147.904 232.988 147.784 232.816C147.571 232.533 147.408 232.216 147.3 231.878C147.093 231.25 147.001 230.59 147.03 229.929L147.125 229.916Z" fill="black"/>
<path d="M155.704 223.258C155.173 223.754 154.679 224.29 154.228 224.859C153.775 225.422 153.369 226.02 153.011 226.648C152.664 227.27 152.386 227.928 152.183 228.61C152.004 229.282 151.935 229.978 151.981 230.671L151.342 230.708C151.345 229.945 151.474 229.187 151.725 228.466C151.988 227.769 152.328 227.104 152.738 226.481C153.147 225.87 153.605 225.293 154.106 224.755C154.601 224.217 155.135 223.717 155.704 223.258V223.258ZM155.953 229.957C155.979 229.332 156.118 228.717 156.364 228.141C156.579 227.589 156.838 227.054 157.137 226.542C157.426 226.029 157.752 225.541 158.086 225.061C158.427 224.586 158.785 224.126 159.153 223.673C158.828 224.158 158.514 224.647 158.22 225.147C157.934 225.652 157.657 226.161 157.422 226.687C157.179 227.206 156.978 227.743 156.819 228.292C156.655 228.808 156.577 229.347 156.59 229.888L155.953 229.957Z" fill="black"/>
<path d="M233.01 162.854L235.332 160.526L233.505 163.258L233.01 162.854Z" fill="black"/>
<path d="M200.326 307.125C200.116 307.973 199.842 308.804 199.508 309.611C199.206 310.467 198.71 311.242 198.059 311.875C197.301 312.4 196.566 312.809 195.806 313.255C195.052 313.689 194.294 314.118 193.526 314.526C190.458 316.169 187.357 317.739 184.162 319.137C183.358 319.49 182.541 319.782 181.763 320.134C180.978 320.478 180.215 320.867 179.476 321.3C178.738 321.714 178.066 322.236 177.483 322.847C177.208 323.142 177.017 323.505 176.93 323.898C176.898 324.09 176.909 324.287 176.961 324.475C177.014 324.662 177.107 324.836 177.235 324.984C177.802 325.608 178.527 326.07 179.333 326.32C180.147 326.589 180.989 326.763 181.843 326.837C183.562 326.961 185.29 326.891 186.993 326.626C190.41 326.154 193.691 325.031 197.082 324.202C198.771 323.776 200.467 323.366 202.204 323.064C203.085 322.903 203.977 322.811 204.872 322.791C205.345 322.78 205.818 322.821 206.282 322.914L206.648 323.015L206.936 323.103C207.128 323.157 207.33 323.205 207.533 323.25C209.192 323.591 210.887 323.724 212.578 323.646C213.413 323.615 214.241 323.488 215.046 323.268C215.823 323.078 216.532 322.678 217.096 322.113C217.347 321.827 217.534 321.491 217.645 321.127C217.704 320.93 217.749 320.73 217.782 320.528C217.823 320.319 217.867 320.11 217.895 319.899C218.03 319.053 218.116 318.199 218.152 317.343C218.234 315.619 218.183 313.891 217.997 312.175L218.092 312.158C218.439 313.868 218.622 315.608 218.64 317.353C218.651 318.23 218.611 319.108 218.521 319.981C218.503 320.2 218.471 320.418 218.44 320.637C218.415 320.864 218.376 321.09 218.323 321.312C218.205 321.787 217.981 322.229 217.668 322.604C217.028 323.303 216.207 323.81 215.296 324.07C214.433 324.34 213.542 324.508 212.641 324.572C210.861 324.704 209.072 324.597 207.32 324.255C207.098 324.21 206.877 324.16 206.651 324.094C206.544 324.067 206.411 324.017 206.317 323.991L206.055 323.919C205.667 323.842 205.272 323.808 204.877 323.817C204.035 323.841 203.196 323.92 202.365 324.055C200.674 324.316 198.983 324.69 197.297 325.082L192.233 326.291C190.529 326.696 188.799 326.983 187.055 327.15C185.311 327.332 183.553 327.337 181.808 327.162C180.933 327.066 180.07 326.876 179.235 326.596C178.376 326.327 177.601 325.838 176.99 325.177C176.832 324.997 176.714 324.784 176.644 324.555C176.574 324.325 176.554 324.084 176.584 323.846C176.669 323.385 176.873 322.954 177.177 322.596C177.755 321.916 178.433 321.327 179.188 320.848C180.668 319.912 182.221 319.096 183.832 318.406C186.954 316.919 190.07 315.405 193.181 313.864C194.715 313.085 196.318 312.327 197.755 311.471C198.371 310.911 198.867 310.231 199.21 309.473C199.596 308.701 199.937 307.908 200.234 307.098L200.326 307.125ZM235.593 311.955C235.67 312.811 235.652 313.672 235.537 314.524C235.444 315.394 235.203 316.242 234.825 317.031C234.727 317.232 234.614 317.425 234.489 317.61L234.298 317.889L234.073 318.145C233.77 318.487 233.471 318.755 233.171 319.066L231.375 320.875L224.198 328.106C222.999 329.307 221.8 330.51 220.65 331.755C220.073 332.375 219.509 333.006 218.972 333.658C218.703 333.983 218.449 334.32 218.211 334.663C217.965 334.987 217.772 335.347 217.639 335.73C217.556 336.042 217.847 336.41 218.127 336.685C218.428 336.972 218.757 337.228 219.109 337.448C219.823 337.897 220.572 338.288 221.349 338.617C222.901 339.284 224.517 339.793 226.172 340.135C226.99 340.308 227.82 340.416 228.655 340.458C229.061 340.48 229.468 340.466 229.872 340.418C230.262 340.362 230.642 340.257 231.005 340.105C231.76 339.787 232.473 339.378 233.129 338.888C233.807 338.4 234.459 337.878 235.084 337.324C236.348 336.22 237.533 335.017 238.692 333.784C239.281 333.162 239.821 332.555 240.478 331.914C241.183 331.343 241.973 330.885 242.818 330.555C243.611 330.212 244.41 329.911 245.15 329.563C245.849 329.169 246.497 328.69 247.078 328.137C248.319 327.045 249.355 325.74 250.136 324.283C250.511 323.571 250.748 322.794 250.833 321.994L250.827 321.403L250.777 320.763C250.748 320.334 250.727 319.906 250.718 319.477C250.681 317.766 250.81 316.057 251.105 314.371L251.201 314.385C251.067 316.072 251.069 317.766 251.205 319.452C251.238 319.872 251.282 320.291 251.334 320.708L251.419 321.335L251.464 322.017C251.428 322.916 251.208 323.797 250.817 324.607C250.043 326.183 248.993 327.608 247.715 328.813C247.086 329.457 246.368 330.009 245.583 330.45C244.788 330.839 243.997 331.149 243.234 331.494C242.492 331.786 241.797 332.183 241.17 332.674C240.609 333.221 240.013 333.88 239.418 334.478C238.224 335.7 236.996 336.901 235.676 338.011C235.019 338.575 234.33 339.101 233.613 339.587C232.887 340.092 232.102 340.506 231.275 340.82C230.847 340.981 230.399 341.087 229.944 341.136C229.5 341.168 229.054 341.16 228.612 341.114C227.748 341.027 226.893 340.871 226.054 340.649C224.392 340.217 222.772 339.637 221.214 338.915C220.432 338.562 219.675 338.153 218.949 337.694C218.583 337.459 218.238 337.192 217.918 336.897C217.754 336.743 217.608 336.569 217.486 336.38C217.344 336.17 217.289 335.912 217.333 335.663C217.467 335.238 217.664 334.836 217.919 334.471C218.152 334.107 218.404 333.76 218.658 333.415C219.166 332.725 219.7 332.058 220.246 331.402C221.336 330.087 222.468 328.811 223.617 327.553C225.937 325.055 228.375 322.674 230.854 320.339C231.47 319.753 232.101 319.18 232.731 318.607C233.036 318.321 233.384 318.034 233.659 317.752L233.866 317.54L234.047 317.301C234.17 317.14 234.28 316.971 234.378 316.795C235.123 315.292 235.506 313.637 235.497 311.961L235.593 311.955ZM169.755 120.153C170.623 119.765 171.563 119.567 172.513 119.57C172.784 119.579 173.049 119.649 173.29 119.774C173.543 119.94 173.728 120.191 173.812 120.481C173.933 120.955 173.993 121.441 173.991 121.93C173.993 122.398 173.979 122.86 173.971 123.313C173.941 123.737 173.966 124.164 174.045 124.582C174.063 124.699 174.235 124.827 174.413 124.922C174.608 125.02 174.812 125.098 175.022 125.157C175.461 125.286 175.91 125.384 176.363 125.451C175.897 125.507 175.426 125.511 174.959 125.464C174.716 125.436 174.477 125.383 174.245 125.306C174.105 125.267 173.975 125.199 173.861 125.108C173.748 125.017 173.654 124.904 173.585 124.776C173.428 124.305 173.354 123.811 173.364 123.315L173.351 121.94C173.36 121.508 173.321 121.077 173.233 120.654C173.203 120.495 173.119 120.353 172.995 120.249C172.828 120.156 172.646 120.093 172.457 120.063C171.556 119.984 170.649 120.014 169.755 120.153V120.153ZM178.207 120.728C178.456 120.719 178.692 120.614 178.865 120.436C179.038 120.257 179.135 120.018 179.135 119.769C179.135 119.521 179.038 119.282 178.865 119.103C178.692 118.924 178.456 118.819 178.207 118.811C177.958 118.819 177.722 118.924 177.549 119.103C177.376 119.282 177.279 119.521 177.279 119.769C177.279 120.018 177.376 120.257 177.549 120.436C177.722 120.614 177.958 120.719 178.207 120.728V120.728Z" fill="black"/>
<path d="M172.137 122.952C172.386 122.943 172.622 122.838 172.795 122.659C172.968 122.481 173.065 122.242 173.065 121.993C173.065 121.744 172.968 121.506 172.795 121.327C172.622 121.148 172.386 121.043 172.137 121.035C171.889 121.043 171.653 121.148 171.48 121.327C171.306 121.506 171.21 121.744 171.21 121.993C171.21 122.242 171.306 122.481 171.48 122.659C171.653 122.838 171.889 122.943 172.137 122.952V122.952ZM175.756 118.76C175.945 118.288 176.253 117.872 176.65 117.553C177.039 117.226 177.478 116.963 177.949 116.773C178.418 116.588 178.91 116.468 179.412 116.416C179.909 116.361 180.411 116.384 180.901 116.483C180.664 116.575 180.428 116.634 180.196 116.701L179.51 116.905C179.059 117.049 178.615 117.187 178.189 117.365C177.311 117.703 176.491 118.174 175.756 118.76V118.76ZM176.825 127.633C177.015 127.272 177.306 126.974 177.664 126.776C178.014 126.57 178.399 126.429 178.799 126.358C179.195 126.292 179.599 126.286 179.996 126.342C180.391 126.394 180.773 126.517 181.124 126.705C180.726 126.776 180.353 126.801 179.985 126.84C179.619 126.887 179.261 126.918 178.911 126.987C178.188 127.103 177.486 127.32 176.825 127.633V127.633Z" fill="black"/>
<path d="M173.346 118.257C173.549 118.25 173.742 118.164 173.884 118.018C174.025 117.872 174.104 117.677 174.104 117.474C174.104 117.27 174.025 117.075 173.884 116.929C173.742 116.783 173.549 116.697 173.346 116.69C173.143 116.697 172.95 116.783 172.808 116.929C172.667 117.075 172.588 117.27 172.588 117.474C172.588 117.677 172.667 117.872 172.808 118.018C172.95 118.164 173.143 118.25 173.346 118.257V118.257Z" fill="#B21919"/>
<path d="M170.502 208.27C171.132 208.287 171.758 208.372 172.37 208.525C172.691 208.601 173.003 208.714 173.298 208.862C173.466 208.945 173.621 209.051 173.76 209.177C173.952 209.343 174.07 209.579 174.088 209.832C174.095 210.095 173.997 210.349 173.817 210.541C173.688 210.687 173.539 210.813 173.373 210.916C173.084 211.093 172.778 211.24 172.459 211.355C171.859 211.574 171.237 211.728 170.604 211.814C169.355 211.994 168.104 211.962 166.871 212.022C165.636 212.072 164.406 212.174 163.168 212.257C161.927 212.359 160.681 212.371 159.439 212.294C158.183 212.241 156.934 212.077 155.706 211.803C155.068 211.654 154.449 211.434 153.861 211.146C153.501 210.977 153.191 210.718 152.961 210.395C152.883 210.272 152.835 210.134 152.819 209.99C152.804 209.846 152.821 209.7 152.871 209.564C152.959 209.348 153.108 209.163 153.3 209.029C153.586 208.829 153.902 208.677 154.237 208.579C154.542 208.48 154.854 208.403 155.17 208.349C155.786 208.24 156.411 208.177 157.037 208.162L157.054 208.265C156.464 208.454 155.878 208.643 155.315 208.863C154.778 209.043 154.276 209.312 153.829 209.66C153.751 209.736 153.694 209.822 153.704 209.846C153.713 209.87 153.71 209.841 153.746 209.891C153.906 210.042 154.095 210.16 154.303 210.235C154.839 210.447 155.394 210.609 155.961 210.719C157.121 210.971 158.319 211.171 159.525 211.316C160.733 211.445 161.948 211.576 163.171 211.685C164.394 211.799 165.624 211.798 166.846 211.684C168.059 211.532 169.258 211.29 170.434 210.961C171.018 210.814 171.597 210.663 172.147 210.484C172.411 210.401 172.666 210.293 172.909 210.16C173.058 210.095 173.186 209.99 173.278 209.856C173.318 209.839 173.163 209.604 172.937 209.464C172.698 209.306 172.446 209.167 172.184 209.049C171.642 208.799 171.063 208.594 170.482 208.373L170.502 208.27ZM172.007 204.411C172.314 204.452 172.617 204.52 172.912 204.616C173.242 204.711 173.542 204.889 173.784 205.133C173.864 205.22 173.923 205.324 173.958 205.436C173.993 205.549 174.003 205.668 173.986 205.785C173.943 206.001 173.833 206.198 173.674 206.349C173.426 206.589 173.138 206.783 172.822 206.923C172.25 207.185 171.653 207.385 171.039 207.521C170.442 207.665 169.834 207.763 169.222 207.815C168.003 207.917 166.783 207.847 165.577 207.867C164.369 207.878 163.166 207.951 161.953 208.005C160.738 208.078 159.519 208.058 158.306 207.947C157.069 207.865 155.845 207.643 154.658 207.284C154.346 207.177 154.043 207.046 153.751 206.893C153.377 206.719 153.066 206.434 152.861 206.077C152.796 205.942 152.763 205.793 152.765 205.643C152.767 205.493 152.803 205.345 152.872 205.212C152.979 205.012 153.132 204.841 153.318 204.713C153.604 204.523 153.916 204.376 154.244 204.277C155.431 203.932 156.664 203.772 157.9 203.802L157.914 203.906C156.766 204.198 155.642 204.577 154.552 205.039C154.314 205.144 154.092 205.282 153.892 205.448C153.816 205.518 153.751 205.596 153.755 205.623C153.752 205.658 153.756 205.599 153.768 205.623C153.905 205.757 154.067 205.866 154.243 205.942C154.49 206.056 154.745 206.151 155.007 206.226C156.126 206.556 157.268 206.805 158.424 206.971C159.597 207.135 160.779 207.295 161.971 207.434C163.163 207.574 164.365 207.606 165.562 207.529C166.753 207.409 167.935 207.217 169.102 206.954C170.252 206.771 171.388 206.512 172.503 206.178C172.748 206.096 172.981 205.981 173.195 205.836C173.263 205.789 173.319 205.727 173.36 205.656C173.374 205.625 173.38 205.591 173.376 205.558C173.372 205.524 173.359 205.492 173.339 205.466C173.184 205.253 172.984 205.076 172.755 204.947C172.51 204.791 172.245 204.649 171.976 204.511L172.007 204.411ZM194.764 205.435C194.131 205.803 193.403 205.972 192.673 205.923L194.954 182.367C195.167 180.125 194.776 177.867 193.82 175.826C192.865 173.786 191.381 172.037 189.521 170.762C187.542 169.454 185.655 168.011 183.874 166.445L200.143 138.852L208.048 119.541C208.048 119.541 213.195 117.698 217.645 118.257C217.645 118.257 212.903 157.152 210.651 162.503C209.901 164.281 208.888 169.329 207.464 175.387L207.446 175.441L204.968 183.925C204.104 186.755 203.235 189.573 202.24 192.35C201.757 193.741 201.235 195.114 200.673 196.47C200.125 197.831 199.499 199.157 198.826 200.453C198.169 201.748 197.359 202.959 196.414 204.062C195.944 204.608 195.386 205.072 194.764 205.435V205.435Z" fill="#276EF1"/>
<path d="M207.464 175.387C207.429 175.667 207.399 175.94 207.357 176.219C207.327 176.225 207.291 176.225 207.262 176.231C207.327 175.964 207.387 175.702 207.446 175.441L207.464 175.387Z" fill="white"/>
<path d="M173.007 125.808L172.227 138.388C172.227 138.388 174.507 132.619 184.831 134.478C184.831 134.478 188.003 132.21 188.847 132.21C188.847 132.21 188.989 131.253 185.585 131.093C185.585 131.093 180.145 133.863 177.279 130.148L173.007 125.808ZM164.19 283.223C163.725 289.127 163.141 295.013 162.534 300.899C161.884 306.779 161.283 312.665 160.514 318.533L159.317 327.327L159.013 329.527C158.94 330.284 158.764 331.028 158.489 331.738C157.94 333.172 156.965 334.404 155.695 335.27C154.434 336.136 152.942 336.604 151.412 336.614L146.962 336.643C144.001 336.643 141.034 336.721 138.074 336.756C135.107 336.81 132.146 336.881 129.18 336.905L124.736 336.958C123.536 336.963 122.351 336.697 121.269 336.18C120.909 336.006 120.564 335.803 120.238 335.573C118.907 334.666 117.889 333.37 117.325 331.863C117.185 331.487 117.071 331.102 116.985 330.71C116.914 330.311 116.848 329.919 116.807 329.562L116.771 329.283L116.539 327.362L115.49 318.551C114.18 306.791 112.946 295.025 111.958 283.223L112.077 283.212C113.834 294.918 115.341 306.654 116.777 318.403L117.79 327.214L118.022 329.289L118.034 329.42C118.07 329.8 118.123 330.139 118.177 330.466C118.244 330.799 118.335 331.127 118.451 331.447C118.915 332.736 119.766 333.85 120.887 334.64C122.012 335.439 123.355 335.876 124.736 335.894L127.339 335.924L129.18 335.948C132.146 335.977 135.107 336.049 138.074 336.096C141.034 336.138 144.001 336.215 146.962 336.215L151.412 336.239C152.863 336.239 154.279 335.79 155.463 334.953C156.647 334.116 157.542 332.932 158.024 331.566C158.256 330.886 158.394 330.178 158.435 329.461L158.65 327.25L159.513 318.415C160.109 312.529 160.884 306.666 161.61 300.792C162.373 294.924 163.159 289.062 164.071 283.212L164.19 283.223Z" fill="black"/>
<path d="M168.74 283.904H107.405C106.519 283.904 105.669 283.553 105.043 282.928C104.416 282.302 104.064 281.454 104.064 280.57C104.064 279.686 104.416 278.838 105.043 278.213C105.669 277.587 106.519 277.236 107.405 277.236H168.74C169.626 277.236 170.476 277.587 171.102 278.213C171.729 278.838 172.081 279.686 172.081 280.57C172.081 281.454 171.729 282.302 171.102 282.928C170.476 283.553 169.626 283.904 168.74 283.904V283.904Z" fill="#276EF1"/>
<path d="M116.006 317.38L123.693 308.606C124.956 307.134 126.246 305.688 127.488 304.202C128.743 302.728 130.003 301.259 131.214 299.751C133.678 296.77 136.051 293.721 138.289 290.579C139.391 288.998 140.468 287.398 141.453 285.74C142.465 284.088 143.346 282.36 144.085 280.57C143.665 282.487 143.026 284.349 142.179 286.12C141.345 287.896 140.41 289.624 139.378 291.294C138.365 292.975 137.233 294.574 136.1 296.17C134.947 297.753 133.731 299.285 132.505 300.807C130.01 303.816 127.398 306.722 124.645 309.488C121.915 312.277 119.031 314.912 116.006 317.38V317.38ZM152.925 275.304C152.381 275.298 151.845 275.422 151.359 275.664C150.873 275.907 150.453 276.262 150.132 276.7C149.811 277.138 149.6 277.645 149.516 278.181C149.431 278.717 149.476 279.265 149.646 279.779C150.04 280.898 150.164 282.093 150.007 283.268C149.34 288.6 150.787 303.324 150.787 303.324C150.787 303.324 151.819 311.071 156.684 311.894C161.549 312.717 164.602 305.101 165.874 298.247C166.657 294.023 167.055 286.051 167.244 280.555C167.269 279.823 167.136 279.096 166.853 278.421C166.571 277.745 166.146 277.139 165.608 276.642C165.07 276.146 164.431 275.771 163.734 275.543C163.038 275.315 162.3 275.24 161.572 275.322L152.925 275.304ZM127.339 335.924C126.477 336.046 125.606 336.106 124.736 336.102C123.853 336.106 122.971 336.046 122.097 335.924C121.834 336.007 121.554 336.09 121.268 336.18C114.108 338.243 99.9657 339.527 99.0662 336.786C98.7743 335.888 99.9062 334.562 101.544 333.344C98.5539 333.653 96.9395 333.784 96.8084 333.302C96.6536 332.725 98.6433 331.37 100.508 330.841C104.487 329.717 110.701 329.301 116.771 329.283C117.194 329.283 117.611 329.283 118.022 329.289L118.034 329.42C118.069 329.8 118.123 330.139 118.177 330.466C118.244 330.799 118.335 331.127 118.451 331.447C118.915 332.736 119.766 333.85 120.887 334.64C122.012 335.439 123.355 335.876 124.736 335.894L127.339 335.924ZM170.1 331.989C168.237 332.514 166.249 333.871 166.404 334.448C166.532 334.927 168.149 334.8 171.139 334.489C169.503 335.711 168.369 337.034 168.663 337.932C169.595 340.78 184.858 339.283 191.689 337.071C192.565 337.192 193.448 337.252 194.333 337.25C198.359 337.25 201.623 336.072 201.623 334.619C201.623 333.894 200.81 333.237 199.494 332.761C204.029 332.505 204.752 332.341 204.806 331.989C204.975 330.887 180.266 329.119 170.1 331.989ZM101.021 146.437C98.6306 146.549 96.1858 146.645 93.7068 146.717C91.2289 146.79 88.7204 146.848 86.196 146.876C83.6783 146.92 81.1319 146.913 78.5903 146.84L71.0141 146.616L70.7882 146.609L70.7934 146.395C70.842 144.39 70.8357 142.384 70.8234 140.378C70.8032 138.373 70.7401 136.367 70.6879 134.361L70.6797 134.047L71.0141 134.036C73.5111 133.952 76.0082 133.888 78.5053 133.844L85.9965 133.75C87.245 133.732 88.4935 133.724 89.7421 133.727C90.9906 133.721 92.2391 133.726 93.4877 133.741C95.9847 133.758 98.4818 133.797 100.979 133.855L101.495 133.867L101.486 134.361C101.445 136.428 101.363 138.483 101.281 140.503L101.021 146.437ZM100.937 146.353L100.676 140.253C100.595 138.262 100.513 136.306 100.472 134.361L100.979 134.867C98.4818 134.922 95.9847 134.96 93.4877 134.981C92.2392 134.998 90.9906 135.003 89.7421 134.995C88.4935 134.998 87.245 134.99 85.9965 134.972L78.5053 134.878C76.0082 134.837 73.5111 134.773 71.0141 134.687L71.3402 134.361C71.288 136.367 71.2249 138.373 71.2047 140.378C71.1924 142.384 71.186 144.39 71.2346 146.395L71.0141 146.175L78.4203 145.95C80.8728 145.877 83.3206 145.871 85.7971 145.915C88.2667 145.942 90.7525 146 93.2686 146.074C95.7837 146.146 98.3331 146.242 100.937 146.353V146.353Z" fill="#276EF1"/>
<path d="M130.986 146.437C128.596 146.549 126.151 146.645 123.672 146.717C121.194 146.79 118.686 146.848 116.161 146.876C113.643 146.92 111.097 146.913 108.555 146.84L100.979 146.616L100.753 146.609L100.758 146.395C100.807 144.39 100.801 142.384 100.788 140.378C100.768 138.373 100.705 136.367 100.653 134.361L100.645 134.047L100.979 134.036C103.476 133.952 105.973 133.888 108.47 133.844L115.962 133.75C117.21 133.732 118.459 133.724 119.707 133.727C120.956 133.721 122.204 133.726 123.453 133.741C125.95 133.758 128.447 133.797 130.944 133.855L131.46 133.867L131.451 134.361C131.41 136.428 131.328 138.483 131.247 140.503L130.986 146.437ZM130.902 146.353L130.642 140.253C130.56 138.262 130.478 136.306 130.437 134.361L130.944 134.867C128.447 134.922 125.95 134.96 123.453 134.981C122.204 134.998 120.956 135.003 119.707 134.995C118.459 134.998 117.21 134.99 115.962 134.972L108.47 134.878C105.973 134.837 103.476 134.773 100.979 134.687L101.305 134.361C101.253 136.367 101.19 138.373 101.17 140.378C101.157 142.384 101.151 144.39 101.2 146.395L100.979 146.175L108.385 145.95C110.838 145.877 113.286 145.871 115.762 145.915C118.232 145.942 120.718 146 123.234 146.074C125.749 146.146 128.298 146.242 130.902 146.353Z" fill="black"/>
<path d="M116.003 158.472C113.613 158.583 111.168 158.679 108.689 158.751C106.211 158.824 103.703 158.883 101.178 158.91C98.6607 158.954 96.1143 158.948 93.5727 158.874L85.9965 158.65L85.7707 158.643L85.7758 158.429C85.8244 156.424 85.8181 154.418 85.8058 152.412C85.7856 150.407 85.7225 148.401 85.6703 146.395L85.6621 146.081L85.9965 146.07C88.4936 145.986 90.9906 145.922 93.4877 145.879L100.979 145.785C102.227 145.766 103.476 145.758 104.724 145.761C105.973 145.756 107.222 145.76 108.47 145.775C110.967 145.793 113.464 145.831 115.961 145.89L116.478 145.901L116.468 146.395C116.427 148.462 116.346 150.517 116.264 152.538L116.003 158.472ZM115.919 158.388L115.659 152.287C115.577 150.296 115.495 148.34 115.455 146.395L115.961 146.901C113.464 146.956 110.967 146.994 108.47 147.016C107.222 147.032 105.973 147.037 104.724 147.03C103.476 147.032 102.227 147.024 100.979 147.006L93.4877 146.912C90.9906 146.871 88.4936 146.807 85.9965 146.721L86.3226 146.395C86.2704 148.401 86.2073 150.407 86.1871 152.412C86.1748 154.418 86.1685 156.424 86.217 158.429L85.9965 158.209L93.4027 157.985C95.8553 157.912 98.303 157.905 100.779 157.949C103.249 157.976 105.735 158.035 108.251 158.108C110.766 158.18 113.316 158.276 115.919 158.388V158.388ZM116.003 134.287C113.613 134.398 111.168 134.494 108.689 134.566C106.211 134.64 103.703 134.698 101.178 134.725C98.6607 134.769 96.1143 134.763 93.5727 134.69L85.9965 134.465L85.7707 134.458L85.7758 134.245C85.8244 132.239 85.8181 130.233 85.8058 128.228C85.7856 126.222 85.7225 124.216 85.6703 122.211L85.6621 121.896L85.9965 121.885C88.4936 121.801 90.9906 121.738 93.4877 121.694L100.979 121.6C102.227 121.581 103.476 121.573 104.724 121.576C105.973 121.571 107.222 121.575 108.47 121.59C110.967 121.608 113.464 121.646 115.961 121.705L116.478 121.716L116.468 122.211C116.427 124.277 116.346 126.333 116.264 128.353L116.003 134.287ZM115.919 134.203L115.659 128.103C115.577 126.111 115.495 124.156 115.455 122.211L115.961 122.716C113.464 122.771 110.967 122.809 108.47 122.831C107.222 122.847 105.973 122.852 104.724 122.845C103.476 122.847 102.227 122.839 100.979 122.821L93.4877 122.727C90.9906 122.686 88.4936 122.622 85.9965 122.536L86.3226 122.211C86.2704 124.216 86.2073 126.222 86.1871 128.228C86.1748 130.233 86.1685 132.239 86.217 134.245L85.9965 134.025L93.4027 133.8C95.8553 133.727 98.303 133.72 100.779 133.764C103.249 133.792 105.735 133.85 108.251 133.923C110.766 133.995 113.316 134.091 115.919 134.203V134.203ZM298.527 167.915C296.137 168.027 293.692 168.123 291.213 168.195C288.735 168.268 286.227 168.326 283.702 168.354C281.185 168.398 278.638 168.391 276.097 168.318L268.52 168.093L268.295 168.087L268.3 167.873C268.348 165.867 268.342 163.862 268.33 161.856C268.31 159.85 268.246 157.845 268.194 155.839L268.186 155.525L268.52 155.513C271.018 155.43 273.515 155.366 276.012 155.322L283.503 155.228C284.751 155.21 286 155.202 287.248 155.205C288.497 155.199 289.746 155.204 290.994 155.219C293.491 155.236 295.988 155.275 298.485 155.333L299.002 155.345L298.992 155.839C298.951 157.905 298.87 159.961 298.788 161.981L298.527 167.915ZM298.443 167.831L298.183 161.731C298.101 159.74 298.019 157.784 297.979 155.839L298.485 156.345C295.988 156.4 293.491 156.438 290.994 156.459C289.746 156.476 288.497 156.48 287.248 156.473C286 156.475 284.751 156.468 283.503 156.45L276.012 156.356C273.515 156.315 271.018 156.251 268.52 156.164L268.847 155.839C268.794 157.845 268.731 159.85 268.711 161.856C268.699 163.862 268.692 165.867 268.741 167.873L268.52 167.653L275.927 167.428C278.379 167.355 280.827 167.349 283.303 167.393C285.773 167.42 288.259 167.478 290.775 167.551C293.29 167.624 295.839 167.72 298.443 167.831Z" fill="black"/>
<path d="M328.492 167.915C326.102 168.027 323.657 168.123 321.178 168.195C318.7 168.268 316.192 168.326 313.667 168.354C311.15 168.398 308.603 168.391 306.062 168.318L298.486 168.093L298.26 168.087L298.265 167.873C298.313 165.867 298.307 163.862 298.295 161.856C298.275 159.85 298.212 157.845 298.159 155.839L298.151 155.525L298.486 155.513C300.983 155.43 303.48 155.366 305.977 155.322L313.468 155.228C314.716 155.21 315.965 155.202 317.214 155.205C318.462 155.199 319.711 155.204 320.959 155.219C323.456 155.236 325.953 155.275 328.45 155.333L328.967 155.345L328.957 155.839C328.916 157.905 328.835 159.961 328.753 161.981L328.492 167.915ZM328.408 167.831L328.148 161.731C328.066 159.74 327.984 157.784 327.944 155.839L328.45 156.345C325.953 156.4 323.456 156.438 320.959 156.459C319.711 156.476 318.462 156.48 317.214 156.473C315.965 156.475 314.716 156.468 313.468 156.45L305.977 156.356C303.48 156.315 300.983 156.251 298.486 156.164L298.812 155.839C298.759 157.845 298.696 159.85 298.676 161.856C298.664 163.862 298.657 165.867 298.706 167.873L298.486 167.653L305.892 167.428C308.344 167.355 310.792 167.349 313.268 167.393C315.738 167.42 318.224 167.478 320.74 167.551C323.255 167.624 325.805 167.72 328.408 167.831V167.831Z" fill="black"/>
<path d="M313.51 179.949C311.12 180.061 308.675 180.157 306.196 180.229C303.718 180.302 301.209 180.361 298.685 180.388C296.167 180.432 293.621 180.425 291.079 180.352L283.503 180.128L283.277 180.121L283.282 179.907C283.331 177.902 283.325 175.896 283.312 173.89C283.292 171.885 283.229 169.879 283.177 167.873L283.169 167.559L283.503 167.548C286 167.464 288.497 167.4 290.994 167.356L298.485 167.262C299.734 167.244 300.983 167.236 302.231 167.239C303.48 167.233 304.728 167.238 305.977 167.253C308.474 167.271 310.971 167.309 313.468 167.368L313.984 167.379L313.975 167.873C313.934 169.94 313.852 171.995 313.77 174.015L313.51 179.949ZM313.426 179.865L313.165 173.765C313.084 171.774 313.002 169.818 312.961 167.873L313.468 168.379C310.971 168.434 308.474 168.472 305.977 168.494C304.728 168.51 303.48 168.515 302.231 168.508C300.983 168.51 299.734 168.502 298.485 168.484L290.994 168.39C288.497 168.349 286 168.285 283.503 168.199L283.829 167.873C283.777 169.879 283.714 171.885 283.694 173.89C283.681 175.896 283.675 177.902 283.724 179.907L283.503 179.687L290.909 179.463C293.362 179.389 295.81 179.383 298.286 179.427C300.756 179.454 303.241 179.513 305.758 179.586C308.273 179.658 310.822 179.754 313.426 179.865ZM313.51 155.765C311.12 155.876 308.675 155.972 306.196 156.044C303.718 156.117 301.209 156.176 298.685 156.203C296.167 156.247 293.621 156.241 291.079 156.167L283.503 155.943L283.277 155.936L283.282 155.723C283.331 153.717 283.325 151.711 283.312 149.705C283.292 147.7 283.229 145.694 283.177 143.688L283.169 143.374L283.503 143.363C286 143.279 288.497 143.215 290.994 143.172L298.485 143.078C299.734 143.059 300.983 143.051 302.231 143.054C303.48 143.049 304.728 143.053 305.977 143.068C308.474 143.086 310.971 143.124 313.468 143.183L313.984 143.194L313.975 143.688C313.934 145.755 313.852 147.81 313.77 149.831L313.51 155.765ZM313.426 155.681L313.165 149.58C313.084 147.589 313.002 145.633 312.961 143.688L313.468 144.194C310.971 144.249 308.474 144.287 305.977 144.309C304.728 144.325 303.48 144.33 302.231 144.323C300.983 144.325 299.734 144.317 298.485 144.299L290.994 144.205C288.497 144.164 286 144.1 283.503 144.014L283.829 143.688C283.777 145.694 283.714 147.7 283.694 149.705C283.681 151.711 283.675 153.717 283.724 155.723L283.503 155.502L290.909 155.278C293.362 155.205 295.81 155.198 298.286 155.242C300.756 155.269 303.241 155.328 305.758 155.401C308.273 155.473 310.822 155.569 313.426 155.681ZM68.0773 244.045C68.8595 244.409 69.6277 244.778 70.3822 245.152C71.1347 245.533 71.8914 245.898 72.6306 246.288L72.9972 246.482L72.6316 246.688L70.421 247.94C69.6861 248.36 68.9314 248.745 68.1875 249.149L68.2853 249.051C67.4432 250.519 66.548 251.958 65.7315 253.439L65.6384 253.608L65.5505 253.44C65.1593 252.69 64.7412 251.954 64.3242 251.218C63.9147 250.478 63.4729 249.756 63.0482 249.024L63.1131 249.089C61.5974 248.331 60.0904 247.558 58.5921 246.769L58.1431 246.531L58.5909 246.278C60.0652 245.445 61.5374 244.608 63.0256 243.8L62.8997 243.926C63.7165 242.445 64.5597 240.978 65.4017 239.511L65.6169 239.136L65.8105 239.51C66.5779 240.993 67.3286 242.499 68.0773 244.045ZM68.0353 244.087C67.1508 242.669 66.2682 241.213 65.4024 239.734L65.811 239.733C65.0347 241.236 64.2595 242.74 63.4579 244.229L63.4146 244.31L63.3319 244.356C61.8515 245.178 60.3552 245.971 58.8609 246.768L58.8597 246.277C60.3397 247.1 61.8095 247.942 63.2688 248.803L63.314 248.829L63.3339 248.867C63.7258 249.617 64.1006 250.376 64.5077 251.118C64.9074 251.863 65.3058 252.609 65.7312 253.34L65.5503 253.341C66.3522 251.852 67.0753 250.319 67.8517 248.816L67.8834 248.755L67.9496 248.718C68.69 248.307 69.4196 247.877 70.1689 247.483L72.4112 246.289L72.4122 246.689C71.663 246.271 70.9313 245.829 70.1955 245.402C69.463 244.971 68.7429 244.532 68.0353 244.087V244.087Z" fill="black"/>
<path d="M81.092 219.203L88.7642 223.366L81.1134 227.567L76.9422 235.224L72.7329 227.588L65.0613 223.425L72.712 219.224L76.8826 211.568L81.092 219.203Z" fill="#276EF1"/>
<path d="M88.5307 252.592L93.6813 255.387L88.545 258.207L85.7452 263.348L82.9191 258.221L77.7686 255.427L82.9048 252.606L85.7053 247.466L88.5307 252.592Z" fill="black"/>
<path d="M101.816 232.495C102.904 232.964 103.931 233.46 104.946 233.963L105.32 234.149L104.947 234.368C103.952 234.952 102.95 235.523 101.923 236.048L102.021 235.949C101.432 236.941 100.805 237.911 100.235 238.912L100.146 239.067L100.065 238.913C99.7974 238.402 99.5101 237.903 99.2237 237.403C98.9444 236.899 98.6328 236.413 98.3383 235.918L98.4033 235.982C97.3623 235.482 96.3283 234.97 95.3064 234.435L94.8579 234.2L95.3051 233.944C96.3061 233.371 97.3049 232.794 98.3197 232.246L98.1938 232.372C98.7525 231.365 99.3376 230.372 99.9216 229.378L100.143 229.001L100.33 229.377C100.835 230.39 101.331 231.418 101.816 232.495ZM101.774 232.537C101.146 231.595 100.53 230.606 99.9222 229.601L100.331 229.6C99.8126 230.629 99.2955 231.66 98.752 232.675L98.7092 232.755L98.626 232.802C97.619 233.364 96.596 233.897 95.5752 234.434L95.574 233.944C96.5794 234.509 97.5727 235.096 98.5591 235.696L98.6056 235.725L98.6241 235.761C98.8858 236.274 99.1303 236.797 99.4072 237.302C99.677 237.811 99.9459 238.321 100.234 238.82L100.065 238.82C100.597 237.798 101.072 236.745 101.585 235.713L101.614 235.655L101.684 235.614C102.678 235.029 103.698 234.49 104.725 233.964L104.726 234.368C103.714 233.771 102.712 233.168 101.774 232.537V232.537ZM332.166 207.743C331.523 207.963 330.865 208.175 330.199 208.376C329.531 208.571 328.863 208.783 328.184 208.967L328.283 208.579C329.308 209.508 330.351 210.418 331.335 211.391L331.392 211.448L331.406 211.511C331.708 212.86 331.967 214.22 332.289 215.564L332.125 215.522C332.606 215.025 333.07 214.513 333.535 214.001C334.006 213.495 334.45 212.963 334.909 212.445L334.936 212.414L334.988 212.398C336.315 212 337.645 211.616 338.982 211.257L338.861 211.732C337.834 210.805 336.804 209.881 335.797 208.933L335.728 208.868L335.706 208.78C335.371 207.439 335.065 206.091 334.757 204.743L335.153 204.844C334.16 205.838 333.163 206.815 332.166 207.743ZM332.136 207.692C333.027 206.599 333.918 205.554 334.813 204.527L335.089 204.209L335.209 204.628C335.588 205.957 335.969 207.286 336.321 208.622L336.23 208.469C337.248 209.406 338.244 210.366 339.243 211.323L339.614 211.679L339.121 211.799C337.776 212.125 336.424 212.426 335.068 212.714L335.147 212.667C334.661 213.16 334.161 213.639 333.688 214.143C333.21 214.642 332.73 215.14 332.267 215.654L332.149 215.784L332.102 215.612C331.738 214.279 331.31 212.962 330.925 211.634L330.996 211.753C329.955 210.842 328.972 209.868 327.972 208.913L327.667 208.622L328.071 208.525C328.733 208.366 329.406 208.235 330.079 208.088C330.754 207.946 331.438 207.816 332.136 207.692V207.692Z" fill="black"/>
<path d="M346.315 218.185L341.673 219.371L345.177 222.631L346.366 227.264L349.633 223.766L354.274 222.58L350.769 219.32L349.581 214.687L346.315 218.185Z" fill="black"/>
<path d="M346.852 203.531C345.992 203.861 345.077 204.15 344.154 204.429L344.254 204.037C344.966 204.655 345.669 205.283 346.335 205.95L346.393 206.008L346.406 206.069C346.599 206.991 346.748 207.925 346.961 208.842L346.797 208.8C347.127 208.464 347.441 208.112 347.755 207.762C348.076 207.417 348.369 207.046 348.677 206.689L348.703 206.66L348.756 206.643C349.655 206.354 350.558 206.079 351.467 205.829L351.346 206.305C350.642 205.678 349.935 205.055 349.251 204.407L349.181 204.341L349.16 204.254C348.934 203.34 348.738 202.419 348.54 201.498L348.936 201.599C348.244 202.271 347.548 202.925 346.852 203.531ZM346.822 203.48C347.412 202.708 348.002 201.986 348.595 201.282L348.865 200.961L348.991 201.382C349.262 202.285 349.533 203.187 349.775 204.096L349.684 203.943C350.379 204.579 351.052 205.239 351.728 205.896L352.098 206.255L351.606 206.371C350.688 206.588 349.764 206.78 348.837 206.958L348.916 206.911C348.58 207.243 348.231 207.561 347.909 207.904C347.58 208.242 347.251 208.579 346.938 208.931L346.822 209.062L346.774 208.889C346.519 207.983 346.201 207.093 345.926 206.192L345.997 206.312C345.283 205.695 344.607 205.04 343.939 204.374L343.631 204.067L344.039 203.982C344.943 203.795 345.855 203.616 346.822 203.48ZM339.343 283.904C338.879 289.807 338.295 295.016 337.687 300.902C337.038 306.782 336.436 312.668 335.668 318.536L334.471 327.329L334.167 329.529C334.094 330.287 333.918 331.031 333.643 331.741C333.094 333.175 332.119 334.407 330.849 335.272C329.588 336.138 328.096 336.606 326.565 336.616L322.115 336.646C319.155 336.646 316.188 336.723 313.227 336.759C310.261 336.812 307.3 336.883 304.333 336.907L299.889 336.961C298.69 336.966 297.504 336.699 296.422 336.182C296.062 336.009 295.718 335.806 295.392 335.576C294.06 334.669 293.043 333.373 292.479 331.866C292.339 331.489 292.225 331.104 292.139 330.712C292.068 330.314 292.002 329.921 291.96 329.565L291.925 329.285L291.692 327.365L290.644 318.554C289.333 306.794 288.1 295.027 287.111 283.226L287.168 283.904C294.907 284.278 306.704 283.773 317.421 283.904C317.159 284.373 316.891 285.277 316.611 285.741C315.622 287.399 314.544 288.999 313.442 290.58C311.208 293.719 308.831 296.77 306.371 299.748C305.161 301.258 303.899 302.727 302.642 304.201C301.402 305.688 300.11 307.132 298.847 308.607L291.162 317.382C294.187 314.914 297.071 312.278 299.8 309.487C302.552 306.722 305.167 303.815 307.663 300.807C308.885 299.284 310.106 297.751 311.256 296.169C312.387 294.576 313.519 292.976 314.532 291.294C315.565 289.624 316.502 287.897 317.338 286.121C317.606 285.539 317.934 284.504 318.172 283.904C326.863 283.993 339.343 283.904 339.343 283.904ZM300.277 263.368V263.249L300.217 263.148L297.703 259.105L297.584 258.915L297.369 258.921H297.363L292.848 258.962L288.428 259.034H288.332L288.172 259.04L288.094 259.165L285.688 263.273L285.658 263.32L285.664 263.368C285.705 264.783 285.705 266.198 285.717 267.607C285.729 269.022 285.711 270.431 285.682 271.846C285.634 273.642 285.568 275.443 285.527 277.239C285.497 278.267 299.973 278.291 300.014 277.239C300.086 275.515 300.144 273.763 300.187 271.983C300.235 270.562 300.267 269.131 300.283 267.69C300.294 266.251 300.3 264.807 300.277 263.368ZM286.17 277.239C286.134 275.598 286.075 273.957 286.027 272.316C286.021 272.161 286.021 272.001 286.015 271.846C285.985 270.431 285.967 269.022 285.979 267.607C285.991 266.216 285.991 264.825 286.039 263.427L286.009 263.469L286.039 263.368V263.427L288.475 259.587H288.332L288.565 259.45L288.475 259.587L292.848 259.652L297.143 259.7L297.036 259.515L297.369 259.7H297.143L299.425 263.481V263.368L299.49 263.594L299.425 263.481C299.401 264.836 299.407 266.174 299.425 267.524C299.437 268.909 299.466 270.302 299.514 271.703C299.538 272.684 299.568 273.677 299.603 274.676C299.633 275.52 299.663 276.377 299.699 277.239C299.74 278.243 286.194 278.142 286.17 277.239Z" fill="#276EF1"/>
<path d="M296.665 254.753H289.035C288.578 254.753 288.208 255.123 288.208 255.579V258.484C288.208 258.94 288.578 259.31 289.035 259.31H296.665C297.122 259.31 297.493 258.94 297.493 258.484V255.579C297.493 255.123 297.122 254.753 296.665 254.753Z" fill="black"/>
<path d="M288.208 266.895C288.731 266.27 289.297 265.682 289.9 265.133C290.49 264.577 291.11 264.06 291.735 263.55C292.371 263.051 293.013 262.561 293.685 262.109C294.354 261.642 295.054 261.221 295.78 260.849C295.257 261.474 294.692 262.063 294.089 262.612C293.499 263.167 292.879 263.685 292.252 264.194C291.616 264.692 290.974 265.182 290.302 265.634C289.633 266.101 288.933 266.522 288.208 266.895V266.895ZM291.348 268.785C291.694 268.287 292.084 267.821 292.514 267.393C292.93 266.965 293.368 266.559 293.826 266.176C294.284 265.793 294.761 265.433 295.256 265.1C295.754 264.753 296.283 264.452 296.835 264.201C296.49 264.699 296.1 265.166 295.671 265.594C295.254 266.022 294.816 266.427 294.357 266.809C293.899 267.192 293.421 267.551 292.926 267.885C292.428 268.231 291.9 268.532 291.348 268.785V268.785Z" fill="black"/>
<path d="M305.44 249.086L311.549 277.239" stroke="#276EF1" stroke-width="7" stroke-miterlimit="10"/>
<path d="M326.023 240.805L326.822 244.467L283.656 253.796L282.858 250.133C286.504 249.58 290.134 248.954 293.748 248.255C297.364 247.571 300.968 246.816 304.566 246.049C308.164 245.264 311.756 244.461 315.33 243.587C318.911 242.737 322.475 241.81 326.023 240.805Z" fill="black"/>
<path d="M293.551 247.351C289.971 248.201 286.406 249.129 282.858 250.133L284.377 243.082L327.542 233.754L326.023 240.805C322.378 241.358 318.748 241.984 315.134 242.684C311.518 243.367 307.914 244.123 304.316 244.89C300.723 245.674 297.131 246.477 293.551 247.351ZM337.26 277.232C337.462 276.342 337.692 275.464 337.867 274.573C338.026 273.68 338.157 272.783 338.235 271.878C338.414 270.074 338.471 268.259 338.407 266.446C338.37 264.633 338.232 262.821 338.063 261.011L337.769 258.296C337.753 257.85 337.659 257.41 337.49 256.997C337.289 256.602 336.963 256.285 336.563 256.094C336.139 255.944 335.698 255.845 335.25 255.799L333.9 255.573L332.549 255.357C332.123 255.245 331.674 255.258 331.256 255.394C330.85 255.539 330.502 255.812 330.267 256.172C330.064 256.566 329.907 256.981 329.797 257.41C329.506 258.277 329.199 259.14 328.845 259.986C327.433 263.355 325.46 266.581 322.579 268.961L322.593 268.949C321.899 269.526 321.152 270.036 320.361 270.471C319.967 270.687 319.561 270.88 319.144 271.05C318.735 271.167 318.35 271.354 318.006 271.603C317.691 271.87 317.472 272.232 317.381 272.634L317.117 273.931L316.572 276.527L316.571 276.533L316.57 276.537L316.251 277.248L316.208 277.23L316.486 276.502L316.483 276.511L316.888 273.889L317.101 272.577C317.189 272.105 317.428 271.675 317.781 271.351C317.959 271.188 318.162 271.056 318.382 270.96C318.605 270.87 318.803 270.796 318.995 270.708C319.395 270.534 319.785 270.337 320.162 270.118C320.912 269.678 321.621 269.172 322.281 268.607L322.293 268.598L322.296 268.595C322.637 268.307 322.964 268.002 323.274 267.682C323.595 267.366 323.922 267.058 324.215 266.714C324.807 266.034 325.357 265.318 325.862 264.572C326.88 263.075 327.753 261.486 328.471 259.825C328.846 259.001 329.174 258.155 329.488 257.304L329.716 256.662C329.789 256.432 329.895 256.213 330.029 256.012C330.308 255.611 330.712 255.312 331.177 255.162C331.636 255.028 332.124 255.026 332.584 255.158L333.929 255.408L335.277 255.65C335.736 255.705 336.187 255.811 336.623 255.966C337.056 256.165 337.412 256.501 337.634 256.922C337.819 257.35 337.926 257.807 337.951 258.272L338.35 260.977C338.611 262.786 338.768 264.609 338.821 266.436C338.866 268.266 338.775 270.097 338.549 271.914C338.436 272.821 338.273 273.724 338.076 274.617C337.845 275.501 337.559 276.372 337.304 277.246L337.26 277.232ZM327.776 248.973L328.014 247.621L328.127 246.944C328.148 246.818 328.199 246.7 328.277 246.6C328.355 246.499 328.457 246.42 328.573 246.368C328.693 246.316 328.824 246.294 328.954 246.304C329.088 246.32 329.186 246.343 329.303 246.362L329.981 246.482C330.433 246.56 330.885 246.64 331.334 246.734C333.137 247.07 334.912 247.534 336.691 247.982C337.135 248.098 337.581 248.203 338.028 248.305L338.697 248.461L339.032 248.539C339.156 248.566 339.271 248.622 339.369 248.704C339.466 248.786 339.541 248.892 339.587 249.011C339.633 249.129 339.649 249.258 339.633 249.384L339.52 250.064L339.313 251.422C339.305 251.555 339.267 251.684 339.2 251.799C339.134 251.915 339.042 252.014 338.931 252.088C338.815 252.164 338.681 252.209 338.543 252.22C338.417 252.222 338.291 252.212 338.168 252.189L337.487 252.095C337.28 252.054 337.071 252.032 336.861 252.028C336.759 252.045 336.665 252.093 336.592 252.165C336.519 252.238 336.47 252.331 336.453 252.432L336.423 252.599L336.364 252.937L336.127 254.289L336.086 254.519L335.851 254.47C334.758 254.239 333.669 253.989 332.582 253.732L332.361 253.68L332.402 253.459L332.59 252.451L332.685 251.947L332.737 251.696C332.754 251.635 332.76 251.572 332.755 251.509C332.743 251.389 332.687 251.277 332.598 251.197C332.483 251.111 332.35 251.054 332.209 251.03L331.228 250.721L329.267 250.101C328.941 249.994 328.61 249.908 328.281 249.81C328.108 249.758 327.96 249.644 327.867 249.489C327.773 249.334 327.741 249.15 327.776 248.973V248.973ZM327.822 248.982C327.794 249.144 327.827 249.312 327.916 249.451C328.005 249.59 328.143 249.69 328.303 249.733C328.635 249.815 328.965 249.908 329.3 249.981L331.306 250.436L332.308 250.665C332.396 250.688 332.464 250.7 332.569 250.731C332.674 250.765 332.773 250.817 332.859 250.887C333.034 251.028 333.15 251.23 333.184 251.453C333.199 251.56 333.196 251.669 333.176 251.775L333.137 252.029L333.048 252.534L332.869 253.544L332.688 253.271C333.779 253.512 334.868 253.758 335.953 254.025L335.678 254.206L335.945 252.859L336.012 252.523L336.046 252.353C336.062 252.28 336.086 252.21 336.119 252.143C336.184 252.011 336.282 251.897 336.402 251.811C336.522 251.725 336.662 251.671 336.809 251.652C337.057 251.656 337.304 251.687 337.544 251.747L338.22 251.877C338.311 251.912 338.408 251.928 338.505 251.924C338.603 251.92 338.699 251.896 338.786 251.853C338.87 251.804 338.94 251.735 338.991 251.653C339.042 251.57 339.072 251.477 339.079 251.38L339.352 250.035L339.477 249.363C339.492 249.262 339.481 249.158 339.445 249.062C339.41 248.966 339.351 248.881 339.274 248.813C339.093 248.691 338.883 248.62 338.666 248.605L337.992 248.466C337.543 248.372 337.094 248.281 336.643 248.201C334.839 247.865 333.033 247.544 331.254 247.095C330.807 246.992 330.364 246.876 329.92 246.758L329.255 246.584C329.061 246.499 328.844 246.479 328.638 246.528C328.203 246.653 328.203 247.207 328.098 247.637L327.822 248.982Z" fill="#276EF1"/>
<path d="M332.231 255.198L336.076 255.868L336.357 254.845C336.373 254.786 336.378 254.724 336.369 254.662C336.361 254.601 336.341 254.542 336.309 254.489C336.277 254.436 336.235 254.389 336.186 254.353C336.136 254.316 336.079 254.29 336.019 254.275L332.386 253.413C332.268 253.385 332.143 253.405 332.04 253.467C331.936 253.53 331.861 253.631 331.831 253.748L331.472 255.167L331.603 255.187C331.812 255.159 332.024 255.163 332.231 255.198V255.198ZM330.073 250.255C329.941 250.732 329.682 251.165 329.324 251.508C328.967 251.851 328.523 252.091 328.039 252.203C328.039 252.203 328.012 253.142 329.756 252.59C330.233 252.467 330.677 252.239 331.054 251.922C331.432 251.606 331.733 251.209 331.937 250.76L330.073 250.255ZM328.181 246.971L327.721 246.851C327.662 246.835 327.6 246.832 327.539 246.841C327.478 246.849 327.419 246.87 327.367 246.902C327.314 246.933 327.268 246.975 327.232 247.025C327.196 247.075 327.17 247.131 327.155 247.191L326.904 248.252C326.89 248.313 326.888 248.376 326.899 248.437C326.909 248.498 326.932 248.557 326.966 248.609C327 248.661 327.045 248.706 327.096 248.741C327.148 248.775 327.206 248.799 327.268 248.811L327.811 248.913L328.181 246.971ZM337.294 277.239H316.23L316.528 276.519L317.231 272.655C317.295 272.298 317.452 271.965 317.686 271.688C317.92 271.412 318.223 271.202 318.565 271.079C320.675 270.257 322.556 268.942 324.051 267.244C325.164 267.558 326.339 267.574 327.459 267.292C329.596 266.704 331.518 265.513 332.993 263.861C334.721 261.923 334.447 260.788 336.097 259.444C336.633 259.01 337.229 258.656 337.866 258.392C338.378 262.785 339.498 270.271 337.294 277.239Z" fill="black"/>
<path d="M337.294 277.149L341.783 277.117C342.534 277.104 343.273 277.079 344.034 277.078C344.842 277.093 345.62 277.38 346.244 277.891C346.868 278.403 347.302 279.109 347.475 279.896C347.655 280.709 347.557 281.558 347.195 282.308C346.82 283.073 346.197 283.69 345.428 284.058C345.038 284.241 344.62 284.359 344.192 284.407C343.967 284.429 343.772 284.437 343.592 284.442L343.03 284.463C337.045 284.711 331.059 284.754 325.074 284.646L316.095 284.4C313.103 284.308 310.11 284.222 307.117 284.193C301.132 284.125 295.146 284.236 289.16 284.392L284.671 284.512C283.911 284.529 283.201 284.56 282.401 284.564C281.49 284.543 280.613 284.213 279.916 283.628C279.21 283.038 278.726 282.227 278.542 281.328C278.355 280.415 278.486 279.466 278.913 278.638C279.34 277.809 280.038 277.151 280.89 276.772C281.318 276.584 281.773 276.467 282.239 276.427L282.582 276.408L282.863 276.405L283.424 276.4C289.41 276.338 295.395 276.263 301.381 276.288C307.366 276.327 313.352 276.38 319.337 276.652C325.323 276.894 331.309 277.155 337.294 277.149ZM337.294 277.328C331.309 277.323 325.323 277.583 319.337 277.826C313.352 278.098 307.366 278.151 301.381 278.19C295.395 278.214 289.41 278.139 283.424 278.078L282.863 278.072L282.582 278.069L282.365 278.077C281.712 278.133 281.105 278.434 280.666 278.92C280.227 279.406 279.989 280.04 280 280.694C280.011 281.348 280.271 281.974 280.726 282.444C281.181 282.915 281.799 283.195 282.453 283.229L284.671 283.295L289.16 283.415C295.146 283.571 301.132 283.682 307.117 283.614C310.11 283.585 313.103 283.499 316.095 283.407L325.074 283.161C331.059 283.053 337.045 283.096 343.03 283.344L343.592 283.365C343.785 283.374 343.965 283.378 344.113 283.374C344.6 283.358 345.076 283.218 345.494 282.968C345.912 282.717 346.26 282.365 346.503 281.943C346.843 281.358 346.975 280.677 346.88 280.008C346.772 279.315 346.429 278.679 345.909 278.207C345.389 277.735 344.723 277.455 344.021 277.413C343.286 277.385 342.528 277.379 341.783 277.361L337.294 277.328Z" fill="black"/>
<path d="M285.978 269.277C285.978 269.277 288.059 268.219 290.489 270.217C291.397 270.979 292.499 271.476 293.672 271.652C294.845 271.828 296.044 271.677 297.137 271.216C298.119 270.758 298.993 270.097 299.699 269.277L299.699 277.239H286.17L285.978 269.277Z" fill="black"/>
</svg>
